<?xml version="1.0" standalone="no"?>
<!DOCTYPE svg PUBLIC "-//W3C//DTD SVG 1.1//EN" "http://www.w3.org/Graphics/SVG/1.1/DTD/svg11.dtd" >
<svg xmlns="http://www.w3.org/2000/svg">
<metadata></metadata>
<defs>
<font id="PeugeotItalic" horiz-adv-x="1183" >
<font-face units-per-em="2048" ascent="1638" descent="-410" />
<missing-glyph horiz-adv-x="505" />
<glyph unicode="&#xfb01;" horiz-adv-x="1130" d="M-229 -387l32 147q50 -22 113 -22q44 0 69.5 24t37.5 82l210 992h-139l29 137h139l25 112q43 205 167.5 301.5t329.5 96.5q184 0 316 -68l-33 -153q-131 77 -299 77q-262 0 -317 -254l-23 -112h588l-207 -973h-166l178 836h-424l-211 -992q-27 -132 -88.5 -197 t-175.5 -65q-80 0 -151 31z" />
<glyph unicode="&#xfb02;" horiz-adv-x="1173" d="M-229 -387l32 147q50 -22 113 -22q44 0 69.5 24t37.5 82l208 992h-139l29 137h139l25 112q43 205 167.5 301.5t329.5 96.5q180 0 328 -70l-252 -1196q-4 -24 -4 -33q0 -63 72 -63q46 0 98 20l-2 -143q-64 -27 -139 -27q-91 0 -144 49t-53 142q0 38 8 71l228 1082 q-70 24 -156 24q-262 0 -317 -254l-23 -112h254l-29 -137h-254l-211 -992q-27 -132 -88.5 -197t-175.5 -65q-80 0 -151 31z" />
<glyph horiz-adv-x="0" />
<glyph horiz-adv-x="2048" />
<glyph unicode=" "  horiz-adv-x="505" />
<glyph unicode="&#x09;" horiz-adv-x="505" />
<glyph unicode="&#xa0;" horiz-adv-x="505" />
<glyph unicode="!" horiz-adv-x="600" d="M55 0l41 190h193l-39 -190h-195zM158 391l190 993h197l-234 -993h-153z" />
<glyph unicode="&#x22;" horiz-adv-x="872" d="M221 868l90 516h168l-125 -516h-133zM569 868l93 516h165l-125 -516h-133z" />
<glyph unicode="#" horiz-adv-x="1241" d="M29 377l28 133h205l82 383h-207l29 133h207l76 358h153l-78 -358h326l78 358h151l-78 -358h209l-28 -135h-209l-80 -381h207l-27 -133h-209l-80 -377h-151l80 377h-326l-80 -377h-153l79 377h-204zM416 510h323l82 383h-325z" />
<glyph unicode="$" d="M59 102l35 152q169 -90 381 -90q313 0 313 225q0 47 -24.5 85.5t-64 64.5t-90.5 53t-103.5 50t-103.5 56t-90.5 71t-64 95.5t-24.5 128.5q0 87 36.5 156t99 112t137.5 67t161 30l48 233h139l-49 -227q175 -9 290 -70l-34 -151q-142 69 -314 69q-342 0 -342 -215 q0 -52 31.5 -93.5t81.5 -70.5t110.5 -57t121 -60t110.5 -71.5t81.5 -100.5t31.5 -138q0 -93 -34 -166t-93.5 -119.5t-134.5 -73t-164 -33.5l-50 -239h-137l51 239q-183 12 -342 88z" />
<glyph unicode="%" horiz-adv-x="1816" d="M141 848q0 154 53.5 283t151.5 205.5t219 76.5q114 0 182 -78t68 -227q0 -112 -31 -215.5t-85.5 -181t-135.5 -124t-174 -46.5q-112 0 -180 80t-68 227zM274 850q0 -178 138 -178q108 0 188.5 122.5t81.5 309.5q0 178 -137 178q-108 0 -189 -122.5t-82 -309.5zM313 0 l1051 1384h139l-1052 -1384h-138zM1004 279q0 153 53 282t150 206t218 77q114 0 182 -78t68 -227q0 -151 -52 -280t-151 -208.5t-223 -79.5q-112 2 -178.5 81t-66.5 227zM1137 281q0 -179 135 -179q109 0 189 123t81 310q0 178 -137 178q-108 0 -188 -122.5t-80 -309.5z" />
<glyph unicode="&#x26;" horiz-adv-x="1380" d="M57 362q0 91 30.5 164t84.5 121.5t116 79t138 49.5q-77 30 -127.5 91t-50.5 153q0 124 74.5 214.5t198 134.5t280.5 44q100 0 196 -22t156 -54l-37 -159q-147 77 -340 77q-95 0 -170 -22.5t-124.5 -76.5t-49.5 -132q0 -93 73 -137.5t183 -44.5h78l-35 -160h-76 q-84 0 -156.5 -18t-130 -53.5t-91 -95.5t-33.5 -138q0 -117 81.5 -182.5t227.5 -65.5q87 0 161.5 23.5t137.5 72.5t104.5 133.5t53.5 198.5h-193l33 152h539l-33 -152h-170q-36 -280 -206.5 -433t-457.5 -153q-205 0 -335 109.5t-130 281.5z" />
<glyph unicode="'" horiz-adv-x="524" d="M221 868l92 516h166l-125 -516h-133z" />
<glyph unicode="(" horiz-adv-x="575" d="M80 328q0 114 15.5 220t38.5 191t64 172t78.5 150.5t96.5 140.5t102 127t111 125h164q-20 -23 -58 -69q-54 -64 -81 -96.5t-75 -94t-73 -100t-63 -101t-58 -112t-45 -118t-37 -133.5t-20.5 -144t-8.5 -164q0 -339 134 -711h-146q-62 165 -100.5 353.5t-38.5 363.5z" />
<glyph unicode=")" horiz-adv-x="581" d="M-236 -389q20 23 58 69q54 64 81 96.5t75 94t73 100t63 101t58 112t45 118t37 133.5t20.5 144t8.5 164q0 342 -133 711h145q62 -165 100.5 -353.5t38.5 -363.5q0 -114 -15.5 -220t-38.5 -191t-64 -172t-78.5 -150.5t-96.5 -140.5t-102 -127t-111 -125h-164z" />
<glyph unicode="*" horiz-adv-x="765" d="M154 1112l59 131l207 -88l22 229h150l-74 -231l244 90l6 -133l-244 -41l121 -201l-119 -84l-84 220l-170 -218l-98 88l199 195z" />
<glyph unicode="+" d="M115 569v136h405v399h142v-399h407v-136h-407v-399h-142v399h-405z" />
<glyph unicode="," horiz-adv-x="532" d="M-193 -285q285 136 285 441q0 5 -1 16.5t-1 17.5h170q2 -25 2 -69q-6 -172 -108 -306t-277 -214z" />
<glyph unicode="-" horiz-adv-x="808" d="M129 514l33 154h500l-33 -154h-500z" />
<glyph unicode="." horiz-adv-x="532" d="M31 0l43 193h192l-41 -193h-194z" />
<glyph unicode="/" horiz-adv-x="716" d="M-150 0l865 1384h151l-864 -1384h-152z" />
<glyph unicode="0" d="M68 463q0 87 12 177.5t38 184t64 179t93 160.5t121 130t152.5 87t184.5 32q187 0 285 -132.5t98 -358.5q0 -102 -17 -208.5t-50.5 -214t-89 -202t-126.5 -168t-169 -116t-211 -42.5q-187 0 -286 133t-99 359zM248 467q0 -163 57.5 -250.5t173.5 -87.5q93 1 172 56 t130 140.5t87.5 192.5t52 208.5t15.5 191.5q0 163 -57 250t-172 87q-93 0 -172 -55t-130.5 -140.5t-88 -193t-52.5 -209t-16 -190.5z" />
<glyph unicode="1" d="M354 1284l371 100h168l-293 -1384h-180l258 1214l-322 -88z" />
<glyph unicode="2" d="M35 0l31 141q358 265 476 362q218 183 292 321q53 98 53 200q0 116 -75 173.5t-202 57.5q-161 0 -307 -75l-35 149q161 84 363 84q88 0 165 -21t140.5 -64t100 -116.5t36.5 -169.5q0 -85 -22 -163t-71 -152.5t-108 -140t-152 -141t-183 -140t-220 -151.5h639l-34 -154 h-887z" />
<glyph unicode="3" d="M39 59l37 156q145 -86 321 -86q64 0 121 10.5t108 34.5t87.5 60t58 89.5t21.5 120.5q0 111 -82.5 163t-221.5 52h-129l33 152h117q96 0 178 24t138.5 78.5t56.5 130.5q0 108 -72.5 159.5t-198.5 51.5q-167 0 -313 -77l-35 149q162 86 379 86q88 0 163 -20t134.5 -60 t93 -107.5t33.5 -156.5q0 -71 -26.5 -130.5t-71.5 -99.5t-95.5 -66t-107.5 -40q96 -30 158.5 -101.5t62.5 -189.5q0 -114 -49 -205t-132.5 -148.5t-190 -87.5t-226.5 -30q-97 0 -191.5 24t-158.5 64z" />
<glyph unicode="4" d="M-20 367l26 139l840 878h213l-185 -872h170l-30 -145h-170l-78 -367h-170l80 367h-696zM209 512h496l145 674z" />
<glyph unicode="5" d="M35 59l37 156q62 -38 147.5 -62t173.5 -24q179 0 287 85t108 247q0 65 -21.5 114t-55.5 78t-85 46.5t-101.5 23.5t-112.5 6q-72 0 -144 -10l-39 47l168 618h725l-32 -155h-562l-96 -359q16 2 49 2q76 0 145 -12.5t133 -42t110 -74t74 -112.5t28 -152 q0 -225 -156.5 -366.5t-427.5 -141.5q-98 0 -193 23.5t-159 64.5z" />
<glyph unicode="6" d="M102 467q0 146 28 282.5t88 257.5t146 211t209 142.5t269 52.5q177 0 293 -55l-35 -154q-117 51 -266 51q-197 0 -331.5 -124t-189.5 -359q46 50 135 91.5t201 41.5q165 0 275 -105t110 -284q0 -245 -149 -395t-377 -150q-107 0 -188 41.5t-127 113t-68.5 157 t-22.5 184.5zM279 410q0 -56 14.5 -104.5t43.5 -89t78.5 -64t114.5 -23.5q131 0 227.5 97.5t96.5 256.5q0 127 -61.5 197t-176.5 70q-145 0 -241 -88.5t-96 -251.5z" />
<glyph unicode="7" d="M143 0q123 374 336.5 688t474.5 541h-688l31 155h905l-28 -143q-297 -268 -504.5 -562.5t-331.5 -678.5h-195z" />
<glyph unicode="8" d="M45 328q0 307 371 397q-103 70 -155 138t-52 169q0 167 133 274t356 107q176 0 291 -91t115 -243q0 -146 -90 -238t-248 -134q59 -34 99.5 -64.5t76 -70t53 -88.5t17.5 -109q0 -177 -145.5 -290.5t-362.5 -113.5q-87 0 -167 21.5t-146.5 63.5t-106 112.5t-39.5 159.5z M221 348q0 -110 82.5 -164.5t208.5 -54.5q39 0 79.5 7.5t82.5 25.5t75 44.5t53.5 67.5t20.5 91q0 49 -19 89.5t-59.5 74t-80 56.5t-103.5 54q-340 -65 -340 -291zM391 1051q0 -35 11 -65.5t23 -49.5t42 -44t44.5 -34.5t57 -34.5t54.5 -32q301 74 301 268q0 97 -69.5 146.5 t-182.5 49.5q-119 0 -200 -55t-81 -149z" />
<glyph unicode="9" d="M45 27l35 153q117 -51 266 -51q197 0 331 123.5t189 359.5q-46 -50 -135 -91.5t-201 -41.5q-165 0 -275 105t-110 284q0 245 149.5 395t377.5 150q86 0 155.5 -27.5t115.5 -74t76.5 -110.5t44 -134.5t13.5 -148.5q0 -146 -28 -282.5t-88 -257.5t-145.5 -211.5 t-208.5 -143t-269 -52.5q-175 0 -293 56zM326 901q0 -127 61 -196.5t176 -69.5q93 0 168.5 36.5t122.5 115.5t47 188q0 118 -63 199t-189 81q-131 0 -227 -97.5t-96 -256.5z" />
<glyph unicode=":" horiz-adv-x="532" d="M29 0l43 193h192l-41 -193h-194zM195 780l43 193h192l-41 -193h-194z" />
<glyph unicode=";" horiz-adv-x="532" d="M-195 -285q285 136 285 441q0 5 -1 16.5t-1 17.5h170q2 -25 2 -69q-6 -172 -108 -306t-277 -214zM195 780l43 193h192l-41 -193h-194z" />
<glyph unicode="&#x3c;" d="M115 571v140l954 426v-156l-772 -340l772 -340v-156z" />
<glyph unicode="=" d="M115 350v135h954v-135h-954zM115 786v136h954v-136h-954z" />
<glyph unicode="&#x3e;" d="M115 145v156l772 340l-772 340v156l954 -426v-140z" />
<glyph unicode="?" horiz-adv-x="851" d="M137 0l41 190h193l-41 -190h-193zM186 1333q132 80 308 80q157 0 253.5 -77t96.5 -218q0 -87 -38 -156.5t-94.5 -118t-115 -93t-107.5 -103.5t-63 -127l-27 -129h-166l31 141q15 66 45 123.5t66 98.5t76.5 77.5t78 67t68 61t48.5 66t18 74.5q0 81 -51 120.5t-142 39.5 q-148 0 -262 -72z" />
<glyph unicode="@" horiz-adv-x="1593" d="M76 371q0 159 44.5 295t122.5 233t183 165.5t226 102t251 33.5q163 0 290.5 -58.5t203.5 -176.5t76 -279q0 -230 -110.5 -369t-275.5 -139q-72 0 -119 34t-61 91q-44 -57 -108.5 -91t-136.5 -34q-92 0 -149.5 65t-57.5 171q0 123 58 218.5t154 145t212 49.5 q127 0 219 -47l-68 -315q-10 -42 -10 -72q0 -104 86 -104q40 0 80.5 25.5t76 73t58 126t22.5 172.5q0 199 -122 300t-330 101q-106 0 -204.5 -27.5t-186 -85.5t-152 -140.5t-102 -201t-37.5 -259.5q0 -120 39 -209.5t107 -140.5t149.5 -75t177.5 -24q202 0 377 76l14 -115 q-173 -75 -403 -75q-91 0 -174 18t-160.5 60.5t-134.5 105.5t-91 160t-34 217zM592 426q0 -62 24.5 -99.5t73.5 -37.5q72 0 131.5 63.5t75.5 141.5l47 217q-29 10 -74 10q-119 0 -198.5 -82.5t-79.5 -212.5z" />
<glyph unicode="A" horiz-adv-x="1282" d="M-154 0l844 1384h180l258 -1384h-184l-63 342h-641l-203 -342h-191zM334 496h520l-119 665z" />
<glyph unicode="B" horiz-adv-x="1271" d="M74 0l293 1384h385q213 0 331.5 -86t118.5 -241q0 -65 -21.5 -120.5t-54.5 -94t-78.5 -68.5t-88.5 -47.5t-89 -28.5q42 -10 80 -30t73 -52t56 -81.5t21 -110.5q0 -206 -171 -315t-464 -109h-391zM285 154h211q118 0 208 26t146.5 85.5t56.5 146.5q0 106 -77 161.5 t-232 55.5h-213zM418 778h205q170 0 278.5 67t108.5 195q0 99 -71.5 144t-219.5 45h-205z" />
<glyph unicode="C" horiz-adv-x="1316" d="M106 563q0 251 107 445t298.5 299.5t436.5 105.5q228 0 361 -70l-35 -159q-142 71 -326 71q-140 0 -258 -46t-205.5 -131.5t-136.5 -217t-49 -293.5q0 -202 120.5 -319t321.5 -117q179 0 344 74l11 -158q-162 -76 -385 -76q-129 0 -240.5 42t-192 118t-126.5 187.5 t-46 244.5z" />
<glyph unicode="D" horiz-adv-x="1533" d="M78 0l293 1384h415q130 0 244 -36.5t202.5 -106t139.5 -179.5t51 -247q0 -256 -117 -441.5t-324.5 -279.5t-483.5 -94h-420zM291 154h239q151 0 279 42.5t223 123.5t149 206t54 281q0 202 -121 312t-356 110h-240z" />
<glyph unicode="E" horiz-adv-x="1189" d="M117 244q0 46 28 172l203 968h828l-33 -155h-645l-92 -438h587l-32 -154h-590l-62 -303q-8 -46 -8 -64q0 -116 148 -116h497l-33 -154h-524q-135 0 -203.5 66t-68.5 178z" />
<glyph unicode="F" horiz-adv-x="1159" d="M74 0l293 1384h815l-33 -155h-633l-98 -463h575l-30 -156h-578l-129 -610h-182z" />
<glyph unicode="G" horiz-adv-x="1624" d="M106 580q0 172 52 314t138.5 236.5t202.5 159.5t241 94t257 29q300 0 527 -127l-35 -160q-95 59 -222.5 94t-260.5 35q-109 0 -207.5 -20.5t-192 -70t-160.5 -124.5t-108 -192t-41 -264q0 -221 137.5 -338t372.5 -117q201 0 344 68l86 401h-430l31 152h606l-139 -664 q-239 -115 -519 -115q-116 0 -219 25.5t-187.5 76t-145.5 123t-94.5 170.5t-33.5 214z" />
<glyph unicode="H" horiz-adv-x="1607" d="M72 0l295 1384h180l-125 -589h803l123 589h180l-293 -1384h-180l135 637h-803l-135 -637h-180z" />
<glyph unicode="I" horiz-adv-x="626" d="M74 0l293 1384h180l-293 -1384h-180z" />
<glyph unicode="J" horiz-adv-x="776" d="M-113 16l35 154q84 -41 178 -41q95 0 148.5 55.5t77.5 165.5l219 1034h180l-219 -1030q-43 -198 -142.5 -290.5t-269.5 -92.5q-106 0 -207 45z" />
<glyph unicode="K" horiz-adv-x="1265" d="M74 0l293 1384h180l-129 -612l756 612h231l-836 -679l549 -705h-219l-510 645l-137 -645h-178z" />
<glyph unicode="L" horiz-adv-x="1056" d="M119 244q0 40 10 92l221 1048h180l-221 -1048q-8 -33 -8 -66q0 -116 148 -116h454l-33 -154h-479q-134 0 -203 66.5t-69 177.5z" />
<glyph unicode="M" horiz-adv-x="1925" d="M74 0l293 1384h184l348 -931l750 931h196l-293 -1384h-180l234 1087l-652 -817h-168l-303 817l-231 -1087h-178z" />
<glyph unicode="N" horiz-adv-x="1595" d="M74 0l293 1384h161l578 -1118l237 1118h173l-293 -1384h-160l-580 1118l-235 -1118h-174z" />
<glyph unicode="O" horiz-adv-x="1669" d="M106 567q0 177 60.5 332t169 268.5t269 179.5t351.5 66q275 0 440 -162t165 -432q0 -183 -61.5 -340t-171.5 -269t-269.5 -175.5t-347.5 -63.5q-275 0 -440 162.5t-165 433.5zM295 573q0 -204 115.5 -324t324.5 -120q189 0 335 89t224 244t78 351q0 203 -115.5 322.5 t-324.5 119.5q-189 0 -335 -89.5t-224 -244t-78 -348.5z" />
<glyph unicode="P" horiz-adv-x="1284" d="M72 0l295 1384h434q203 0 317.5 -103.5t114.5 -274.5q0 -158 -82.5 -270.5t-220 -166t-314.5 -53.5h-254l-108 -516h-182zM395 670h248q85 0 157 19.5t128.5 57.5t88.5 101.5t32 146.5q0 117 -73.5 175.5t-213.5 58.5h-248z" />
<glyph unicode="Q" horiz-adv-x="1669" d="M106 567q0 177 60.5 332t169 268.5t269 179.5t351.5 66q275 0 440 -162t165 -432q0 -307 -165.5 -527.5t-445.5 -291.5l264 -322h-225l-211 297q-46 -4 -67 -4q-275 0 -440 162.5t-165 433.5zM295 573q0 -204 115.5 -324t324.5 -120q189 0 335 89t224 244t78 351 q0 203 -115.5 322.5t-324.5 119.5q-189 0 -335 -89.5t-224 -244t-78 -348.5z" />
<glyph unicode="R" horiz-adv-x="1300" d="M74 0l293 1384h421q213 0 330 -99t117 -275q0 -192 -122.5 -312.5t-319.5 -154.5l315 -543h-203l-299 520h-239l-113 -520h-180zM397 674h246q86 0 158 19t128.5 57t88 101t31.5 146q0 232 -287 232h-246z" />
<glyph unicode="S" horiz-adv-x="1140" d="M12 68l35 161q77 -44 178 -72t207 -28q65 0 121 13.5t102.5 41t73.5 76.5t27 115q0 55 -31 99.5t-80.5 76t-109.5 61.5t-120.5 64.5t-110 77t-80.5 107.5t-31 147q0 98 43 176.5t117 127.5t168.5 75t201.5 26q219 0 350 -67l-37 -160q-131 69 -315 69q-65 0 -123 -13 t-108 -40t-79.5 -75.5t-29.5 -112.5q0 -53 31 -96t81 -74.5t110.5 -62t120.5 -65.5t110 -77.5t81 -106.5t31 -143q0 -86 -28.5 -157t-77.5 -119t-116 -80.5t-141.5 -47t-156.5 -14.5q-118 0 -227.5 27t-186.5 70z" />
<glyph unicode="T" horiz-adv-x="1196" d="M152 1229l32 155h1116l-30 -155h-469l-260 -1229h-181l261 1229h-469z" />
<glyph unicode="U" horiz-adv-x="1427" d="M133 367q0 57 10 108l193 909h180l-190 -895q-13 -63 -13 -110q0 -125 75 -187.5t208 -62.5q161 0 274.5 89.5t151.5 270.5l190 895h179l-193 -897q-55 -254 -218 -384t-415 -130q-196 0 -314 104.5t-118 289.5z" />
<glyph unicode="V" horiz-adv-x="1277" d="M139 1384h185l208 -1161l699 1161h186l-850 -1384h-172z" />
<glyph unicode="W" horiz-adv-x="2025" d="M156 1384h182l90 -1153l619 1153h198l137 -1153l576 1153h188l-690 -1384h-215l-137 1153l-623 -1153h-217z" />
<glyph unicode="X" horiz-adv-x="1257" d="M-137 0l659 713l-344 671h201l272 -534l496 534h223l-645 -686l362 -698h-202l-287 561l-510 -561h-225z" />
<glyph unicode="Y" horiz-adv-x="1198" d="M131 1384h195l264 -663l543 663h196l-686 -829l-117 -555h-180l117 555z" />
<glyph unicode="Z" horiz-adv-x="1243" d="M-49 0l29 141l1011 1088h-803l33 155h1030l-30 -143l-1004 -1087h821l-32 -154h-1055z" />
<glyph unicode="[" horiz-adv-x="638" d="M-10 -389l391 1843h371l-29 -135h-217l-334 -1573h217l-29 -135h-370z" />
<glyph unicode="\" horiz-adv-x="892" d="M92 1384h137l572 -1384h-137z" />
<glyph unicode="]" horiz-adv-x="638" d="M-188 -389l28 135h217l334 1573h-217l29 135h370l-391 -1843h-370z" />
<glyph unicode="^" d="M63 504l611 880h121l233 -880h-141l-182 694l-482 -694h-160z" />
<glyph unicode="_" horiz-adv-x="1187" d="M-123 -150l27 121h1110l-29 -121h-1108z" />
<glyph unicode="`" horiz-adv-x="1044" d="M311 1454h166l166 -309h-129z" />
<glyph unicode="a" horiz-adv-x="1157" d="M49 299q0 204 85.5 365t235 249t335.5 88q166 0 296 -59l-153 -713q-6 -24 -6 -43q0 -61 63 -61q47 0 90 18l-2 -145q-60 -27 -139 -27t-124.5 43.5t-45.5 118.5q0 15 4 47q-55 -88 -152.5 -148.5t-207.5 -60.5q-136 0 -207.5 87t-71.5 241zM219 319q0 -98 39 -146 t121 -48q131 0 229.5 111t132.5 270l70 328q-64 20 -139 20q-192 0 -322.5 -152.5t-130.5 -382.5z" />
<glyph unicode="b" horiz-adv-x="1107" d="M33 33l303 1421h166l-142 -639q57 77 147 131.5t191 54.5q136 0 210.5 -89.5t74.5 -239.5q0 -153 -49.5 -284.5t-136 -222.5t-207.5 -142.5t-260 -51.5q-167 0 -297 62zM221 141q56 -20 131 -20q128 0 234.5 72.5t166.5 194t60 263.5q0 195 -160 195q-131 0 -230 -112.5 t-132 -268.5z" />
<glyph unicode="c" horiz-adv-x="950" d="M47 322q0 145 51 273t136.5 216t199.5 139t238 51q123 0 207 -43l-33 -151q-77 47 -184 47q-125 0 -228 -69.5t-161 -187.5t-58 -259q0 -113 53.5 -165t147.5 -52q142 0 289 86l24 -139q-157 -97 -344 -97q-72 0 -131.5 20t-106.5 61t-73.5 110t-26.5 160z" />
<glyph unicode="d" horiz-adv-x="1157" d="M51 299q0 204 85.5 365t235 249t335.5 88q53 0 139 -14l98 467h168l-262 -1225q-6 -24 -6 -43q0 -61 63 -61q47 0 90 18l-2 -145q-60 -27 -139 -27t-124.5 43.5t-45.5 118.5q0 15 4 47q-55 -88 -152.5 -148.5t-207.5 -60.5q-136 0 -207.5 87t-71.5 241zM221 319 q0 -98 39 -146t121 -48q131 0 229.5 111t132.5 270l70 328q-64 20 -139 20q-192 0 -322.5 -152.5t-130.5 -382.5z" />
<glyph unicode="e" horiz-adv-x="1021" d="M51 334q0 144 47.5 270t127 212t184.5 135.5t219 49.5q150 0 228.5 -66.5t78.5 -176.5q0 -82 -36 -146t-94 -103.5t-137 -65.5t-157.5 -36t-163.5 -10q-68 0 -127 6q-2 -18 -2 -49q0 -233 225 -233q165 0 304 88l26 -139q-162 -99 -362 -99q-172 0 -266.5 97.5 t-94.5 265.5zM242 532q54 -4 92 -4q74 0 145 10t140.5 32t112 65.5t42.5 103.5q0 55 -40 85t-116 30q-130 0 -233.5 -85.5t-142.5 -236.5z" />
<glyph unicode="f" horiz-adv-x="638" d="M-231 -387l32 147q49 -22 113 -22q44 0 69 24t37 82l211 992h-139l29 137h139l43 194q72 316 387 316q71 0 129 -21l-33 -153q-43 22 -108 22q-81 0 -139.5 -49t-79.5 -149l-33 -160h268l-28 -137h-269l-213 -992q-29 -133 -89.5 -197.5t-174.5 -64.5q-80 0 -151 31z" />
<glyph unicode="g" horiz-adv-x="1116" d="M-35 -338l35 150q53 -33 130.5 -56.5t158.5 -23.5q286 0 348 288l29 132q-60 -78 -149.5 -129.5t-188.5 -51.5q-136 0 -207.5 87t-71.5 241q0 204 85.5 365t235 249t335.5 88q166 0 296 -59l-196 -915q-45 -214 -189 -329.5t-350 -115.5q-176 0 -301 80zM219 319 q0 -98 39 -146t121 -48q131 0 229.5 111t132.5 270l70 328q-64 20 -139 20q-192 0 -322.5 -152.5t-130.5 -382.5z" />
<glyph unicode="h" horiz-adv-x="1157" d="M27 0l307 1454h166l-144 -659q61 88 160 147t217 59q121 0 189.5 -73.5t68.5 -202.5q0 -51 -12 -113l-131 -612h-166l129 612q10 55 10 88q0 150 -147 150q-91 0 -173.5 -55t-135 -139.5t-72.5 -180.5l-100 -475h-166z" />
<glyph unicode="i" horiz-adv-x="514" d="M25 0l206 973h166l-207 -973h-165zM279 1194l43 203h165l-43 -203h-165z" />
<glyph unicode="j" horiz-adv-x="514" d="M-260 -387l33 147q49 -22 112 -22q44 0 69.5 24t37.5 82l239 1129h166l-241 -1129q-29 -132 -90 -197t-175 -65q-80 0 -151 31zM279 1194l43 203h165l-43 -203h-165z" />
<glyph unicode="k" horiz-adv-x="985" d="M25 0l309 1454h166l-187 -876l459 395h223l-542 -453l399 -520h-197l-366 467l-99 -467h-165z" />
<glyph unicode="l" horiz-adv-x="550" d="M63 162q0 15 9 71l258 1221h166l-260 -1237q-5 -30 -5 -33q0 -63 72 -63q46 0 98 20l-2 -143q-65 -27 -139 -27q-91 0 -144 49t-53 142z" />
<glyph unicode="m" horiz-adv-x="1763" d="M25 0l206 973h158l-35 -180q58 90 151 149t210 59q106 0 168.5 -57t74.5 -162q58 89 163 154t222 65q120 0 187 -72t67 -200q0 -44 -14 -119l-131 -610h-166l129 610q10 52 10 86q0 71 -33.5 111.5t-101.5 40.5q-90 0 -169.5 -55.5t-130.5 -141t-72 -186.5l-97 -465h-166 l131 610q9 44 9 84q0 72 -32.5 113t-100.5 41q-91 0 -171.5 -57.5t-131 -143t-70.5 -182.5l-99 -465h-165z" />
<glyph unicode="n" horiz-adv-x="1155" d="M25 0l206 973h158l-35 -178q61 88 160 147t217 59q121 0 189.5 -73.5t68.5 -202.5q0 -51 -12 -113l-131 -612h-166l129 612q10 55 10 88q0 150 -147 150q-91 0 -173.5 -55t-135 -139.5t-72.5 -180.5l-101 -475h-165z" />
<glyph unicode="o" horiz-adv-x="1093" d="M57 344q0 143 47.5 267t126 208.5t182 133t214.5 48.5q165 0 250.5 -101.5t85.5 -272.5q0 -142 -47.5 -266t-127 -208.5t-183 -133t-214.5 -48.5q-163 0 -248.5 102t-85.5 271zM225 358q0 -117 51.5 -177t143.5 -60q68 0 134.5 34.5t119.5 96t86 156.5t33 206 q0 117 -51 178.5t-140 61.5q-69 0 -136.5 -35t-121 -97t-86.5 -157.5t-33 -206.5z" />
<glyph unicode="p" horiz-adv-x="1107" d="M-55 -389l286 1362h158l-31 -164q61 82 151 137t189 55q134 0 208.5 -88t74.5 -241t-49.5 -284t-135 -222t-205 -143t-255.5 -52q-74 0 -148 21l-82 -381h-161zM219 141q64 -20 131 -20q128 0 234.5 72.5t166.5 194t60 263.5q0 199 -160 199q-88 0 -165.5 -56 t-126.5 -141.5t-70 -185.5z" />
<glyph unicode="q" horiz-adv-x="1116" d="M49 299q0 153 49.5 284t136 222.5t207.5 143.5t260 52q166 0 299 -59l-282 -1331h-168l121 553q-57 -82 -148.5 -137.5t-195.5 -55.5q-135 0 -207 87.5t-72 240.5zM219 319q0 -98 39 -146t121 -48q132 0 230 110.5t132 270.5l70 328q-64 20 -135 20q-195 0 -326 -150.5 t-131 -384.5z" />
<glyph unicode="r" horiz-adv-x="776" d="M25 0l206 973h160l-45 -219q54 98 168.5 172.5t245.5 74.5l-39 -180q-154 0 -277.5 -106t-164.5 -299l-89 -416h-165z" />
<glyph unicode="s" horiz-adv-x="876" d="M-18 59l28 144q56 -39 138.5 -62.5t158.5 -23.5q91 0 147 34t56 107q0 41 -22 73.5t-57 55t-77 43t-84.5 44t-77.5 51.5t-57 71t-22 98q0 76 32.5 136t88.5 96.5t126.5 55.5t151.5 19q153 0 262 -53l-31 -147q-98 53 -247 53q-94 0 -153.5 -33t-59.5 -106q0 -33 22 -59 t57 -45.5t77.5 -39.5t85.5 -44.5t78 -55t57 -78.5t22 -108q0 -80 -32.5 -142t-87.5 -98.5t-123 -55t-144 -18.5q-88 0 -172 23.5t-141 64.5z" />
<glyph unicode="t" horiz-adv-x="718" d="M72 836l28 137h142l86 309h145l-65 -309h288l-28 -137h-289l-117 -549q-6 -27 -6 -54q0 -110 121 -110q35 0 82 12.5t78 28.5v-150q-87 -43 -191 -43q-111 0 -184.5 60t-73.5 176q0 41 8 82l115 547h-139z" />
<glyph unicode="u" horiz-adv-x="1177" d="M74 248q0 42 14 114l129 611h166l-131 -617q-10 -52 -10 -86q0 -149 135 -149q88 0 170.5 55.5t136.5 141t74 180.5l100 475h164l-156 -744q-6 -24 -6 -43q0 -61 64 -61q47 0 90 18l-2 -145q-60 -27 -140 -27q-79 0 -124.5 43.5t-45.5 118.5q0 7 5 47 q-57 -90 -154 -149.5t-215 -59.5q-120 0 -192 73.5t-72 203.5z" />
<glyph unicode="v" horiz-adv-x="974" d="M63 973h168l140 -778l473 778h174l-610 -973h-164z" />
<glyph unicode="w" horiz-adv-x="1595" d="M76 973h168l80 -772l436 772h166l114 -772l412 772h174l-528 -973h-170l-117 780l-449 -780h-172z" />
<glyph unicode="x" horiz-adv-x="925" d="M-129 0l459 494l-246 479h180l182 -359l330 359h199l-459 -477l260 -496h-182l-193 373l-331 -373h-199z" />
<glyph unicode="y" horiz-adv-x="1138" d="M-16 -338l34 150q54 -33 130.5 -56.5t158.5 -23.5q283 0 348 288l31 134q-61 -80 -151 -131.5t-197 -51.5q-120 0 -192 73.5t-72 203.5q0 42 14 114l129 611h166l-131 -617q-10 -52 -10 -86q0 -149 135 -149q88 0 170.5 55.5t136.5 141t74 180.5l100 475h164l-199 -946 q-45 -215 -188.5 -330t-349.5 -115q-176 0 -301 80z" />
<glyph unicode="z" horiz-adv-x="956" d="M-47 0l24 117l662 712h-533l31 144h750l-25 -119l-661 -711h551l-31 -143h-768z" />
<glyph unicode="{" horiz-adv-x="667" d="M18 475l31 150q92 18 142.5 47.5t82.5 86.5t56 163l43 194q19 85 45 143t70.5 104.5t113.5 68.5t166 22h47l-29 -135h-53q-93 0 -141.5 -54.5t-71.5 -166.5l-41 -203q-32 -158 -101.5 -238t-203.5 -114q88 -29 128 -84.5t40 -161.5q0 -50 -10 -94l-56 -248 q-10 -52 -10 -84q0 -125 131 -125h54l-27 -135h-53q-126 0 -192 67t-66 181q0 37 10 92l53 250q12 54 12 112q0 75 -41.5 112t-128.5 50z" />
<glyph unicode="|" horiz-adv-x="569" d="M217 -389v2027h133v-2027h-133z" />
<glyph unicode="}" horiz-adv-x="669" d="M-154 -389l29 135h53q93 0 141.5 54.5t71.5 166.5l41 203q32 158 101.5 238t203.5 114q-88 29 -128 84.5t-40 161.5q0 46 11 94l55 248q10 52 10 84q0 125 -131 125h-53l27 135h53q126 0 192 -67t66 -181q0 -37 -10 -92l-54 -250q-12 -54 -12 -112q0 -75 41.5 -112 t128.5 -50l-31 -150q-69 -14 -112 -31.5t-76 -52t-53.5 -84t-38.5 -129.5l-43 -194q-19 -85 -45 -143t-70.5 -104.5t-113.5 -68.5t-166 -22h-48z" />
<glyph unicode="~" d="M104 494q0 127 61 205.5t167 78.5q64 0 168 -35t203 -69.5t149 -34.5q96 0 96 135h131q0 -125 -61 -203.5t-166 -78.5q-63 0 -166.5 35t-202.5 69.5t-151 34.5q-96 0 -96 -137h-132z" />
<glyph unicode="&#xa1;" horiz-adv-x="600" d="M-6 -389l229 985h152l-187 -985h-194zM242 780l41 193h192l-39 -193h-194z" />
<glyph unicode="&#xa2;" d="M154 569q0 271 147.5 464.5t398.5 238.5l68 319h137l-67 -307q85 -2 162 -20t120 -47l-43 -152q-92 61 -270 61q-117 0 -210.5 -46.5t-151.5 -124.5t-88.5 -176t-30.5 -206q0 -83 26 -145t71.5 -98t101.5 -53t122 -17q137 0 271 62l14 -146q-138 -72 -340 -72l-68 -329 h-137l74 350q-143 42 -225 156.5t-82 287.5z" />
<glyph unicode="&#xa3;" d="M37 0l29 135q57 35 91 58.5t73 55.5t60.5 62t41 70t27.5 88.5t8 108.5q0 7 -7 63h-219l27 125h180q-1 16 -4.5 57t-3.5 64q0 238 141.5 382t392.5 144q156 0 277 -59l-45 -154q-112 55 -248 55q-162 0 -252 -91t-90 -279q0 -44 10 -119h430l-26 -125h-393q2 -14 2 -39 q0 -115 -29.5 -200t-79.5 -141t-131 -107h645l-33 -154h-874z" />
<glyph unicode="&#xa4;" d="M127 258l170 199q-61 92 -61 237q0 146 61 238l-170 198l102 105l164 -195q76 76 199 76t199 -76l163 195l103 -105l-170 -198q61 -92 61 -238q0 -145 -61 -237l170 -199l-103 -104l-163 194q-76 -76 -199 -76t-199 76l-164 -194zM395 694q0 -111 53.5 -186.5 t143.5 -75.5q89 0 142.5 75.5t53.5 186.5t-53.5 186.5t-142.5 75.5q-90 0 -143.5 -75.5t-53.5 -186.5z" />
<glyph unicode="&#xa5;" d="M86 262l23 109h331l47 219h-331l24 108h297l-260 686h182l224 -593l481 593h180l-561 -686h301l-25 -108h-331l-45 -219h329l-22 -109h-332l-55 -262h-181l56 262h-332z" />
<glyph unicode="&#xa6;" horiz-adv-x="569" d="M217 -389v840h133v-840h-133zM217 799v839h133v-839h-133z" />
<glyph unicode="&#xa7;" horiz-adv-x="1140" d="M-100 -328l37 160q167 -100 393 -100q66 0 120.5 12.5t100 39.5t71 75t25.5 114q0 59 -31.5 104.5t-81.5 75t-111 56.5t-121.5 58.5t-110.5 71t-81.5 103t-31.5 146.5q0 189 182 284q-31 64 -31 146t31 149t83 112t122.5 75.5t147 44.5t159.5 14q103 0 202.5 -20.5 t158.5 -55.5l-35 -155q-133 73 -336 73q-67 0 -125 -11.5t-109 -37t-80.5 -72.5t-29.5 -112q0 -56 31.5 -99t82 -72.5t111.5 -56.5t122.5 -59t112 -71.5t82 -102t31.5 -143.5q0 -199 -178 -301q27 -62 27 -127q0 -105 -43 -186.5t-117.5 -130t-166.5 -73t-196 -24.5 q-227 0 -417 96zM246 604q0 -58 35.5 -103.5t94.5 -78t121.5 -61t132 -67t111.5 -79.5q80 60 80 176q0 49 -25 90t-64.5 68t-93.5 55t-105 50t-106 54t-91 66q-90 -63 -90 -170z" />
<glyph unicode="&#xa8;" horiz-adv-x="1044" d="M244 1204l43 197h153l-43 -197h-153zM602 1204l41 197h154l-41 -197h-154z" />
<glyph unicode="&#xa9;" horiz-adv-x="1673" d="M111 588q0 189 67 346.5t182 261t268 160.5t326 57q182 0 322 -80t214.5 -220t74.5 -316q0 -189 -67 -346.5t-182.5 -261.5t-268 -161t-324.5 -57q-184 0 -324 80.5t-214 220t-74 316.5zM211 586q0 -232 143.5 -375t384.5 -143q147 0 278 50t230 141.5t157 231.5t58 308 q0 232 -143.5 375t-384.5 143q-147 0 -278 -50t-230 -141.5t-157 -231.5t-58 -308zM473 616q0 115 41.5 208t111.5 151.5t156.5 89.5t180.5 31q136 0 215 -52l-31 -131q-79 52 -193 52q-65 0 -123 -19.5t-106 -59t-76 -107.5t-28 -156q0 -100 57 -149.5t153 -49.5 q126 0 220 63l24 -127q-109 -69 -260 -69q-69 0 -129 19.5t-108.5 58t-76.5 102t-28 145.5z" />
<glyph unicode="&#xaa;" horiz-adv-x="841" d="M186 985q0 101 35.5 183t96 135t139 81.5t166.5 28.5q81 0 168 -35l-93 -430q-4 -16 -4 -22q0 -37 43 -37q18 0 51 14l-4 -108q-38 -19 -82 -19q-54 0 -87 27.5t-33 85.5q0 14 2 20q-92 -133 -213 -133q-86 0 -135.5 57.5t-49.5 151.5zM313 995q0 -51 23.5 -77.5 t64.5 -26.5q73 0 127.5 58.5t75.5 148.5l45 200q-35 7 -65 7q-123 0 -197 -91.5t-74 -218.5z" />
<glyph unicode="&#xab;" horiz-adv-x="1050" d="M47 508l367 407h170l-353 -413l193 -402h-145zM498 508l366 407h170l-352 -413l192 -402h-145z" />
<glyph unicode="&#xac;" d="M115 786v136h954v-570h-141v434h-813z" />
<glyph unicode="&#xad;" horiz-adv-x="808" d="M129 514l33 154h500l-33 -154h-500z" />
<glyph unicode="&#xae;" horiz-adv-x="1114" d="M164 889q0 151 74.5 272.5t195 186.5t258.5 65q157 -1 253.5 -98.5t96.5 -249.5q0 -151 -74 -272.5t-194 -186.5t-258 -65q-157 0 -254.5 98t-97.5 250zM246 893q0 -127 78.5 -201t210.5 -74q111 0 209 55.5t159.5 158.5t61.5 229q0 125 -79.5 198.5t-211.5 73.5 q-82 0 -159.5 -33t-137 -90t-95.5 -140t-36 -177zM393 758l94 442h175q76 0 117.5 -33t41.5 -92q0 -56 -37 -91t-100 -44l82 -182h-113l-69 168h-49l-37 -168h-105zM551 1006h72q90 0 90 65q0 24 -17 37.5t-49 13.5h-72z" />
<glyph unicode="&#xaf;" horiz-adv-x="1044" d="M238 1241l26 119h541l-27 -119h-540z" />
<glyph unicode="&#xb0;" horiz-adv-x="665" d="M170 1098q0 136 87.5 225.5t197.5 89.5q90 0 144 -60t54 -159q0 -136 -87.5 -225.5t-196.5 -89.5q-90 0 -144.5 60t-54.5 159zM266 1102q0 -58 29.5 -91.5t81.5 -33.5q73 0 126.5 61t53.5 152q0 56 -30 90.5t-81 34.5q-73 0 -126.5 -61t-53.5 -152z" />
<glyph unicode="&#xb1;" d="M115 0v135h954v-135h-954zM115 612v136h405v385h142v-385h407v-136h-407v-385h-142v385h-405z" />
<glyph unicode="&#xb2;" horiz-adv-x="792" d="M88 541l18 96q95 71 155 118t120.5 98.5t95 88t62.5 76.5t39.5 75.5t11.5 73.5q0 63 -44 93t-110 30q-108 0 -194 -49l-29 115q99 57 238 57q119 0 201.5 -57.5t82.5 -173.5q0 -128 -105 -256t-321 -269h355l-27 -116h-549z" />
<glyph unicode="&#xb3;" horiz-adv-x="792" d="M106 582l35 112q40 -24 98 -40.5t113 -16.5q96 0 155.5 41.5t59.5 126.5q0 129 -202 129h-62l23 113h73q91 0 152 33.5t61 99.5q0 60 -44.5 87t-112.5 27q-103 0 -199 -49l-25 115q100 53 238 53q117 0 196.5 -54.5t79.5 -162.5q0 -84 -52 -138.5t-130 -70.5 q64 -20 101.5 -66t37.5 -118q0 -89 -51 -155t-129.5 -97t-173.5 -31q-137 0 -242 62z" />
<glyph unicode="&#xb4;" horiz-adv-x="1044" d="M330 1145l231 309h184l-280 -309h-135z" />
<glyph unicode="&#xb5;" horiz-adv-x="1171" d="M-55 -389l286 1362h166l-129 -613q-10 -52 -10 -86q0 -70 37 -107.5t108 -37.5q133 0 235.5 109.5t133.5 259.5l100 475h164l-155 -744q-7 -28 -7 -43q0 -61 64 -61q46 0 90 18l-2 -145q-60 -27 -139 -27t-124.5 43.5t-45.5 118.5q0 15 4 47q-55 -93 -144.5 -151 t-201.5 -58q-115 0 -170 84l-96 -444h-164z" />
<glyph unicode="&#xb6;" horiz-adv-x="1458" d="M158 872q0 129 46.5 228.5t129.5 160.5t193 92t243 31h256l-379 -1773h-135l186 881h-118q-117 0 -211 42t-152.5 129.5t-58.5 208.5zM866 -389l379 1773h133l-379 -1773h-133z" />
<glyph unicode="&#xb7;" horiz-adv-x="540" d="M150 492l43 192h192l-41 -192h-194z" />
<glyph unicode="&#xb8;" horiz-adv-x="1044" d="M338 -410l33 105q51 -23 100 -23q39 0 62.5 16t23.5 46q0 71 -143 82l71 190h113l-41 -119q60 -11 99.5 -48.5t39.5 -98.5q0 -86 -62.5 -132t-154.5 -46q-80 0 -141 28z" />
<glyph unicode="&#xb9;" horiz-adv-x="659" d="M195 1196v125l266 63h123l-178 -843h-138l152 708z" />
<glyph unicode="&#xba;" horiz-adv-x="835" d="M199 1014q0 174 104.5 286.5t249.5 112.5q105 0 165 -67t60 -172q0 -173 -103.5 -285.5t-246.5 -112.5q-107 0 -168 66t-61 172zM324 1026q0 -141 114 -141q84 0 149.5 75t65.5 201q0 71 -29 106.5t-83 35.5q-86 0 -151.5 -75.5t-65.5 -201.5z" />
<glyph unicode="&#xbb;" horiz-adv-x="1050" d="M-4 100l352 414l-192 401h145l231 -407l-366 -408h-170zM446 100l353 414l-193 401h146l231 -407l-367 -408h-170z" />
<glyph unicode="&#xbc;" horiz-adv-x="1675" d="M195 0l1050 1384h139l-1052 -1384h-137zM215 1196v125l266 63h123l-178 -843h-137l151 708zM842 199l20 100l504 561h156l-115 -547h115l-23 -114h-117l-43 -199h-125l41 199h-413zM1020 313h260l82 379z" />
<glyph unicode="&#xbd;" horiz-adv-x="1812" d="M195 0l1050 1384h139l-1052 -1384h-137zM215 1196v125l266 63h123l-178 -843h-137l151 708zM985 0l19 96q113 85 182 140t133.5 112.5t97 100.5t51.5 88t19 90q0 63 -44 93t-110 30q-106 0 -194 -50l-29 115q99 57 238 57q119 0 201.5 -57.5t82.5 -173.5 q0 -128 -105 -255.5t-321 -268.5h355l-27 -117h-549z" />
<glyph unicode="&#xbe;" horiz-adv-x="1763" d="M106 582l35 112q40 -24 98 -40.5t113 -16.5q96 0 155.5 41.5t59.5 126.5q0 129 -202 129h-62l23 113h73q91 0 152 33.5t61 99.5q0 60 -44.5 87t-112.5 27q-103 0 -199 -49l-25 115q100 53 238 53q117 0 196.5 -54.5t79.5 -162.5q0 -84 -52 -138.5t-130 -70.5 q64 -20 101.5 -66t37.5 -118q0 -89 -51 -155t-129.5 -97t-173.5 -31q-137 0 -242 62zM336 0l1050 1384h140l-1053 -1384h-137zM932 199l20 100l504 561h156l-115 -547h115l-23 -114h-116l-43 -199h-125l41 199h-414zM1110 313h260l82 379z" />
<glyph unicode="&#xbf;" horiz-adv-x="757" d="M-106 -123q0 87 38 156.5t94.5 118t114.5 93t107 103.5t63 127l25 121h166l-29 -133q-15 -66 -45 -123.5t-66 -98t-76 -77t-77.5 -67.5t-68 -61t-48.5 -65.5t-18 -74.5q0 -79 54 -119.5t138 -40.5q150 0 262 71l23 -145q-132 -80 -307 -80q-153 0 -251.5 77.5 t-98.5 217.5zM360 782l41 191h193l-41 -191h-193z" />
<glyph unicode="&#xc0;" horiz-adv-x="1282" d="M-154 0l844 1384h180l258 -1384h-184l-63 342h-641l-203 -342h-191zM334 496h520l-119 665zM532 1833h166l166 -309h-129z" />
<glyph unicode="&#xc1;" horiz-adv-x="1282" d="M-154 0l844 1384h180l258 -1384h-184l-63 342h-641l-203 -342h-191zM334 496h520l-119 665zM756 1524l231 309h184l-280 -309h-135z" />
<glyph unicode="&#xc2;" horiz-adv-x="1282" d="M-154 0l844 1384h180l258 -1384h-184l-63 342h-641l-203 -342h-191zM334 496h520l-119 665zM530 1524l275 309h139l148 -309h-127l-105 196l-182 -196h-148z" />
<glyph unicode="&#xc3;" horiz-adv-x="1282" d="M-154 0l844 1384h180l258 -1384h-184l-63 342h-641l-203 -342h-191zM334 496h520l-119 665zM514 1550q9 114 63.5 183t147.5 69q41 0 77.5 -20t58.5 -43.5t50.5 -43.5t55.5 -20q77 0 82 123h118q-11 -118 -65.5 -185t-153.5 -67q-36 0 -71.5 21t-59 45.5t-53 45.5 t-53.5 21q-33 0 -54 -32t-24 -97h-119z" />
<glyph unicode="&#xc4;" horiz-adv-x="1282" d="M-154 0l844 1384h180l258 -1384h-184l-63 342h-641l-203 -342h-191zM334 496h520l-119 665zM569 1575l43 197h154l-43 -197h-154zM928 1575l41 197h153l-41 -197h-153z" />
<glyph unicode="&#xc5;" horiz-adv-x="1282" d="M-154 0l844 1384h180l258 -1384h-184l-63 342h-641l-203 -342h-191zM334 496h520l-119 665zM623 1659q0 92 71.5 147.5t169.5 55.5q84 0 139.5 -43t55.5 -121q0 -92 -71.5 -148.5t-168.5 -56.5q-84 0 -140 44t-56 122zM731 1661q0 -37 27 -58.5t71 -21.5q55 0 88 31 t33 84q0 37 -26 57.5t-70 20.5q-56 0 -89.5 -30t-33.5 -83z" />
<glyph unicode="&#xc6;" horiz-adv-x="1841" d="M-217 0l1106 1384h936l-33 -155h-645l-92 -438h587l-32 -154h-590l-62 -303q-8 -46 -8 -64q0 -116 148 -116h497l-32 -154h-525q-135 0 -203.5 66t-68.5 178q0 41 14 98h-522l-270 -342h-205zM379 496h432l152 725z" />
<glyph unicode="&#xc7;" horiz-adv-x="1316" d="M106 563q0 251 107 445t298.5 299.5t436.5 105.5q228 0 361 -70l-35 -159q-142 71 -326 71q-140 0 -258 -46t-205.5 -131.5t-136.5 -217t-49 -293.5q0 -202 120.5 -319t321.5 -117q179 0 344 74l11 -158q-162 -76 -385 -76q-20 0 -60 4l-28 -88q60 -11 99.5 -48.5 t39.5 -98.5q0 -86 -62.5 -132t-154.5 -46q-81 0 -142 28l33 105q51 -23 101 -23q39 0 62.5 16t23.5 46q0 71 -144 82l66 174q-199 47 -319 198.5t-120 374.5z" />
<glyph unicode="&#xc8;" horiz-adv-x="1189" d="M117 244q0 46 28 172l203 968h828l-33 -155h-645l-92 -438h587l-32 -154h-590l-62 -303q-8 -46 -8 -64q0 -116 148 -116h497l-33 -154h-524q-135 0 -203.5 66t-68.5 178zM547 1833h166l166 -309h-129z" />
<glyph unicode="&#xc9;" horiz-adv-x="1189" d="M117 244q0 46 28 172l203 968h828l-33 -155h-645l-92 -438h587l-32 -154h-590l-62 -303q-8 -46 -8 -64q0 -116 148 -116h497l-33 -154h-524q-135 0 -203.5 66t-68.5 178zM700 1524l232 309h184l-280 -309h-136z" />
<glyph unicode="&#xca;" horiz-adv-x="1189" d="M117 244q0 46 28 172l203 968h828l-33 -155h-645l-92 -438h587l-32 -154h-590l-62 -303q-8 -46 -8 -64q0 -116 148 -116h497l-33 -154h-524q-135 0 -203.5 66t-68.5 178zM508 1524l274 309h140l147 -309h-127l-104 196l-183 -196h-147z" />
<glyph unicode="&#xcb;" horiz-adv-x="1189" d="M117 244q0 46 28 172l203 968h828l-33 -155h-645l-92 -438h587l-32 -154h-590l-62 -303q-8 -46 -8 -64q0 -116 148 -116h497l-33 -154h-524q-135 0 -203.5 66t-68.5 178zM547 1577l43 197h153l-43 -197h-153zM905 1577l41 197h154l-41 -197h-154z" />
<glyph unicode="&#xcc;" horiz-adv-x="626" d="M74 0l293 1384h180l-293 -1384h-180zM221 1833h166l166 -309h-129z" />
<glyph unicode="&#xcd;" horiz-adv-x="626" d="M74 0l293 1384h180l-293 -1384h-180zM420 1524l231 309h185l-281 -309h-135z" />
<glyph unicode="&#xce;" horiz-adv-x="626" d="M74 0l293 1384h180l-293 -1384h-180zM207 1524l274 309h140l147 -309h-127l-104 196l-183 -196h-147z" />
<glyph unicode="&#xcf;" horiz-adv-x="626" d="M74 0l293 1384h180l-293 -1384h-180zM246 1577l43 197h153l-43 -197h-153zM604 1577l41 197h154l-41 -197h-154z" />
<glyph unicode="&#xd0;" horiz-adv-x="1550" d="M63 651l31 131h166l127 602h416q130 0 244 -36.5t202.5 -106t139.5 -179.5t51 -247q0 -256 -117.5 -441.5t-325 -279.5t-483.5 -94h-420l137 651h-168zM307 154h240q151 0 278.5 42.5t223 123.5t149 206t53.5 281q0 202 -121 312t-356 110h-239l-95 -447h408l-29 -131 h-407z" />
<glyph unicode="&#xd1;" horiz-adv-x="1593" d="M74 0l293 1384h161l578 -1118l237 1118h173l-293 -1384h-160l-580 1118l-235 -1118h-174zM670 1550q9 114 63.5 183t147.5 69q41 0 77 -20t58 -43.5t50.5 -43.5t55.5 -20q77 0 82 123h119q-11 -118 -65.5 -185t-153.5 -67q-36 0 -71.5 21t-59.5 45.5t-53.5 45.5t-53.5 21 q-33 0 -54 -32t-24 -97h-118z" />
<glyph unicode="&#xd2;" horiz-adv-x="1669" d="M106 567q0 177 60.5 332t169 268.5t269 179.5t351.5 66q275 0 440 -162t165 -432q0 -183 -61.5 -340t-171.5 -269t-269.5 -175.5t-347.5 -63.5q-275 0 -440 162.5t-165 433.5zM295 573q0 -204 115.5 -324t324.5 -120q189 0 335 89t224 244t78 351q0 203 -115.5 322.5 t-324.5 119.5q-189 0 -335 -89.5t-224 -244t-78 -348.5zM750 1833h165l166 -309h-129z" />
<glyph unicode="&#xd3;" horiz-adv-x="1669" d="M106 567q0 177 60.5 332t169 268.5t269 179.5t351.5 66q275 0 440 -162t165 -432q0 -183 -61.5 -340t-171.5 -269t-269.5 -175.5t-347.5 -63.5q-275 0 -440 162.5t-165 433.5zM295 573q0 -204 115.5 -324t324.5 -120q189 0 335 89t224 244t78 351q0 203 -115.5 322.5 t-324.5 119.5q-189 0 -335 -89.5t-224 -244t-78 -348.5zM913 1524l232 309h184l-280 -309h-136z" />
<glyph unicode="&#xd4;" horiz-adv-x="1669" d="M106 567q0 177 60.5 332t169 268.5t269 179.5t351.5 66q275 0 440 -162t165 -432q0 -183 -61.5 -340t-171.5 -269t-269.5 -175.5t-347.5 -63.5q-275 0 -440 162.5t-165 433.5zM295 573q0 -204 115.5 -324t324.5 -120q189 0 335 89t224 244t78 351q0 203 -115.5 322.5 t-324.5 119.5q-189 0 -335 -89.5t-224 -244t-78 -348.5zM725 1524l274 309h140l147 -309h-127l-104 196l-183 -196h-147z" />
<glyph unicode="&#xd5;" horiz-adv-x="1669" d="M106 567q0 177 60.5 332t169 268.5t269 179.5t351.5 66q275 0 440 -162t165 -432q0 -183 -61.5 -340t-171.5 -269t-269.5 -175.5t-347.5 -63.5q-275 0 -440 162.5t-165 433.5zM295 573q0 -204 115.5 -324t324.5 -120q189 0 335 89t224 244t78 351q0 203 -115.5 322.5 t-324.5 119.5q-189 0 -335 -89.5t-224 -244t-78 -348.5zM709 1550q9 114 63.5 183t147.5 69q41 0 77 -20t58 -43.5t50.5 -43.5t55.5 -20q77 0 82 123h119q-11 -118 -65.5 -185t-153.5 -67q-36 0 -71.5 21t-59.5 45.5t-53.5 45.5t-53.5 21q-33 0 -54 -32t-24 -97h-118z" />
<glyph unicode="&#xd6;" horiz-adv-x="1669" d="M106 567q0 177 60.5 332t169 268.5t269 179.5t351.5 66q275 0 440 -162t165 -432q0 -183 -61.5 -340t-171.5 -269t-269.5 -175.5t-347.5 -63.5q-275 0 -440 162.5t-165 433.5zM295 573q0 -204 115.5 -324t324.5 -120q189 0 335 89t224 244t78 351q0 203 -115.5 322.5 t-324.5 119.5q-189 0 -335 -89.5t-224 -244t-78 -348.5zM764 1577l43 197h154l-43 -197h-154zM1122 1577l41 197h154l-41 -197h-154z" />
<glyph unicode="&#xd7;" d="M131 270l365 367l-365 369l94 96l365 -369l364 369l97 -96l-365 -369l365 -367l-97 -96l-364 369l-365 -369z" />
<glyph unicode="&#xd8;" horiz-adv-x="1669" d="M55 -25l187 189q-136 161 -136 401q0 183 61.5 340t171.5 269t269.5 175.5t347.5 63.5q231 0 392 -123l186 191l72 -76l-183 -184q138 -164 138 -404q0 -177 -60.5 -332t-169 -268.5t-269 -179.5t-351.5 -66q-239 0 -394 121l-190 -194zM295 571q0 -164 78 -274l850 866 q-112 92 -291 92q-190 0 -335 -87t-223.5 -242.5t-78.5 -354.5zM440 219q113 -90 295 -90q189 0 335 89.5t224 244t78 348.5q0 163 -80 276z" />
<glyph unicode="&#xd9;" horiz-adv-x="1427" d="M133 367q0 57 10 108l193 909h180l-190 -895q-13 -63 -13 -110q0 -125 75 -187.5t208 -62.5q161 0 274.5 89.5t151.5 270.5l190 895h179l-193 -897q-55 -254 -218 -384t-415 -130q-196 0 -314 104.5t-118 289.5zM635 1833h166l166 -309h-129z" />
<glyph unicode="&#xda;" horiz-adv-x="1427" d="M133 367q0 57 10 108l193 909h180l-190 -895q-13 -63 -13 -110q0 -125 75 -187.5t208 -62.5q161 0 274.5 89.5t151.5 270.5l190 895h179l-193 -897q-55 -254 -218 -384t-415 -130q-196 0 -314 104.5t-118 289.5zM799 1524l231 309h184l-280 -309h-135z" />
<glyph unicode="&#xdb;" horiz-adv-x="1427" d="M133 367q0 57 10 108l193 909h180l-190 -895q-13 -63 -13 -110q0 -125 75 -187.5t208 -62.5q161 0 274.5 89.5t151.5 270.5l190 895h179l-193 -897q-55 -254 -218 -384t-415 -130q-196 0 -314 104.5t-118 289.5zM612 1524l275 309h139l148 -309h-127l-105 196l-182 -196 h-148z" />
<glyph unicode="&#xdc;" horiz-adv-x="1427" d="M133 367q0 57 10 108l193 909h180l-190 -895q-13 -63 -13 -110q0 -125 75 -187.5t208 -62.5q161 0 274.5 89.5t151.5 270.5l190 895h179l-193 -897q-55 -254 -218 -384t-415 -130q-196 0 -314 104.5t-118 289.5zM643 1575l43 197h154l-43 -197h-154zM1001 1575l41 197 h154l-41 -197h-154z" />
<glyph unicode="&#xdd;" horiz-adv-x="1198" d="M131 1384h195l264 -663l543 663h196l-686 -829l-117 -555h-180l117 555zM698 1524l232 309h184l-280 -309h-136z" />
<glyph unicode="&#xde;" horiz-adv-x="1284" d="M72 0l295 1384h180l-51 -254h249q203 0 318 -103.5t115 -274.5q0 -158 -82.5 -270.5t-220 -166t-314.5 -53.5h-254l-55 -262h-180zM340 416h248q85 0 157 19.5t128 57.5t88 101.5t32 146.5q0 234 -286 234h-248z" />
<glyph unicode="&#xdf;" horiz-adv-x="1089" d="M-6 0l231 1085q42 200 154.5 298t318.5 98q152 0 244 -78.5t92 -196.5q0 -62 -18.5 -115.5t-48.5 -91.5t-66 -70.5t-72 -59t-66 -51t-48.5 -51.5t-18.5 -56t27.5 -62.5t66 -68.5t77.5 -75.5t66.5 -98t27.5 -121.5q0 -154 -101.5 -234t-261.5 -80q-146 0 -276 70l32 149 q116 -71 248 -71q86 0 141.5 40.5t55.5 114.5q0 49 -27 93t-65 78t-76 68.5t-65 80.5t-27 98q0 47 18.5 88t47.5 72t64 60t70.5 58t64.5 58.5t47.5 68.5t18.5 83q0 67 -53.5 111t-144.5 44q-104 0 -178.5 -55.5t-98.5 -165.5l-237 -1114h-164z" />
<glyph unicode="&#xe0;" horiz-adv-x="1157" d="M49 299q0 204 85.5 365t235 249t335.5 88q166 0 296 -59l-153 -713q-6 -24 -6 -43q0 -61 63 -61q47 0 90 18l-2 -145q-60 -27 -139 -27t-124.5 43.5t-45.5 118.5q0 15 4 47q-55 -88 -152.5 -148.5t-207.5 -60.5q-136 0 -207.5 87t-71.5 241zM219 319q0 -98 39 -146 t121 -48q131 0 229.5 111t132.5 270l70 328q-64 20 -139 20q-192 0 -322.5 -152.5t-130.5 -382.5zM446 1454h166l166 -309h-129z" />
<glyph unicode="&#xe1;" horiz-adv-x="1157" d="M49 299q0 204 85.5 365t235 249t335.5 88q166 0 296 -59l-153 -713q-6 -24 -6 -43q0 -61 63 -61q47 0 90 18l-2 -145q-60 -27 -139 -27t-124.5 43.5t-45.5 118.5q0 15 4 47q-55 -88 -152.5 -148.5t-207.5 -60.5q-136 0 -207.5 87t-71.5 241zM219 319q0 -98 39 -146 t121 -48q131 0 229.5 111t132.5 270l70 328q-64 20 -139 20q-192 0 -322.5 -152.5t-130.5 -382.5zM614 1145l232 309h184l-280 -309h-136z" />
<glyph unicode="&#xe2;" horiz-adv-x="1157" d="M49 299q0 204 85.5 365t235 249t335.5 88q166 0 296 -59l-153 -713q-6 -24 -6 -43q0 -61 63 -61q47 0 90 18l-2 -145q-60 -27 -139 -27t-124.5 43.5t-45.5 118.5q0 15 4 47q-55 -88 -152.5 -148.5t-207.5 -60.5q-136 0 -207.5 87t-71.5 241zM219 319q0 -98 39 -146 t121 -48q131 0 229.5 111t132.5 270l70 328q-64 20 -139 20q-192 0 -322.5 -152.5t-130.5 -382.5zM395 1145l275 309h139l147 -309h-127l-104 196l-182 -196h-148z" />
<glyph unicode="&#xe3;" horiz-adv-x="1157" d="M49 299q0 204 85.5 365t235 249t335.5 88q166 0 296 -59l-153 -713q-6 -24 -6 -43q0 -61 63 -61q47 0 90 18l-2 -145q-60 -27 -139 -27t-124.5 43.5t-45.5 118.5q0 15 4 47q-55 -88 -152.5 -148.5t-207.5 -60.5q-136 0 -207.5 87t-71.5 241zM219 319q0 -98 39 -146 t121 -48q131 0 229.5 111t132.5 270l70 328q-64 20 -139 20q-192 0 -322.5 -152.5t-130.5 -382.5zM385 1174q9 114 63.5 182.5t147.5 68.5q41 0 77.5 -20t58.5 -43.5t50.5 -43.5t55.5 -20q77 0 82 123h118q-11 -118 -65.5 -185t-153.5 -67q-36 0 -71.5 21t-59 46t-53 46 t-53.5 21q-33 0 -54 -32t-24 -97h-119z" />
<glyph unicode="&#xe4;" horiz-adv-x="1157" d="M49 299q0 204 85.5 365t235 249t335.5 88q166 0 296 -59l-153 -713q-6 -24 -6 -43q0 -61 63 -61q47 0 90 18l-2 -145q-60 -27 -139 -27t-124.5 43.5t-45.5 118.5q0 15 4 47q-55 -88 -152.5 -148.5t-207.5 -60.5q-136 0 -207.5 87t-71.5 241zM219 319q0 -98 39 -146 t121 -48q131 0 229.5 111t132.5 270l70 328q-64 20 -139 20q-192 0 -322.5 -152.5t-130.5 -382.5zM446 1204l43 197h154l-43 -197h-154zM805 1204l41 197h153l-41 -197h-153z" />
<glyph unicode="&#xe5;" horiz-adv-x="1157" d="M49 299q0 204 85.5 365t235 249t335.5 88q166 0 296 -59l-153 -713q-6 -24 -6 -43q0 -61 63 -61q47 0 90 18l-2 -145q-60 -27 -139 -27t-124.5 43.5t-45.5 118.5q0 15 4 47q-55 -88 -152.5 -148.5t-207.5 -60.5q-136 0 -207.5 87t-71.5 241zM219 319q0 -98 39 -146 t121 -48q131 0 229.5 111t132.5 270l70 328q-64 20 -139 20q-192 0 -322.5 -152.5t-130.5 -382.5zM496 1280q0 92 71.5 147.5t169.5 55.5q84 0 139.5 -43t55.5 -121q0 -92 -71.5 -148.5t-168.5 -56.5q-84 0 -140 44t-56 122zM604 1282q0 -37 27 -58.5t71 -21.5q55 0 88 31 t33 84q0 37 -26 57.5t-70 20.5q-56 0 -89.5 -30t-33.5 -83z" />
<glyph unicode="&#xe6;" horiz-adv-x="1601" d="M49 299q0 204 85.5 365t235 249t335.5 88q142 0 266 -53q112 53 237 53q150 0 229 -66.5t79 -176.5q0 -82 -36 -146t-94 -103.5t-137 -65.5t-157.5 -36t-163.5 -10q-68 0 -127 6q-2 -18 -2 -49q0 -233 225 -233q164 0 303 88l27 -139q-162 -99 -363 -99 q-109 0 -188.5 40.5t-122.5 115.5q-60 -69 -153.5 -112.5t-198.5 -43.5q-136 0 -207.5 87t-71.5 241zM219 319q0 -98 39 -146t121 -48q146 0 256 143q-4 20 -4 66q0 300 188 497q-76 23 -147 23q-192 0 -322.5 -152.5t-130.5 -382.5zM821 532q54 -4 92 -4q74 0 145 10 t141 32t112.5 65.5t42.5 103.5q0 55 -40 85t-116 30q-130 0 -234 -85.5t-143 -236.5z" />
<glyph unicode="&#xe7;" horiz-adv-x="950" d="M47 322q0 145 51 273t136.5 216t199.5 139t238 51q123 0 207 -43l-33 -151q-77 47 -184 47q-125 0 -228 -69.5t-161 -187.5t-58 -259q0 -113 53.5 -165t147.5 -52q142 0 289 86l24 -139q-151 -92 -330 -97l-28 -84q60 -11 99.5 -48.5t39.5 -98.5q0 -86 -62.5 -132 t-154.5 -46q-80 0 -141 28l32 105q51 -23 101 -23q39 0 62.5 16t23.5 46q0 71 -144 82l62 166q-111 23 -176.5 107.5t-65.5 232.5z" />
<glyph unicode="&#xe8;" horiz-adv-x="1021" d="M51 334q0 144 47.5 270t127 212t184.5 135.5t219 49.5q150 0 228.5 -66.5t78.5 -176.5q0 -82 -36 -146t-94 -103.5t-137 -65.5t-157.5 -36t-163.5 -10q-68 0 -127 6q-2 -18 -2 -49q0 -233 225 -233q165 0 304 88l26 -139q-162 -99 -362 -99q-172 0 -266.5 97.5 t-94.5 265.5zM242 532q54 -4 92 -4q74 0 145 10t140.5 32t112 65.5t42.5 103.5q0 55 -40 85t-116 30q-130 0 -233.5 -85.5t-142.5 -236.5zM406 1454h165l166 -309h-129z" />
<glyph unicode="&#xe9;" horiz-adv-x="1021" d="M51 334q0 144 47.5 270t127 212t184.5 135.5t219 49.5q150 0 228.5 -66.5t78.5 -176.5q0 -82 -36 -146t-94 -103.5t-137 -65.5t-157.5 -36t-163.5 -10q-68 0 -127 6q-2 -18 -2 -49q0 -233 225 -233q165 0 304 88l26 -139q-162 -99 -362 -99q-172 0 -266.5 97.5 t-94.5 265.5zM242 532q54 -4 92 -4q74 0 145 10t140.5 32t112 65.5t42.5 103.5q0 55 -40 85t-116 30q-130 0 -233.5 -85.5t-142.5 -236.5zM592 1145l231 309h185l-281 -309h-135z" />
<glyph unicode="&#xea;" horiz-adv-x="1021" d="M51 334q0 144 47.5 270t127 212t184.5 135.5t219 49.5q150 0 228.5 -66.5t78.5 -176.5q0 -82 -36 -146t-94 -103.5t-137 -65.5t-157.5 -36t-163.5 -10q-68 0 -127 6q-2 -18 -2 -49q0 -233 225 -233q165 0 304 88l26 -139q-162 -99 -362 -99q-172 0 -266.5 97.5 t-94.5 265.5zM242 532q54 -4 92 -4q74 0 145 10t140.5 32t112 65.5t42.5 103.5q0 55 -40 85t-116 30q-130 0 -233.5 -85.5t-142.5 -236.5zM373 1145l274 309h139l148 -309h-127l-105 196l-182 -196h-147z" />
<glyph unicode="&#xeb;" horiz-adv-x="1021" d="M51 334q0 144 47.5 270t127 212t184.5 135.5t219 49.5q150 0 228.5 -66.5t78.5 -176.5q0 -82 -36 -146t-94 -103.5t-137 -65.5t-157.5 -36t-163.5 -10q-68 0 -127 6q-2 -18 -2 -49q0 -233 225 -233q165 0 304 88l26 -139q-162 -99 -362 -99q-172 0 -266.5 97.5 t-94.5 265.5zM242 532q54 -4 92 -4q74 0 145 10t140.5 32t112 65.5t42.5 103.5q0 55 -40 85t-116 30q-130 0 -233.5 -85.5t-142.5 -236.5zM420 1204l43 197h153l-43 -197h-153zM778 1204l41 197h154l-41 -197h-154z" />
<glyph unicode="&#xec;" horiz-adv-x="514" d="M27 0l206 973h166l-206 -973h-166zM86 1454h166l166 -309h-129z" />
<glyph unicode="&#xed;" horiz-adv-x="514" d="M27 0l206 973h166l-206 -973h-166zM283 1145l231 309h184l-280 -309h-135z" />
<glyph unicode="&#xee;" horiz-adv-x="514" d="M27 0l206 973h166l-206 -973h-166zM68 1145l274 309h139l148 -309h-127l-105 196l-182 -196h-147z" />
<glyph unicode="&#xef;" horiz-adv-x="514" d="M27 0l206 973h166l-206 -973h-166zM113 1204l43 197h153l-43 -197h-153zM471 1204l41 197h154l-41 -197h-154z" />
<glyph unicode="&#xf0;" horiz-adv-x="1095" d="M59 342q0 144 45.5 269t121 209.5t174 132.5t204.5 48q162 0 232 -118q-7 166 -54 325l-422 -69l23 104l375 60q-7 27 -27.5 84t-23.5 67h145q29 -74 47 -127l246 41l-23 -102l-196 -33q57 -223 57 -436q0 -181 -42.5 -334.5t-119 -262t-186 -169t-238.5 -60.5 q-162 0 -250 100.5t-88 270.5zM227 358q0 -117 51.5 -178t143.5 -61q68 0 134.5 35t119.5 97t86 157t33 206q0 117 -51 178.5t-140 61.5q-69 0 -136.5 -35t-121 -97t-86.5 -157.5t-33 -206.5z" />
<glyph unicode="&#xf1;" horiz-adv-x="1155" d="M25 0l206 973h158l-35 -178q61 88 160 147t217 59q121 0 189.5 -73.5t68.5 -202.5q0 -51 -12 -113l-131 -612h-166l129 612q10 55 10 88q0 150 -147 150q-91 0 -173.5 -55t-135 -139.5t-72.5 -180.5l-101 -475h-165zM371 1174q9 114 63.5 182.5t147.5 68.5q41 0 77 -20 t58 -43.5t50.5 -43.5t55.5 -20q77 0 82 123h119q-11 -118 -65.5 -185t-153.5 -67q-36 0 -71.5 21t-59.5 46t-53.5 46t-53.5 21q-33 0 -54 -32t-24 -97h-118z" />
<glyph unicode="&#xf2;" horiz-adv-x="1093" d="M57 344q0 143 47.5 267t126 208.5t182 133t214.5 48.5q165 0 250.5 -101.5t85.5 -272.5q0 -142 -47.5 -266t-127 -208.5t-183 -133t-214.5 -48.5q-163 0 -248.5 102t-85.5 271zM225 358q0 -117 51.5 -177t143.5 -60q68 0 134.5 34.5t119.5 96t86 156.5t33 206 q0 117 -51 178.5t-140 61.5q-69 0 -136.5 -35t-121 -97t-86.5 -157.5t-33 -206.5zM416 1454h166l166 -309h-130z" />
<glyph unicode="&#xf3;" horiz-adv-x="1093" d="M57 344q0 143 47.5 267t126 208.5t182 133t214.5 48.5q165 0 250.5 -101.5t85.5 -272.5q0 -142 -47.5 -266t-127 -208.5t-183 -133t-214.5 -48.5q-163 0 -248.5 102t-85.5 271zM225 358q0 -117 51.5 -177t143.5 -60q68 0 134.5 34.5t119.5 96t86 156.5t33 206 q0 117 -51 178.5t-140 61.5q-69 0 -136.5 -35t-121 -97t-86.5 -157.5t-33 -206.5zM561 1145l232 309h184l-281 -309h-135z" />
<glyph unicode="&#xf4;" horiz-adv-x="1093" d="M57 344q0 143 47.5 267t126 208.5t182 133t214.5 48.5q165 0 250.5 -101.5t85.5 -272.5q0 -142 -47.5 -266t-127 -208.5t-183 -133t-214.5 -48.5q-163 0 -248.5 102t-85.5 271zM225 358q0 -117 51.5 -177t143.5 -60q68 0 134.5 34.5t119.5 96t86 156.5t33 206 q0 117 -51 178.5t-140 61.5q-69 0 -136.5 -35t-121 -97t-86.5 -157.5t-33 -206.5zM358 1145l275 309h139l148 -309h-127l-105 196l-182 -196h-148z" />
<glyph unicode="&#xf5;" horiz-adv-x="1093" d="M57 344q0 143 47.5 267t126 208.5t182 133t214.5 48.5q165 0 250.5 -101.5t85.5 -272.5q0 -142 -47.5 -266t-127 -208.5t-183 -133t-214.5 -48.5q-163 0 -248.5 102t-85.5 271zM225 358q0 -117 51.5 -177t143.5 -60q68 0 134.5 34.5t119.5 96t86 156.5t33 206 q0 117 -51 178.5t-140 61.5q-69 0 -136.5 -35t-121 -97t-86.5 -157.5t-33 -206.5zM352 1174q9 114 63.5 182.5t147.5 68.5q41 0 77.5 -20t58.5 -43.5t50.5 -43.5t55.5 -20q77 0 82 123h119q-11 -117 -66 -184.5t-154 -67.5q-36 0 -71.5 21t-59 46t-53 46t-53.5 21 q-33 0 -54 -32t-24 -97h-119z" />
<glyph unicode="&#xf6;" horiz-adv-x="1093" d="M57 344q0 143 47.5 267t126 208.5t182 133t214.5 48.5q165 0 250.5 -101.5t85.5 -272.5q0 -142 -47.5 -266t-127 -208.5t-183 -133t-214.5 -48.5q-163 0 -248.5 102t-85.5 271zM225 358q0 -117 51.5 -177t143.5 -60q68 0 134.5 34.5t119.5 96t86 156.5t33 206 q0 117 -51 178.5t-140 61.5q-69 0 -136.5 -35t-121 -97t-86.5 -157.5t-33 -206.5zM406 1204l43 197h153l-43 -197h-153zM764 1204l41 197h153l-40 -197h-154z" />
<glyph unicode="&#xf7;" d="M115 569v136h954v-136h-954zM500 154v180h184v-180h-184zM500 940v180h184v-180h-184z" />
<glyph unicode="&#xf8;" horiz-adv-x="1093" d="M-12 -25l125 138q-56 92 -56 231q0 143 47.5 267t126 208.5t182 133t214.5 48.5q135 0 219 -71l121 133l67 -66l-127 -139q56 -95 56 -231q0 -142 -47.5 -266t-127 -208.5t-183 -133t-214.5 -48.5q-131 0 -217 70l-119 -131zM225 358q0 -57 13 -104l495 549 q-51 51 -131 51q-69 0 -136.5 -35t-121 -97t-86.5 -157.5t-33 -206.5zM287 168q47 -47 133 -47q68 0 134.5 34.5t119.5 96t86 156.5t33 206q0 53 -13 103z" />
<glyph unicode="&#xf9;" horiz-adv-x="1177" d="M74 248q0 42 14 114l129 611h166l-131 -617q-10 -52 -10 -86q0 -149 135 -149q88 0 170.5 55.5t136.5 141t74 180.5l100 475h164l-156 -744q-6 -24 -6 -43q0 -61 64 -61q47 0 90 18l-2 -145q-60 -27 -140 -27q-79 0 -124.5 43.5t-45.5 118.5q0 7 5 47 q-57 -90 -154 -149.5t-215 -59.5q-120 0 -192 73.5t-72 203.5zM401 1454h166l166 -309h-129z" />
<glyph unicode="&#xfa;" horiz-adv-x="1177" d="M74 248q0 42 14 114l129 611h166l-131 -617q-10 -52 -10 -86q0 -149 135 -149q88 0 170.5 55.5t136.5 141t74 180.5l100 475h164l-156 -744q-6 -24 -6 -43q0 -61 64 -61q47 0 90 18l-2 -145q-60 -27 -140 -27q-79 0 -124.5 43.5t-45.5 118.5q0 7 5 47 q-57 -90 -154 -149.5t-215 -59.5q-120 0 -192 73.5t-72 203.5zM580 1145l231 309h184l-280 -309h-135z" />
<glyph unicode="&#xfb;" horiz-adv-x="1177" d="M74 248q0 42 14 114l129 611h166l-131 -617q-10 -52 -10 -86q0 -149 135 -149q88 0 170.5 55.5t136.5 141t74 180.5l100 475h164l-156 -744q-6 -24 -6 -43q0 -61 64 -61q47 0 90 18l-2 -145q-60 -27 -140 -27q-79 0 -124.5 43.5t-45.5 118.5q0 7 5 47 q-57 -90 -154 -149.5t-215 -59.5q-120 0 -192 73.5t-72 203.5zM375 1145l274 309h139l148 -309h-127l-104 196l-183 -196h-147z" />
<glyph unicode="&#xfc;" horiz-adv-x="1177" d="M74 248q0 42 14 114l129 611h166l-131 -617q-10 -52 -10 -86q0 -149 135 -149q88 0 170.5 55.5t136.5 141t74 180.5l100 475h164l-156 -744q-6 -24 -6 -43q0 -61 64 -61q47 0 90 18l-2 -145q-60 -27 -140 -27q-79 0 -124.5 43.5t-45.5 118.5q0 7 5 47 q-57 -90 -154 -149.5t-215 -59.5q-120 0 -192 73.5t-72 203.5zM420 1204l43 197h153l-43 -197h-153zM778 1204l41 197h154l-41 -197h-154z" />
<glyph unicode="&#xfd;" horiz-adv-x="1136" d="M-16 -338l34 150q54 -33 130.5 -56.5t158.5 -23.5q283 0 348 288l31 134q-61 -80 -151 -131.5t-197 -51.5q-120 0 -192 73.5t-72 203.5q0 42 14 114l129 611h166l-131 -617q-10 -52 -10 -86q0 -149 135 -149q88 0 170.5 55.5t136.5 141t74 180.5l100 475h164l-199 -946 q-45 -215 -188.5 -330t-349.5 -115q-176 0 -301 80zM584 1145l231 309h184l-280 -309h-135z" />
<glyph unicode="&#xfe;" horiz-adv-x="1110" d="M-55 -389l389 1843h164l-136 -639q61 80 149.5 133t186.5 53q134 0 208.5 -88t74.5 -241t-49.5 -284t-135 -222t-205 -143t-255.5 -52q-74 0 -148 21l-82 -381h-161zM219 141q64 -20 131 -20q128 0 234.5 72.5t166.5 194t60 263.5q0 199 -160 199q-88 0 -165.5 -56 t-126.5 -141.5t-70 -185.5z" />
<glyph unicode="&#xff;" horiz-adv-x="1136" d="M-16 -338l34 150q54 -33 130.5 -56.5t158.5 -23.5q283 0 348 288l31 134q-61 -80 -151 -131.5t-197 -51.5q-120 0 -192 73.5t-72 203.5q0 42 14 114l129 611h166l-131 -617q-10 -52 -10 -86q0 -149 135 -149q88 0 170.5 55.5t136.5 141t74 180.5l100 475h164l-199 -946 q-45 -215 -188.5 -330t-349.5 -115q-176 0 -301 80zM412 1204l43 197h153l-43 -197h-153zM770 1204l41 197h154l-41 -197h-154z" />
<glyph unicode="&#x100;" horiz-adv-x="1282" d="M-154 0l844 1384h180l258 -1384h-184l-63 342h-641l-203 -342h-191zM334 496h520l-119 665zM563 1618l27 119h540l-26 -119h-541z" />
<glyph unicode="&#x101;" horiz-adv-x="1157" d="M49 299q0 204 85.5 365t235 249t335.5 88q166 0 296 -59l-153 -713q-6 -24 -6 -43q0 -61 63 -61q47 0 90 18l-2 -145q-60 -27 -139 -27t-124.5 43.5t-45.5 118.5q0 15 4 47q-55 -88 -152.5 -148.5t-207.5 -60.5q-136 0 -207.5 87t-71.5 241zM219 319q0 -98 39 -146 t121 -48q131 0 229.5 111t132.5 270l70 328q-64 20 -139 20q-192 0 -322.5 -152.5t-130.5 -382.5zM438 1241l27 119h541l-27 -119h-541z" />
<glyph unicode="&#x102;" horiz-adv-x="1282" d="M-154 0l844 1384h180l258 -1384h-184l-63 342h-641l-203 -342h-191zM334 496h520l-119 665zM580 1767q0 20 4 56h116q-2 -12 -2 -33q0 -69 35 -106t101 -37q157 0 186 176h121q-25 -139 -107 -216t-215 -77q-111 0 -175 64.5t-64 172.5z" />
<glyph unicode="&#x103;" horiz-adv-x="1157" d="M49 299q0 204 85.5 365t235 249t335.5 88q166 0 296 -59l-153 -713q-6 -24 -6 -43q0 -61 63 -61q47 0 90 18l-2 -145q-60 -27 -139 -27t-124.5 43.5t-45.5 118.5q0 15 4 47q-55 -88 -152.5 -148.5t-207.5 -60.5q-136 0 -207.5 87t-71.5 241zM219 319q0 -98 39 -146 t121 -48q131 0 229.5 111t132.5 270l70 328q-64 20 -139 20q-192 0 -322.5 -152.5t-130.5 -382.5zM444 1389q0 10 5 55h116q-2 -12 -2 -33q0 -69 34.5 -106t100.5 -37q158 0 187 176h121q-25 -139 -107 -216t-215 -77q-111 0 -175.5 65t-64.5 173z" />
<glyph unicode="&#x104;" horiz-adv-x="1282" d="M-154 0l844 1384h180l258 -1384q-194 -131 -194 -246q0 -61 78 -61q64 0 110 31q2 -39 2 -115q-69 -37 -147 -37q-77 0 -127.5 37t-50.5 119q0 85 64 160t143 112h-62l-63 342h-641l-203 -342h-191zM334 496h520l-119 665z" />
<glyph unicode="&#x105;" horiz-adv-x="1157" d="M49 299q0 204 85.5 365t235 249t335.5 88q166 0 296 -59l-153 -713q-6 -24 -6 -43q0 -61 63 -61q47 0 90 18l-2 -145q-52 -24 -135 -27q-153 -112 -153 -217q0 -61 77 -61q64 0 111 31q2 -39 2 -115q-69 -37 -147 -37q-77 0 -128 37t-51 119q0 81 57.5 152.5t133.5 111.5 q-76 39 -76 141q0 15 4 47q-55 -88 -152.5 -148.5t-207.5 -60.5q-136 0 -207.5 87t-71.5 241zM219 319q0 -98 39 -146t121 -48q131 0 229.5 111t132.5 270l70 328q-64 20 -139 20q-192 0 -322.5 -152.5t-130.5 -382.5z" />
<glyph unicode="&#x106;" horiz-adv-x="1316" d="M106 563q0 251 107 445t298.5 299.5t436.5 105.5q228 0 361 -70l-35 -159q-142 71 -326 71q-140 0 -258 -46t-205.5 -131.5t-136.5 -217t-49 -293.5q0 -202 120.5 -319t321.5 -117q179 0 344 74l11 -158q-162 -76 -385 -76q-129 0 -240.5 42t-192 118t-126.5 187.5 t-46 244.5zM823 1524l232 309h184l-281 -309h-135z" />
<glyph unicode="&#x107;" horiz-adv-x="950" d="M47 322q0 145 51 273t136.5 216t199.5 139t238 51q123 0 207 -43l-33 -151q-77 47 -184 47q-125 0 -228 -69.5t-161 -187.5t-58 -259q0 -113 53.5 -165t147.5 -52q142 0 289 86l24 -139q-157 -97 -344 -97q-72 0 -131.5 20t-106.5 61t-73.5 110t-26.5 160zM549 1145 l231 309h185l-281 -309h-135z" />
<glyph unicode="&#x108;" horiz-adv-x="1316" d="M106 563q0 251 107 445t298.5 299.5t436.5 105.5q228 0 361 -70l-35 -159q-142 71 -326 71q-140 0 -258 -46t-205.5 -131.5t-136.5 -217t-49 -293.5q0 -202 120.5 -319t321.5 -117q179 0 344 74l11 -158q-162 -76 -385 -76q-129 0 -240.5 42t-192 118t-126.5 187.5 t-46 244.5zM616 1524l275 309h139l148 -309h-127l-105 196l-182 -196h-148z" />
<glyph unicode="&#x109;" horiz-adv-x="950" d="M47 322q0 145 51 273t136.5 216t199.5 139t238 51q123 0 207 -43l-33 -151q-77 47 -184 47q-125 0 -228 -69.5t-161 -187.5t-58 -259q0 -113 53.5 -165t147.5 -52q142 0 289 86l24 -139q-157 -97 -344 -97q-72 0 -131.5 20t-106.5 61t-73.5 110t-26.5 160zM307 1145 l275 309h139l147 -309h-127l-104 196l-182 -196h-148z" />
<glyph unicode="&#x10a;" horiz-adv-x="1316" d="M106 563q0 251 107 445t298.5 299.5t436.5 105.5q228 0 361 -70l-35 -159q-142 71 -326 71q-140 0 -258 -46t-205.5 -131.5t-136.5 -217t-49 -293.5q0 -202 120.5 -319t321.5 -117q179 0 344 74l11 -158q-162 -76 -385 -76q-129 0 -240.5 42t-192 118t-126.5 187.5 t-46 244.5zM831 1579l41 197h162l-41 -197h-162z" />
<glyph unicode="&#x10b;" horiz-adv-x="950" d="M47 322q0 145 51 273t136.5 216t199.5 139t238 51q123 0 207 -43l-33 -151q-77 47 -184 47q-125 0 -228 -69.5t-161 -187.5t-58 -259q0 -113 53.5 -165t147.5 -52q142 0 289 86l24 -139q-157 -97 -344 -97q-72 0 -131.5 20t-106.5 61t-73.5 110t-26.5 160zM541 1206 l41 197h161l-41 -197h-161z" />
<glyph unicode="&#x10c;" horiz-adv-x="1316" d="M106 563q0 251 107 445t298.5 299.5t436.5 105.5q228 0 361 -70l-35 -159q-142 71 -326 71q-140 0 -258 -46t-205.5 -131.5t-136.5 -217t-49 -293.5q0 -202 120.5 -319t321.5 -117q179 0 344 74l11 -158q-162 -76 -385 -76q-129 0 -240.5 42t-192 118t-126.5 187.5 t-46 244.5zM688 1833h133l99 -188l180 188h149l-274 -309h-139z" />
<glyph unicode="&#x10d;" horiz-adv-x="950" d="M47 322q0 145 51 273t136.5 216t199.5 139t238 51q123 0 207 -43l-33 -151q-77 47 -184 47q-125 0 -228 -69.5t-161 -187.5t-58 -259q0 -113 53.5 -165t147.5 -52q142 0 289 86l24 -139q-157 -97 -344 -97q-72 0 -131.5 20t-106.5 61t-73.5 110t-26.5 160zM381 1454h133 l98 -188l181 188h149l-274 -309h-140z" />
<glyph unicode="&#x10e;" horiz-adv-x="1533" d="M78 0l293 1384h415q130 0 244 -36.5t202.5 -106t139.5 -179.5t51 -247q0 -256 -117 -441.5t-324.5 -279.5t-483.5 -94h-420zM291 154h239q151 0 279 42.5t223 123.5t149 206t54 281q0 202 -121 312t-356 110h-240zM729 1833h133l99 -188l180 188h149l-274 -309h-139z" />
<glyph unicode="&#x10f;" horiz-adv-x="1155" d="M49 299q0 204 85.5 365t235 249t335.5 88q53 0 139 -14l98 467h168l-262 -1225q-6 -24 -6 -43q0 -61 63 -61q47 0 90 18l-2 -145q-60 -27 -139 -27t-124.5 43.5t-45.5 118.5q0 15 4 47q-55 -88 -152.5 -148.5t-207.5 -60.5q-136 0 -207.5 87t-71.5 241zM219 319 q0 -98 39 -146t121 -48q131 0 229.5 111t132.5 270l70 328q-64 20 -139 20q-192 0 -322.5 -152.5t-130.5 -382.5zM1128 1122q107 82 107 205q0 57 -25 127h133q19 -62 19 -108q0 -102 -41 -170.5t-131 -128.5z" />
<glyph unicode="&#x110;" horiz-adv-x="1550" d="M63 651l31 131h166l127 602h416q130 0 244 -36.5t202.5 -106t139.5 -179.5t51 -247q0 -256 -117.5 -441.5t-325 -279.5t-483.5 -94h-420l137 651h-168zM307 154h240q151 0 278.5 42.5t223 123.5t149 206t53.5 281q0 202 -121 312t-356 110h-239l-95 -447h408l-29 -131 h-407z" />
<glyph unicode="&#x111;" horiz-adv-x="1155" d="M49 299q0 204 85.5 365t235 249t335.5 88q53 0 139 -14l41 199h-379l24 104h377l35 164h168l-35 -164h156l-23 -104h-155l-205 -957q-6 -24 -6 -43q0 -61 63 -61q47 0 90 18l-2 -145q-60 -27 -139 -27t-124.5 43.5t-45.5 118.5q0 15 4 47q-55 -88 -152.5 -148.5 t-207.5 -60.5q-136 0 -207.5 87t-71.5 241zM219 319q0 -98 39 -146t121 -48q131 0 229.5 111t132.5 270l70 328q-64 20 -139 20q-192 0 -322.5 -152.5t-130.5 -382.5z" />
<glyph unicode="&#x112;" horiz-adv-x="1189" d="M117 244q0 46 28 172l203 968h828l-33 -155h-645l-92 -438h587l-32 -154h-590l-62 -303q-8 -46 -8 -64q0 -116 148 -116h497l-33 -154h-524q-135 0 -203.5 66t-68.5 178zM543 1618l26 119h541l-27 -119h-540z" />
<glyph unicode="&#x113;" horiz-adv-x="1021" d="M51 334q0 144 47.5 270t127 212t184.5 135.5t219 49.5q150 0 228.5 -66.5t78.5 -176.5q0 -82 -36 -146t-94 -103.5t-137 -65.5t-157.5 -36t-163.5 -10q-68 0 -127 6q-2 -18 -2 -49q0 -233 225 -233q165 0 304 88l26 -139q-162 -99 -362 -99q-172 0 -266.5 97.5 t-94.5 265.5zM242 532q54 -4 92 -4q74 0 145 10t140.5 32t112 65.5t42.5 103.5q0 55 -40 85t-116 30q-130 0 -233.5 -85.5t-142.5 -236.5zM416 1241l26 119h541l-27 -119h-540z" />
<glyph unicode="&#x114;" horiz-adv-x="1189" d="M117 244q0 46 28 172l203 968h828l-33 -155h-645l-92 -438h587l-32 -154h-590l-62 -303q-8 -46 -8 -64q0 -116 148 -116h497l-33 -154h-524q-135 0 -203.5 66t-68.5 178zM563 1767q0 20 4 56h117q-2 -12 -2 -33q0 -69 34.5 -106t100.5 -37q158 0 187 176h120 q-25 -139 -106.5 -216t-214.5 -77q-112 0 -176 64.5t-64 172.5z" />
<glyph unicode="&#x115;" horiz-adv-x="1021" d="M51 334q0 144 47.5 270t127 212t184.5 135.5t219 49.5q150 0 228.5 -66.5t78.5 -176.5q0 -82 -36 -146t-94 -103.5t-137 -65.5t-157.5 -36t-163.5 -10q-68 0 -127 6q-2 -18 -2 -49q0 -233 225 -233q165 0 304 88l26 -139q-162 -99 -362 -99q-172 0 -266.5 97.5 t-94.5 265.5zM242 532q54 -4 92 -4q74 0 145 10t140.5 32t112 65.5t42.5 103.5q0 55 -40 85t-116 30q-130 0 -233.5 -85.5t-142.5 -236.5zM426 1389q0 19 4 55h117q-2 -12 -2 -33q0 -69 34.5 -106t100.5 -37q157 0 186 176h121q-25 -139 -106.5 -216t-214.5 -77 q-111 0 -175.5 65t-64.5 173z" />
<glyph unicode="&#x116;" horiz-adv-x="1189" d="M117 244q0 46 28 172l203 968h828l-33 -155h-645l-92 -438h587l-32 -154h-590l-62 -303q-8 -46 -8 -64q0 -116 148 -116h497l-33 -154h-524q-135 0 -203.5 66t-68.5 178zM721 1579l41 197h162l-41 -197h-162z" />
<glyph unicode="&#x117;" horiz-adv-x="1021" d="M51 334q0 144 47.5 270t127 212t184.5 135.5t219 49.5q150 0 228.5 -66.5t78.5 -176.5q0 -82 -36 -146t-94 -103.5t-137 -65.5t-157.5 -36t-163.5 -10q-68 0 -127 6q-2 -18 -2 -49q0 -233 225 -233q165 0 304 88l26 -139q-162 -99 -362 -99q-172 0 -266.5 97.5 t-94.5 265.5zM242 532q54 -4 92 -4q74 0 145 10t140.5 32t112 65.5t42.5 103.5q0 55 -40 85t-116 30q-130 0 -233.5 -85.5t-142.5 -236.5zM596 1206l41 197h162l-41 -197h-162z" />
<glyph unicode="&#x118;" horiz-adv-x="1189" d="M117 244q0 46 28 172l203 968h828l-33 -155h-645l-92 -438h587l-32 -154h-590l-62 -303q-8 -46 -8 -64q0 -116 148 -116h497l-33 -154h-82q-194 -131 -194 -246q0 -61 78 -61q63 0 110 31q2 -39 2 -115q-69 -37 -147 -37q-77 0 -127.5 37t-50.5 119q0 85 64 160t143 112 h-320q-135 0 -203.5 66t-68.5 178z" />
<glyph unicode="&#x119;" horiz-adv-x="1021" d="M51 334q0 144 47.5 270t127 212t184.5 135.5t219 49.5q150 0 228.5 -66.5t78.5 -176.5q0 -82 -36 -146t-94 -103.5t-137 -65.5t-157.5 -36t-163.5 -10q-68 0 -127 6q-2 -18 -2 -49q0 -233 225 -233q165 0 304 88l26 -139q-72 -46 -156 -70q-194 -131 -194 -246 q0 -61 78 -61q64 0 110 31q2 -39 2 -115q-69 -37 -147 -37q-77 0 -127.5 37t-50.5 119q0 72 44.5 136.5t110.5 106.5h-32q-172 0 -266.5 97.5t-94.5 265.5zM242 532q54 -4 92 -4q74 0 145 10t140.5 32t112 65.5t42.5 103.5q0 55 -40 85t-116 30q-130 0 -233.5 -85.5 t-142.5 -236.5z" />
<glyph unicode="&#x11a;" horiz-adv-x="1189" d="M117 244q0 46 28 172l203 968h828l-33 -155h-645l-92 -438h587l-32 -154h-590l-62 -303q-8 -46 -8 -64q0 -116 148 -116h497l-33 -154h-524q-135 0 -203.5 66t-68.5 178zM575 1833h134l98 -188l180 188h150l-275 -309h-139z" />
<glyph unicode="&#x11b;" horiz-adv-x="1021" d="M51 334q0 144 47.5 270t127 212t184.5 135.5t219 49.5q150 0 228.5 -66.5t78.5 -176.5q0 -82 -36 -146t-94 -103.5t-137 -65.5t-157.5 -36t-163.5 -10q-68 0 -127 6q-2 -18 -2 -49q0 -233 225 -233q165 0 304 88l26 -139q-162 -99 -362 -99q-172 0 -266.5 97.5 t-94.5 265.5zM242 532q54 -4 92 -4q74 0 145 10t140.5 32t112 65.5t42.5 103.5q0 55 -40 85t-116 30q-130 0 -233.5 -85.5t-142.5 -236.5zM449 1454h133l98 -188l180 188h150l-275 -309h-139z" />
<glyph unicode="&#x11c;" horiz-adv-x="1624" d="M106 580q0 172 52 314t138.5 236.5t202.5 159.5t241 94t257 29q300 0 527 -127l-35 -160q-95 59 -222.5 94t-260.5 35q-109 0 -207.5 -20.5t-192 -70t-160.5 -124.5t-108 -192t-41 -264q0 -221 137.5 -338t372.5 -117q201 0 344 68l86 401h-430l31 152h606l-139 -664 q-239 -115 -519 -115q-116 0 -219 25.5t-187.5 76t-145.5 123t-94.5 170.5t-33.5 214zM711 1524l274 309h139l148 -309h-127l-105 196l-182 -196h-147z" />
<glyph unicode="&#x11d;" horiz-adv-x="1116" d="M-35 -338l35 150q53 -33 130.5 -56.5t158.5 -23.5q286 0 348 288l29 132q-60 -78 -149.5 -129.5t-188.5 -51.5q-136 0 -207.5 87t-71.5 241q0 204 85.5 365t235 249t335.5 88q166 0 296 -59l-196 -915q-45 -214 -189 -329.5t-350 -115.5q-176 0 -301 80zM219 319 q0 -98 39 -146t121 -48q131 0 229.5 111t132.5 270l70 328q-64 20 -139 20q-192 0 -322.5 -152.5t-130.5 -382.5zM395 1145l275 309h139l147 -309h-127l-104 196l-182 -196h-148z" />
<glyph unicode="&#x11e;" horiz-adv-x="1624" d="M106 580q0 172 52 314t138.5 236.5t202.5 159.5t241 94t257 29q300 0 527 -127l-35 -160q-95 59 -222.5 94t-260.5 35q-109 0 -207.5 -20.5t-192 -70t-160.5 -124.5t-108 -192t-41 -264q0 -221 137.5 -338t372.5 -117q201 0 344 68l86 401h-430l31 152h606l-139 -664 q-239 -115 -519 -115q-116 0 -219 25.5t-187.5 76t-145.5 123t-94.5 170.5t-33.5 214zM756 1767q0 20 4 56h117q-3 -18 -3 -33q0 -69 35 -106t101 -37q157 0 186 176h121q-25 -139 -107 -216t-215 -77q-111 0 -175 64.5t-64 172.5z" />
<glyph unicode="&#x11f;" horiz-adv-x="1116" d="M-35 -338l35 150q53 -33 130.5 -56.5t158.5 -23.5q286 0 348 288l29 132q-60 -78 -149.5 -129.5t-188.5 -51.5q-136 0 -207.5 87t-71.5 241q0 204 85.5 365t235 249t335.5 88q166 0 296 -59l-196 -915q-45 -214 -189 -329.5t-350 -115.5q-176 0 -301 80zM219 319 q0 -98 39 -146t121 -48q131 0 229.5 111t132.5 270l70 328q-64 20 -139 20q-192 0 -322.5 -152.5t-130.5 -382.5zM446 1389q0 10 5 55h116q-2 -12 -2 -33q0 -69 34.5 -106t100.5 -37q158 0 187 176h121q-25 -139 -107 -216t-215 -77q-111 0 -175.5 65t-64.5 173z" />
<glyph unicode="&#x120;" horiz-adv-x="1624" d="M106 580q0 172 52 314t138.5 236.5t202.5 159.5t241 94t257 29q300 0 527 -127l-35 -160q-95 59 -222.5 94t-260.5 35q-109 0 -207.5 -20.5t-192 -70t-160.5 -124.5t-108 -192t-41 -264q0 -221 137.5 -338t372.5 -117q201 0 344 68l86 401h-430l31 152h606l-139 -664 q-239 -115 -519 -115q-116 0 -219 25.5t-187.5 76t-145.5 123t-94.5 170.5t-33.5 214zM920 1577l41 197h161l-41 -197h-161z" />
<glyph unicode="&#x121;" horiz-adv-x="1116" d="M-35 -338l35 150q53 -33 130.5 -56.5t158.5 -23.5q286 0 348 288l29 132q-60 -78 -149.5 -129.5t-188.5 -51.5q-136 0 -207.5 87t-71.5 241q0 204 85.5 365t235 249t335.5 88q166 0 296 -59l-196 -915q-45 -214 -189 -329.5t-350 -115.5q-176 0 -301 80zM219 319 q0 -98 39 -146t121 -48q131 0 229.5 111t132.5 270l70 328q-64 20 -139 20q-192 0 -322.5 -152.5t-130.5 -382.5zM598 1206l41 197h162l-41 -197h-162z" />
<glyph unicode="&#x122;" horiz-adv-x="1624" d="M106 580q0 172 52 314t138.5 236.5t202.5 159.5t241 94t257 29q300 0 527 -127l-35 -160q-95 59 -222.5 94t-260.5 35q-109 0 -207.5 -20.5t-192 -70t-160.5 -124.5t-108 -192t-41 -264q0 -221 137.5 -338t372.5 -117q201 0 344 68l86 401h-430l31 152h606l-139 -664 q-239 -115 -519 -115q-116 0 -219 25.5t-187.5 76t-145.5 123t-94.5 170.5t-33.5 214zM446 -401q175 50 175 204q0 32 -9 72h142q6 -37 6 -70q0 -110 -72.5 -192.5t-200.5 -112.5z" />
<glyph unicode="&#x123;" horiz-adv-x="1116" d="M-35 -338l35 150q53 -33 130.5 -56.5t158.5 -23.5q286 0 348 288l29 132q-60 -78 -149.5 -129.5t-188.5 -51.5q-136 0 -207.5 87t-71.5 241q0 204 85.5 365t235 249t335.5 88q166 0 296 -59l-196 -915q-45 -214 -189 -329.5t-350 -115.5q-176 0 -301 80zM219 319 q0 -98 39 -146t121 -48q131 0 229.5 111t132.5 270l70 328q-64 20 -139 20q-192 0 -322.5 -152.5t-130.5 -382.5zM596 1210q0 110 72.5 193t199.5 113l41 -99q-174 -50 -174 -205q0 -35 8 -71h-141q-6 37 -6 69z" />
<glyph unicode="&#x124;" horiz-adv-x="1609" d="M74 0l295 1384h180l-125 -589h803l123 589h180l-293 -1384h-180l135 637h-803l-135 -637h-180zM698 1524l275 309h139l148 -309h-127l-105 196l-182 -196h-148z" />
<glyph unicode="&#x125;" horiz-adv-x="1157" d="M27 0l307 1454h166l-144 -659q61 88 160 147t217 59q121 0 189.5 -73.5t68.5 -202.5q0 -51 -12 -113l-131 -612h-166l129 612q10 55 10 88q0 150 -147 150q-91 0 -173.5 -55t-135 -139.5t-72.5 -180.5l-100 -475h-166zM137 1524l275 309h139l147 -309h-127l-104 196 l-182 -196h-148z" />
<glyph unicode="&#x126;" horiz-adv-x="1607" d="M74 0l219 1040h-166l25 107h163l52 237h180l-49 -237h800l50 237h180l-51 -237h172l-25 -107h-170l-219 -1040h-180l135 637h-801l-135 -637h-180zM424 795h801l51 245h-801z" />
<glyph unicode="&#x127;" horiz-adv-x="1157" d="M27 0l249 1186h-172l23 104h172l35 164h166l-37 -164h375l-25 -104h-373l-84 -391q61 88 160 147t217 59q121 0 189.5 -73.5t68.5 -202.5q0 -51 -12 -113l-131 -612h-166l129 612q10 55 10 88q0 150 -147 150q-91 0 -173.5 -55t-135 -139.5t-72.5 -180.5l-100 -475h-166z " />
<glyph unicode="&#x128;" horiz-adv-x="626" d="M74 0l293 1384h180l-293 -1384h-180zM184 1552q9 114 63.5 183t147.5 69q41 0 77.5 -20t58.5 -43.5t50.5 -43.5t55.5 -20q77 0 82 123h119q-11 -117 -66 -184.5t-154 -67.5q-36 0 -71.5 21t-59 45.5t-53 45.5t-53.5 21q-33 0 -54 -32t-24 -97h-119z" />
<glyph unicode="&#x129;" horiz-adv-x="514" d="M27 0l206 973h166l-206 -973h-166zM59 1174q9 114 63.5 182.5t147.5 68.5q41 0 77.5 -20t58.5 -43.5t50.5 -43.5t55.5 -20q77 0 82 123h119q-11 -118 -65.5 -185t-153.5 -67q-36 0 -71.5 21t-59.5 46t-53.5 46t-53.5 21q-33 0 -54 -32t-24 -97h-119z" />
<glyph unicode="&#x12a;" horiz-adv-x="626" d="M74 0l293 1384h180l-293 -1384h-180zM238 1618l26 119h541l-27 -119h-540z" />
<glyph unicode="&#x12b;" horiz-adv-x="514" d="M27 0l206 973h166l-206 -973h-166zM100 1241l27 119h541l-27 -119h-541z" />
<glyph unicode="&#x12c;" horiz-adv-x="626" d="M74 0l293 1384h180l-293 -1384h-180zM260 1767q0 20 4 56h117q-2 -12 -2 -33q0 -69 34.5 -106t100.5 -37q157 0 186 176h121q-25 -139 -106.5 -216t-214.5 -77q-112 0 -176 64.5t-64 172.5z" />
<glyph unicode="&#x12d;" horiz-adv-x="514" d="M27 0l206 973h166l-206 -973h-166zM125 1389q0 19 4 55h117q-2 -12 -2 -33q0 -69 34.5 -106t100.5 -37q157 0 186 176h121q-25 -139 -106.5 -216t-214.5 -77q-111 0 -175.5 65t-64.5 173z" />
<glyph unicode="&#x12e;" horiz-adv-x="626" d="M-76 -272q0 85 64 160t143 112h-57l293 1384h180l-293 -1384q-195 -132 -195 -246q0 -61 78 -61q64 0 111 31l2 -115q-69 -37 -148 -37q-77 0 -127.5 37t-50.5 119z" />
<glyph unicode="&#x12f;" horiz-adv-x="514" d="M-139 -272q0 85 64 160t143 112h-43l206 973h166l-207 -973q-194 -131 -194 -246q0 -61 78 -61q64 0 110 31l2 -115q-69 -37 -147 -37q-77 0 -127.5 37t-50.5 119zM279 1194l43 203h165l-43 -203h-165z" />
<glyph unicode="&#x130;" horiz-adv-x="626" d="M74 0l293 1384h180l-293 -1384h-180zM418 1579l41 197h162l-41 -197h-162z" />
<glyph unicode="&#x131;" horiz-adv-x="514" d="M27 0l206 973h166l-206 -973h-166z" />
<glyph unicode="&#x134;" horiz-adv-x="776" d="M-113 16l35 154q84 -41 178 -41q95 0 148.5 55.5t77.5 165.5l219 1034h180l-219 -1030q-43 -198 -142.5 -290.5t-269.5 -92.5q-106 0 -207 45zM391 1524l275 309h139l147 -309h-127l-104 196l-182 -196h-148z" />
<glyph unicode="&#x135;" horiz-adv-x="514" d="M-260 -387l33 147q49 -22 112 -22q44 0 69.5 24t37.5 82l239 1129h166l-241 -1129q-29 -132 -90 -197t-175 -65q-80 0 -151 31zM72 1145l274 309h139l148 -309h-127l-105 196l-182 -196h-147z" />
<glyph unicode="&#x136;" horiz-adv-x="1265" d="M74 0l293 1384h180l-129 -612l756 612h231l-836 -679l549 -705h-219l-510 645l-137 -645h-178zM324 -401q174 50 174 204q0 32 -9 72h142q6 -37 6 -70q0 -110 -72 -192.5t-200 -112.5z" />
<glyph unicode="&#x137;" horiz-adv-x="985" d="M25 0l309 1454h166l-187 -876l459 395h223l-542 -453l399 -520h-197l-366 467l-99 -467h-165zM188 -401q174 50 174 204q0 36 -8 72h142q6 -37 6 -70q0 -110 -72.5 -192.5t-200.5 -112.5z" />
<glyph unicode="&#x139;" horiz-adv-x="1056" d="M119 244q0 40 10 92l221 1048h180l-221 -1048q-8 -33 -8 -66q0 -116 148 -116h454l-33 -154h-479q-134 0 -203 66.5t-69 177.5zM406 1524l231 309h184l-280 -309h-135z" />
<glyph unicode="&#x13a;" horiz-adv-x="550" d="M63 162q0 15 9 71l258 1221h166l-260 -1237q-5 -30 -5 -33q0 -63 72 -63q46 0 98 20l-2 -143q-65 -27 -139 -27q-91 0 -144 49t-53 142zM360 1524l232 309h184l-280 -309h-136z" />
<glyph unicode="&#x13b;" horiz-adv-x="1056" d="M119 244q0 40 10 92l221 1048h180l-221 -1048q-8 -33 -8 -66q0 -116 148 -116h454l-33 -154h-479q-134 0 -203 66.5t-69 177.5zM266 -401q174 50 174 204q0 36 -8 72h141q7 -44 7 -70q0 -110 -72.5 -192.5t-200.5 -112.5z" />
<glyph unicode="&#x13c;" horiz-adv-x="550" d="M-68 -401q174 50 174 204q0 36 -8 72h142q6 -37 6 -70q0 -110 -72.5 -192.5t-200.5 -112.5zM63 162q0 15 9 71l258 1221h166l-260 -1237q-5 -30 -5 -33q0 -63 72 -63q46 0 98 20l-2 -143q-65 -27 -139 -27q-91 0 -144 49t-53 142z" />
<glyph unicode="&#x13d;" horiz-adv-x="1056" d="M119 244q0 40 10 92l221 1048h180l-221 -1048q-8 -33 -8 -66q0 -116 148 -116h454l-33 -154h-479q-134 0 -203 66.5t-69 177.5zM674 1028q66 45 101.5 114t35.5 148q0 44 -12 94h141q10 -36 10 -81q0 -110 -57 -202.5t-162 -150.5z" />
<glyph unicode="&#x13e;" horiz-adv-x="643" d="M63 162q0 15 9 71l258 1221h166l-260 -1237q-5 -30 -5 -33q0 -63 72 -63q46 0 98 20l-2 -143q-65 -27 -139 -27q-91 0 -144 49t-53 142zM518 1122q107 82 107 205q0 57 -25 127h133q19 -62 19 -108q0 -102 -41 -170.5t-131 -128.5z" />
<glyph unicode="&#x141;" horiz-adv-x="1075" d="M18 526l31 144l182 69l138 645h180l-121 -571l430 164l-31 -141l-430 -164l-69 -336q-9 -38 -9 -66q0 -116 148 -116h455l-33 -154h-479q-135 0 -204 66.5t-69 177.5q0 40 10 92l56 260z" />
<glyph unicode="&#x142;" horiz-adv-x="616" d="M45 633l27 135l151 66l131 620h166l-114 -541l182 80l-29 -135l-182 -80l-117 -561q-19 -96 68 -96q46 0 98 20l-2 -143q-64 -27 -139 -27q-91 0 -144 49t-53 142q0 21 8 71l99 465z" />
<glyph unicode="&#x143;" horiz-adv-x="1593" d="M74 0l293 1384h161l578 -1118l237 1118h173l-293 -1384h-160l-580 1118l-235 -1118h-174zM879 1524l231 309h184l-280 -309h-135z" />
<glyph unicode="&#x144;" horiz-adv-x="1155" d="M25 0l206 973h158l-35 -178q61 88 160 147t217 59q121 0 189.5 -73.5t68.5 -202.5q0 -51 -12 -113l-131 -612h-166l129 612q10 55 10 88q0 150 -147 150q-91 0 -173.5 -55t-135 -139.5t-72.5 -180.5l-101 -475h-165zM598 1145l231 309h185l-281 -309h-135z" />
<glyph unicode="&#x145;" horiz-adv-x="1593" d="M74 0l293 1384h161l578 -1118l237 1118h173l-293 -1384h-160l-580 1118l-235 -1118h-174zM406 -401q174 50 174 204q0 32 -9 72h142q6 -37 6 -70q0 -110 -72.5 -192.5t-200.5 -112.5z" />
<glyph unicode="&#x146;" horiz-adv-x="1155" d="M25 0l206 973h158l-35 -178q61 88 160 147t217 59q121 0 189.5 -73.5t68.5 -202.5q0 -51 -12 -113l-131 -612h-166l129 612q10 55 10 88q0 150 -147 150q-91 0 -173.5 -55t-135 -139.5t-72.5 -180.5l-101 -475h-165zM180 -401q174 50 174 204q0 36 -8 72h141q7 -44 7 -70 q0 -110 -72.5 -192.5t-200.5 -112.5z" />
<glyph unicode="&#x147;" horiz-adv-x="1593" d="M74 0l293 1384h161l578 -1118l237 1118h173l-293 -1384h-160l-580 1118l-235 -1118h-174zM750 1833h133l98 -188l180 188h150l-275 -309h-139z" />
<glyph unicode="&#x148;" horiz-adv-x="1155" d="M25 0l206 973h158l-35 -178q61 88 160 147t217 59q121 0 189.5 -73.5t68.5 -202.5q0 -51 -12 -113l-131 -612h-166l129 612q10 55 10 88q0 150 -147 150q-91 0 -173.5 -55t-135 -139.5t-72.5 -180.5l-101 -475h-165zM453 1454h133l98 -188l180 188h150l-275 -309h-139z " />
<glyph unicode="&#x14a;" horiz-adv-x="1595" d="M74 0l293 1384h161l576 -1116l239 1116h173l-293 -1390q-41 -198 -139.5 -290.5t-268.5 -92.5q-106 0 -207 45l35 154q84 -41 178 -41q95 0 148.5 55.5t77.5 165.5l6 28l-570 1100l-235 -1118h-174z" />
<glyph unicode="&#x14b;" horiz-adv-x="1155" d="M25 0l206 973h158l-35 -178q61 88 160 147t217 59q147 0 215 -105.5t31 -283.5l-166 -768q-29 -133 -89.5 -197.5t-174.5 -64.5q-81 0 -152 31l33 147q50 -22 113 -22q44 0 69 24t37 82l162 768q50 238 -137 238q-91 0 -173.5 -55t-135 -139.5t-72.5 -180.5l-101 -475 h-165z" />
<glyph unicode="&#x14c;" horiz-adv-x="1669" d="M106 567q0 177 60.5 332t169 268.5t269 179.5t351.5 66q275 0 440 -162t165 -432q0 -183 -61.5 -340t-171.5 -269t-269.5 -175.5t-347.5 -63.5q-275 0 -440 162.5t-165 433.5zM295 573q0 -204 115.5 -324t324.5 -120q189 0 335 89t224 244t78 351q0 203 -115.5 322.5 t-324.5 119.5q-189 0 -335 -89.5t-224 -244t-78 -348.5zM760 1618l26 119h541l-27 -119h-540z" />
<glyph unicode="&#x14d;" horiz-adv-x="1093" d="M57 344q0 143 47.5 267t126 208.5t182 133t214.5 48.5q165 0 250.5 -101.5t85.5 -272.5q0 -142 -47.5 -266t-127 -208.5t-183 -133t-214.5 -48.5q-163 0 -248.5 102t-85.5 271zM225 358q0 -117 51.5 -177t143.5 -60q68 0 134.5 34.5t119.5 96t86 156.5t33 206 q0 117 -51 178.5t-140 61.5q-69 0 -136.5 -35t-121 -97t-86.5 -157.5t-33 -206.5zM397 1241l27 119h541l-27 -119h-541z" />
<glyph unicode="&#x14e;" horiz-adv-x="1669" d="M106 567q0 177 60.5 332t169 268.5t269 179.5t351.5 66q275 0 440 -162t165 -432q0 -183 -61.5 -340t-171.5 -269t-269.5 -175.5t-347.5 -63.5q-275 0 -440 162.5t-165 433.5zM295 573q0 -204 115.5 -324t324.5 -120q189 0 335 89t224 244t78 351q0 203 -115.5 322.5 t-324.5 119.5q-189 0 -335 -89.5t-224 -244t-78 -348.5zM766 1767q0 20 4 56h117q-2 -12 -2 -33q0 -69 34.5 -106t100.5 -37q157 0 186 176h121q-25 -139 -106.5 -216t-214.5 -77q-112 0 -176 64.5t-64 172.5z" />
<glyph unicode="&#x14f;" horiz-adv-x="1093" d="M57 344q0 143 47.5 267t126 208.5t182 133t214.5 48.5q165 0 250.5 -101.5t85.5 -272.5q0 -142 -47.5 -266t-127 -208.5t-183 -133t-214.5 -48.5q-163 0 -248.5 102t-85.5 271zM225 358q0 -117 51.5 -177t143.5 -60q68 0 134.5 34.5t119.5 96t86 156.5t33 206 q0 117 -51 178.5t-140 61.5q-69 0 -136.5 -35t-121 -97t-86.5 -157.5t-33 -206.5zM422 1389q0 19 4 55h117q-2 -12 -2 -33q0 -69 34.5 -106t100.5 -37q157 0 186 176h121q-25 -139 -106.5 -216t-214.5 -77q-111 0 -175.5 65t-64.5 173z" />
<glyph unicode="&#x150;" horiz-adv-x="1669" d="M106 567q0 177 60.5 332t169 268.5t269 179.5t351.5 66q275 0 440 -162t165 -432q0 -183 -61.5 -340t-171.5 -269t-269.5 -175.5t-347.5 -63.5q-275 0 -440 162.5t-165 433.5zM295 573q0 -204 115.5 -324t324.5 -120q189 0 335 89t224 244t78 351q0 203 -115.5 322.5 t-324.5 119.5q-189 0 -335 -89.5t-224 -244t-78 -348.5zM801 1524l188 309h156l-223 -309h-121zM1049 1524l243 309h170l-282 -309h-131z" />
<glyph unicode="&#x151;" horiz-adv-x="1093" d="M57 344q0 143 47.5 267t126 208.5t182 133t214.5 48.5q165 0 250.5 -101.5t85.5 -272.5q0 -142 -47.5 -266t-127 -208.5t-183 -133t-214.5 -48.5q-163 0 -248.5 102t-85.5 271zM225 358q0 -117 51.5 -177t143.5 -60q68 0 134.5 34.5t119.5 96t86 156.5t33 206 q0 117 -51 178.5t-140 61.5q-69 0 -136.5 -35t-121 -97t-86.5 -157.5t-33 -206.5zM444 1145l189 309h155l-223 -309h-121zM692 1145l244 309h170l-283 -309h-131z" />
<glyph unicode="&#x152;" horiz-adv-x="2334" d="M106 565q0 183 62 340t172 269t269 175.5t347 63.5q378 0 494 -287l57 258h828l-33 -155h-643l-94 -438h589l-34 -154h-588l-66 -303q-6 -35 -6 -64q0 -116 148 -116h497l-32 -154h-523q-234 0 -258 201q-220 -230 -581 -230q-275 0 -440 162t-165 432zM295 569 q0 -203 115.5 -321.5t324.5 -118.5q190 0 336 89t223.5 243t77.5 348q0 205 -115 325.5t-325 120.5q-189 0 -334 -87t-224 -243t-79 -356z" />
<glyph unicode="&#x153;" horiz-adv-x="1734" d="M57 344q0 143 47.5 267t126 208.5t182 133t214.5 48.5q234 0 295 -219q77 104 186.5 161.5t232.5 57.5q150 0 229 -66.5t79 -176.5q0 -82 -36 -146t-94 -103.5t-137 -65.5t-157.5 -36t-163.5 -10q-69 0 -127 6q-2 -18 -2 -49q0 -233 225 -233q164 0 303 88l27 -139 q-162 -99 -363 -99q-256 0 -321 215q-77 -102 -184 -158.5t-228 -56.5q-163 0 -248.5 102t-85.5 271zM225 358q0 -117 51.5 -177t143.5 -60q68 0 134.5 34.5t119.5 96t86 156.5t33 206q0 117 -51 178.5t-140 61.5q-69 0 -136.5 -35t-121 -97t-86.5 -157.5t-33 -206.5z M954 532q54 -4 93 -4q74 0 145 10t140.5 32t112 65.5t42.5 103.5q0 55 -40 85t-116 30q-130 0 -234 -85.5t-143 -236.5z" />
<glyph unicode="&#x154;" horiz-adv-x="1300" d="M74 0l293 1384h421q213 0 330 -99t117 -275q0 -192 -122.5 -312.5t-319.5 -154.5l315 -543h-203l-299 520h-239l-113 -520h-180zM397 674h246q86 0 158 19t128.5 57t88 101t31.5 146q0 232 -287 232h-246zM776 1524l232 309h184l-281 -309h-135z" />
<glyph unicode="&#x155;" horiz-adv-x="776" d="M25 0l206 973h160l-45 -219q54 98 168.5 172.5t245.5 74.5l-39 -180q-154 0 -277.5 -106t-164.5 -299l-89 -416h-165zM408 1145l231 309h184l-280 -309h-135z" />
<glyph unicode="&#x156;" horiz-adv-x="1300" d="M74 0l293 1384h421q213 0 330 -99t117 -275q0 -192 -122.5 -312.5t-319.5 -154.5l315 -543h-203l-299 520h-239l-113 -520h-180zM281 -401q174 50 174 204q0 32 -9 72h142q6 -37 6 -70q0 -110 -72 -192.5t-200 -112.5zM397 674h246q86 0 158 19t128.5 57t88 101t31.5 146 q0 232 -287 232h-246z" />
<glyph unicode="&#x157;" horiz-adv-x="776" d="M-158 -401q174 50 174 204q0 36 -8 72h142q6 -37 6 -70q0 -110 -72.5 -192.5t-200.5 -112.5zM25 0l206 973h160l-45 -219q54 98 168.5 172.5t245.5 74.5l-39 -180q-154 0 -277.5 -106t-164.5 -299l-89 -416h-165z" />
<glyph unicode="&#x158;" horiz-adv-x="1300" d="M74 0l293 1384h421q213 0 330 -99t117 -275q0 -192 -122.5 -312.5t-319.5 -154.5l315 -543h-203l-299 520h-239l-113 -520h-180zM397 674h246q86 0 158 19t128.5 57t88 101t31.5 146q0 232 -287 232h-246zM641 1833h133l98 -188l181 188h149l-274 -309h-140z" />
<glyph unicode="&#x159;" horiz-adv-x="776" d="M25 0l206 973h160l-45 -219q54 98 168.5 172.5t245.5 74.5l-39 -180q-154 0 -277.5 -106t-164.5 -299l-89 -416h-165zM309 1454h133l99 -188l180 188h149l-274 -309h-139z" />
<glyph unicode="&#x15a;" horiz-adv-x="1140" d="M12 68l35 161q77 -44 178 -72t207 -28q65 0 121 13.5t102.5 41t73.5 76.5t27 115q0 55 -31 99.5t-80.5 76t-109.5 61.5t-120.5 64.5t-110 77t-80.5 107.5t-31 147q0 98 43 176.5t117 127.5t168.5 75t201.5 26q219 0 350 -67l-37 -160q-131 69 -315 69q-65 0 -123 -13 t-108 -40t-79.5 -75.5t-29.5 -112.5q0 -53 31 -96t81 -74.5t110.5 -62t120.5 -65.5t110 -77.5t81 -106.5t31 -143q0 -86 -28.5 -157t-77.5 -119t-116 -80.5t-141.5 -47t-156.5 -14.5q-118 0 -227.5 27t-186.5 70zM639 1524l231 309h185l-281 -309h-135z" />
<glyph unicode="&#x15b;" horiz-adv-x="876" d="M-18 59l28 144q56 -39 138.5 -62.5t158.5 -23.5q91 0 147 34t56 107q0 41 -22 73.5t-57 55t-77 43t-84.5 44t-77.5 51.5t-57 71t-22 98q0 76 32.5 136t88.5 96.5t126.5 55.5t151.5 19q153 0 262 -53l-31 -147q-98 53 -247 53q-94 0 -153.5 -33t-59.5 -106q0 -33 22 -59 t57 -45.5t77.5 -39.5t85.5 -44.5t78 -55t57 -78.5t22 -108q0 -80 -32.5 -142t-87.5 -98.5t-123 -55t-144 -18.5q-88 0 -172 23.5t-141 64.5zM401 1145l232 309h184l-280 -309h-136z" />
<glyph unicode="&#x15c;" horiz-adv-x="1140" d="M12 68l35 161q77 -44 178 -72t207 -28q65 0 121 13.5t102.5 41t73.5 76.5t27 115q0 55 -31 99.5t-80.5 76t-109.5 61.5t-120.5 64.5t-110 77t-80.5 107.5t-31 147q0 98 43 176.5t117 127.5t168.5 75t201.5 26q219 0 350 -67l-37 -160q-131 69 -315 69q-65 0 -123 -13 t-108 -40t-79.5 -75.5t-29.5 -112.5q0 -53 31 -96t81 -74.5t110.5 -62t120.5 -65.5t110 -77.5t81 -106.5t31 -143q0 -86 -28.5 -157t-77.5 -119t-116 -80.5t-141.5 -47t-156.5 -14.5q-118 0 -227.5 27t-186.5 70zM438 1524l275 309h139l147 -309h-127l-104 196l-182 -196 h-148z" />
<glyph unicode="&#x15d;" horiz-adv-x="876" d="M-18 59l28 144q56 -39 138.5 -62.5t158.5 -23.5q91 0 147 34t56 107q0 41 -22 73.5t-57 55t-77 43t-84.5 44t-77.5 51.5t-57 71t-22 98q0 76 32.5 136t88.5 96.5t126.5 55.5t151.5 19q153 0 262 -53l-31 -147q-98 53 -247 53q-94 0 -153.5 -33t-59.5 -106q0 -33 22 -59 t57 -45.5t77.5 -39.5t85.5 -44.5t78 -55t57 -78.5t22 -108q0 -80 -32.5 -142t-87.5 -98.5t-123 -55t-144 -18.5q-88 0 -172 23.5t-141 64.5zM203 1145l274 309h139l148 -309h-127l-105 196l-182 -196h-147z" />
<glyph unicode="&#x15e;" horiz-adv-x="1140" d="M12 68l35 161q77 -44 178 -72t207 -28q65 0 121 13.5t102.5 41t73.5 76.5t27 115q0 55 -31 99.5t-80.5 76t-109.5 61.5t-120.5 64.5t-110 77t-80.5 107.5t-31 147q0 98 43 176.5t117 127.5t168.5 75t201.5 26q219 0 350 -67l-37 -160q-131 69 -315 69q-65 0 -123 -13 t-108 -40t-79.5 -75.5t-29.5 -112.5q0 -53 31 -96t81 -74.5t110.5 -62t120.5 -65.5t110 -77.5t81 -106.5t31 -143q0 -99 -36.5 -176.5t-100.5 -126.5t-143.5 -76.5t-173.5 -34.5l-29 -88q60 -11 99.5 -48.5t39.5 -98.5q0 -86 -62.5 -132t-154.5 -46q-80 0 -141 28l32 105 q51 -23 101 -23q39 0 62.5 16t23.5 46q0 71 -144 82l60 157q-212 9 -367 95z" />
<glyph unicode="&#x15f;" horiz-adv-x="876" d="M-18 59l28 144q56 -39 138.5 -62.5t158.5 -23.5q91 0 147 34t56 107q0 41 -22 73.5t-57 55t-77 43t-84.5 44t-77.5 51.5t-57 71t-22 98q0 76 32.5 136t88.5 96.5t126.5 55.5t151.5 19q153 0 262 -53l-31 -147q-98 53 -247 53q-94 0 -153.5 -33t-59.5 -106q0 -33 22 -59 t57 -45.5t77.5 -39.5t85.5 -44.5t78 -55t57 -78.5t22 -108q0 -94 -45.5 -162.5t-115 -102.5t-159.5 -45l-30 -88q60 -11 99.5 -48.5t39.5 -98.5q0 -86 -62.5 -132t-154.5 -46q-80 0 -141 28l32 105q51 -23 101 -23q39 0 62.5 16t23.5 46q0 71 -144 82l60 157 q-163 10 -266 86z" />
<glyph unicode="&#x160;" horiz-adv-x="1140" d="M12 68l35 161q77 -44 178 -72t207 -28q65 0 121 13.5t102.5 41t73.5 76.5t27 115q0 55 -31 99.5t-80.5 76t-109.5 61.5t-120.5 64.5t-110 77t-80.5 107.5t-31 147q0 98 43 176.5t117 127.5t168.5 75t201.5 26q219 0 350 -67l-37 -160q-131 69 -315 69q-65 0 -123 -13 t-108 -40t-79.5 -75.5t-29.5 -112.5q0 -53 31 -96t81 -74.5t110.5 -62t120.5 -65.5t110 -77.5t81 -106.5t31 -143q0 -86 -28.5 -157t-77.5 -119t-116 -80.5t-141.5 -47t-156.5 -14.5q-118 0 -227.5 27t-186.5 70zM508 1833h133l98 -188l181 188h149l-274 -309h-140z" />
<glyph unicode="&#x161;" horiz-adv-x="876" d="M-18 59l28 144q56 -39 138.5 -62.5t158.5 -23.5q91 0 147 34t56 107q0 41 -22 73.5t-57 55t-77 43t-84.5 44t-77.5 51.5t-57 71t-22 98q0 76 32.5 136t88.5 96.5t126.5 55.5t151.5 19q153 0 262 -53l-31 -147q-98 53 -247 53q-94 0 -153.5 -33t-59.5 -106q0 -33 22 -59 t57 -45.5t77.5 -39.5t85.5 -44.5t78 -55t57 -78.5t22 -108q0 -80 -32.5 -142t-87.5 -98.5t-123 -55t-144 -18.5q-88 0 -172 23.5t-141 64.5zM285 1454h133l98 -188l180 188h150l-275 -309h-139z" />
<glyph unicode="&#x162;" horiz-adv-x="1196" d="M152 1229l32 155h1116l-30 -155h-469l-260 -1229h-181l261 1229h-469zM184 -401q174 50 174 204q0 36 -8 72h142q6 -37 6 -70q0 -110 -72.5 -192.5t-200.5 -112.5z" />
<glyph unicode="&#x163;" horiz-adv-x="718" d="M14 -401q174 50 174 204q0 36 -8 72h142q6 -37 6 -70q0 -110 -72.5 -192.5t-200.5 -112.5zM72 836l28 137h142l86 309h145l-65 -309h288l-28 -137h-289l-117 -549q-6 -27 -6 -54q0 -110 121 -110q35 0 82 12.5t78 28.5v-150q-87 -43 -191 -43q-111 0 -184.5 60t-73.5 176 q0 41 8 82l115 547h-139z" />
<glyph unicode="&#x164;" horiz-adv-x="1196" d="M152 1229l32 155h1116l-30 -155h-469l-260 -1229h-181l261 1229h-469zM557 1833h133l98 -188l181 188h149l-274 -309h-139z" />
<glyph unicode="&#x165;" horiz-adv-x="718" d="M72 836l28 137h142l86 309h145l-65 -309h288l-28 -137h-289l-117 -549q-6 -27 -6 -54q0 -110 121 -110q35 0 82 12.5t78 28.5v-150q-87 -43 -191 -43q-111 0 -184.5 60t-73.5 176q0 41 8 82l115 547h-139zM567 1151q107 79 107 205q0 57 -25 127h133q21 -65 21 -123 q-1 -93 -43.5 -160t-128.5 -125z" />
<glyph unicode="&#x166;" horiz-adv-x="1198" d="M133 639l29 129h362l97 461h-469l32 155h1116l-30 -155h-469l-96 -461h356l-27 -129h-358l-135 -639h-181l136 639h-363z" />
<glyph unicode="&#x167;" horiz-adv-x="796" d="M47 461l27 125h137l53 250h-139l29 137h141l86 309h145l-65 -309h289l-29 -137h-289l-53 -250h252l-25 -125h-254l-37 -174q-6 -27 -6 -54q0 -110 121 -110q35 0 82 12.5t78 28.5v-150q-87 -43 -191 -43q-111 0 -184.5 60t-73.5 176q0 36 9 82l34 172h-137z" />
<glyph unicode="&#x168;" horiz-adv-x="1427" d="M133 367q0 57 10 108l193 909h180l-190 -895q-13 -63 -13 -110q0 -125 75 -187.5t208 -62.5q161 0 274.5 89.5t151.5 270.5l190 895h179l-193 -897q-55 -254 -218 -384t-415 -130q-196 0 -314 104.5t-118 289.5zM586 1550q9 114 63.5 183t147.5 69q41 0 77 -20t58 -43.5 t50.5 -43.5t55.5 -20q77 0 82 123h119q-11 -118 -65.5 -185t-153.5 -67q-36 0 -71.5 21t-59.5 45.5t-53.5 45.5t-53.5 21q-32 0 -53 -32t-24 -97h-119z" />
<glyph unicode="&#x169;" horiz-adv-x="1177" d="M74 248q0 42 14 114l129 611h166l-131 -617q-10 -52 -10 -86q0 -149 135 -149q88 0 170.5 55.5t136.5 141t74 180.5l100 475h164l-156 -744q-6 -24 -6 -43q0 -61 64 -61q47 0 90 18l-2 -145q-60 -27 -140 -27q-79 0 -124.5 43.5t-45.5 118.5q0 7 5 47 q-57 -90 -154 -149.5t-215 -59.5q-120 0 -192 73.5t-72 203.5zM367 1174q9 114 63.5 182.5t147.5 68.5q41 0 77 -20t58 -43.5t50.5 -43.5t55.5 -20q77 0 82 123h119q-11 -118 -65.5 -185t-153.5 -67q-36 0 -71.5 21t-59.5 46t-53.5 46t-53.5 21q-33 0 -54 -32t-24 -97h-118z " />
<glyph unicode="&#x16a;" horiz-adv-x="1427" d="M133 367q0 57 10 108l193 909h180l-190 -895q-13 -63 -13 -110q0 -125 75 -187.5t208 -62.5q161 0 274.5 89.5t151.5 270.5l190 895h179l-193 -897q-55 -254 -218 -384t-415 -130q-196 0 -314 104.5t-118 289.5zM639 1618l27 119h540l-26 -119h-541z" />
<glyph unicode="&#x16b;" horiz-adv-x="1177" d="M74 248q0 42 14 114l129 611h166l-131 -617q-10 -52 -10 -86q0 -149 135 -149q88 0 170.5 55.5t136.5 141t74 180.5l100 475h164l-156 -744q-6 -24 -6 -43q0 -61 64 -61q47 0 90 18l-2 -145q-60 -27 -140 -27q-79 0 -124.5 43.5t-45.5 118.5q0 7 5 47 q-57 -90 -154 -149.5t-215 -59.5q-120 0 -192 73.5t-72 203.5zM414 1241l26 119h541l-27 -119h-540z" />
<glyph unicode="&#x16c;" horiz-adv-x="1427" d="M133 367q0 57 10 108l193 909h180l-190 -895q-13 -63 -13 -110q0 -125 75 -187.5t208 -62.5q161 0 274.5 89.5t151.5 270.5l190 895h179l-193 -897q-55 -254 -218 -384t-415 -130q-196 0 -314 104.5t-118 289.5zM664 1765q0 20 4 56h116q-2 -12 -2 -33q0 -69 35 -106 t101 -37q157 0 186 176h121q-25 -139 -107 -216t-215 -77q-111 0 -175 64.5t-64 172.5z" />
<glyph unicode="&#x16d;" horiz-adv-x="1177" d="M74 248q0 42 14 114l129 611h166l-131 -617q-10 -52 -10 -86q0 -149 135 -149q88 0 170.5 55.5t136.5 141t74 180.5l100 475h164l-156 -744q-6 -24 -6 -43q0 -61 64 -61q47 0 90 18l-2 -145q-60 -27 -140 -27q-79 0 -124.5 43.5t-45.5 118.5q0 7 5 47 q-57 -90 -154 -149.5t-215 -59.5q-120 0 -192 73.5t-72 203.5zM424 1389q0 19 4 55h117q-2 -12 -2 -33q0 -69 34.5 -106t100.5 -37q157 0 186 176h121q-25 -139 -106.5 -216t-214.5 -77q-111 0 -175.5 65t-64.5 173z" />
<glyph unicode="&#x16e;" horiz-adv-x="1427" d="M133 367q0 57 10 108l193 909h180l-190 -895q-13 -63 -13 -110q0 -125 75 -187.5t208 -62.5q161 0 274.5 89.5t151.5 270.5l190 895h179l-193 -897q-55 -254 -218 -384t-415 -130q-196 0 -314 104.5t-118 289.5zM702 1659q0 92 71.5 147.5t170.5 55.5q84 0 139.5 -43 t55.5 -121q0 -92 -71.5 -148.5t-168.5 -56.5q-84 0 -140.5 44t-56.5 122zM811 1661q0 -37 27 -58.5t71 -21.5q55 0 88 31t33 84q0 37 -26 57.5t-70 20.5q-56 0 -89.5 -30t-33.5 -83z" />
<glyph unicode="&#x16f;" horiz-adv-x="1177" d="M74 248q0 42 14 114l129 611h166l-131 -617q-10 -52 -10 -86q0 -149 135 -149q88 0 170.5 55.5t136.5 141t74 180.5l100 475h164l-156 -744q-6 -24 -6 -43q0 -61 64 -61q47 0 90 18l-2 -145q-60 -27 -140 -27q-79 0 -124.5 43.5t-45.5 118.5q0 7 5 47 q-57 -90 -154 -149.5t-215 -59.5q-120 0 -192 73.5t-72 203.5zM477 1280q0 92 71.5 147.5t170.5 55.5q84 0 139 -43t55 -121q0 -92 -71 -148.5t-168 -56.5q-84 0 -140.5 44t-56.5 122zM586 1282q0 -37 27 -58.5t71 -21.5q55 0 88 31t33 84q0 37 -26 57.5t-70 20.5 q-56 0 -89.5 -30t-33.5 -83z" />
<glyph unicode="&#x170;" horiz-adv-x="1427" d="M133 367q0 57 10 108l193 909h180l-190 -895q-13 -63 -13 -110q0 -125 75 -187.5t208 -62.5q161 0 274.5 89.5t151.5 270.5l190 895h179l-193 -897q-55 -254 -218 -384t-415 -130q-196 0 -314 104.5t-118 289.5zM686 1524l188 309h156l-223 -309h-121zM934 1524l244 309 h170l-283 -309h-131z" />
<glyph unicode="&#x171;" horiz-adv-x="1177" d="M74 248q0 42 14 114l129 611h166l-131 -617q-10 -52 -10 -86q0 -149 135 -149q88 0 170.5 55.5t136.5 141t74 180.5l100 475h164l-156 -744q-6 -24 -6 -43q0 -61 64 -61q47 0 90 18l-2 -145q-60 -27 -140 -27q-79 0 -124.5 43.5t-45.5 118.5q0 7 5 47 q-57 -90 -154 -149.5t-215 -59.5q-120 0 -192 73.5t-72 203.5zM444 1145l189 309h155l-223 -309h-121zM692 1145l244 309h170l-283 -309h-131z" />
<glyph unicode="&#x172;" horiz-adv-x="1427" d="M133 367q0 57 10 108l193 909h180l-190 -895q-13 -63 -13 -110q0 -125 75 -187.5t208 -62.5q161 0 274.5 89.5t151.5 270.5l190 895h179l-193 -897q-49 -227 -185.5 -354.5t-346.5 -152.5q-164 -118 -164 -226q0 -61 78 -61q64 0 110 31q2 -39 2 -115q-69 -37 -147 -37 q-77 0 -127.5 37t-50.5 119q0 71 46 137t113 110q-181 11 -287 113.5t-106 278.5z" />
<glyph unicode="&#x173;" horiz-adv-x="1177" d="M74 248q0 42 14 114l129 611h166l-131 -617q-10 -52 -10 -86q0 -149 135 -149q88 0 170.5 55.5t136.5 141t74 180.5l100 475h164l-156 -744q-6 -24 -6 -43q0 -61 64 -61q47 0 90 18l-2 -145q-48 -19 -107 -25q-155 -114 -155 -219q0 -61 77 -61q64 0 111 31l2 -115 q-69 -37 -147 -37q-77 0 -128 37t-51 119q0 77 53 147t126 111q-91 37 -91 147q0 7 5 47q-57 -90 -154 -149.5t-215 -59.5q-120 0 -192 73.5t-72 203.5z" />
<glyph unicode="&#x174;" horiz-adv-x="2025" d="M156 1384h182l90 -1153l619 1153h198l137 -1153l576 1153h188l-690 -1384h-215l-137 1153l-623 -1153h-217zM893 1524l274 309h140l147 -309h-127l-104 196l-183 -196h-147z" />
<glyph unicode="&#x175;" horiz-adv-x="1595" d="M76 973h168l80 -772l436 772h166l114 -772l412 772h174l-528 -973h-170l-117 780l-449 -780h-172zM588 1145l274 309h139l148 -309h-127l-104 196l-183 -196h-147z" />
<glyph unicode="&#x176;" horiz-adv-x="1198" d="M131 1384h195l264 -663l543 663h196l-686 -829l-117 -555h-180l117 555zM471 1524l274 309h140l147 -309h-127l-104 196l-183 -196h-147z" />
<glyph unicode="&#x177;" horiz-adv-x="1136" d="M-16 -338l34 150q54 -33 130.5 -56.5t158.5 -23.5q283 0 348 288l31 134q-61 -80 -151 -131.5t-197 -51.5q-120 0 -192 73.5t-72 203.5q0 42 14 114l129 611h166l-131 -617q-10 -52 -10 -86q0 -149 135 -149q88 0 170.5 55.5t136.5 141t74 180.5l100 475h164l-199 -946 q-45 -215 -188.5 -330t-349.5 -115q-176 0 -301 80zM377 1145l274 309h140l147 -309h-127l-104 196l-183 -196h-147z" />
<glyph unicode="&#x178;" horiz-adv-x="1198" d="M131 1384h195l264 -663l543 663h196l-686 -829l-117 -555h-180l117 555zM520 1583l43 197h154l-43 -197h-154zM879 1583l41 197h153l-41 -197h-153z" />
<glyph unicode="&#x179;" horiz-adv-x="1243" d="M-49 0l29 141l1011 1088h-803l33 155h1030l-30 -143l-1004 -1087h821l-32 -154h-1055zM653 1524l232 309h184l-281 -309h-135z" />
<glyph unicode="&#x17a;" horiz-adv-x="956" d="M-47 0l24 117l662 712h-533l31 144h750l-25 -119l-661 -711h551l-31 -143h-768zM451 1145l231 309h184l-280 -309h-135z" />
<glyph unicode="&#x17b;" horiz-adv-x="1243" d="M-49 0l29 141l1011 1088h-803l33 155h1030l-30 -143l-1004 -1087h821l-32 -154h-1055zM659 1577l41 197h162l-41 -197h-162z" />
<glyph unicode="&#x17c;" horiz-adv-x="956" d="M-47 0l24 117l662 712h-533l31 144h750l-25 -119l-661 -711h551l-31 -143h-768zM459 1206l41 197h162l-41 -197h-162z" />
<glyph unicode="&#x17d;" horiz-adv-x="1243" d="M-49 0l29 141l1011 1088h-803l33 155h1030l-30 -143l-1004 -1087h821l-32 -154h-1055zM516 1833h133l99 -188l180 188h149l-274 -309h-139z" />
<glyph unicode="&#x17e;" horiz-adv-x="956" d="M-47 0l24 117l662 712h-533l31 144h750l-25 -119l-661 -711h551l-31 -143h-768zM317 1454h134l98 -188l180 188h150l-275 -309h-139z" />
<glyph unicode="&#x17f;" horiz-adv-x="641" d="M-231 -387l32 147q49 -22 113 -22q44 0 69 24t37 82l211 992h-139l29 137h139l43 194q72 316 387 316q71 0 129 -21l-33 -153q-43 22 -108 22q-81 0 -139.5 -49t-79.5 -149l-275 -1289q-29 -133 -89.5 -197.5t-174.5 -64.5q-80 0 -151 31z" />
<glyph unicode="&#x192;" d="M139 641l25 125h190l47 219q45 214 179.5 321t349.5 107q139 0 244 -51l-33 -156q-91 49 -234 49q-80 0 -144.5 -24.5t-115.5 -86t-72 -157.5l-47 -221h455l-27 -125h-454l-135 -641h-177l138 641h-189z" />
<glyph unicode="&#x1fa;" horiz-adv-x="1282" d="M-154 0l844 1384h180l258 -1384h-184l-63 342h-641l-203 -342h-191zM334 496h520l-119 665zM623 1659q0 80 55.5 133t138.5 66l193 260h180l-250 -267q54 -16 86.5 -55.5t32.5 -97.5q0 -92 -71.5 -148.5t-168.5 -56.5q-84 0 -140 44t-56 122zM731 1661q0 -37 27 -58.5 t71 -21.5q55 0 88 31t33 84q0 37 -26 57.5t-70 20.5q-56 0 -89.5 -30t-33.5 -83z" />
<glyph unicode="&#x1fb;" horiz-adv-x="1157" d="M49 299q0 204 85.5 365t235 249t335.5 88q166 0 296 -59l-153 -713q-6 -24 -6 -43q0 -61 63 -61q47 0 90 18l-2 -145q-60 -27 -139 -27t-124.5 43.5t-45.5 118.5q0 15 4 47q-55 -88 -152.5 -148.5t-207.5 -60.5q-136 0 -207.5 87t-71.5 241zM219 319q0 -98 39 -146 t121 -48q131 0 229.5 111t132.5 270l70 328q-64 20 -139 20q-192 0 -322.5 -152.5t-130.5 -382.5zM496 1278q0 81 56 135.5t138 65.5l191 258h182l-248 -267q53 -16 85 -54.5t32 -96.5q0 -93 -71.5 -149t-168.5 -56q-83 0 -139.5 43.5t-56.5 120.5zM604 1280q0 -36 27 -57 t71 -21q55 0 88 30t33 85q0 37 -26 57.5t-70 20.5q-56 0 -89.5 -30t-33.5 -85z" />
<glyph unicode="&#x1fc;" horiz-adv-x="1841" d="M-217 0l1106 1384h936l-33 -155h-645l-92 -438h587l-32 -154h-590l-62 -303q-8 -46 -8 -64q0 -116 148 -116h497l-32 -154h-525q-135 0 -203.5 66t-68.5 178q0 41 14 98h-522l-270 -342h-205zM379 496h432l152 725zM1061 1524l231 309h185l-281 -309h-135z" />
<glyph unicode="&#x1fd;" horiz-adv-x="1601" d="M49 299q0 204 85.5 365t235 249t335.5 88q142 0 266 -53q112 53 237 53q150 0 229 -66.5t79 -176.5q0 -82 -36 -146t-94 -103.5t-137 -65.5t-157.5 -36t-163.5 -10q-68 0 -127 6q-2 -18 -2 -49q0 -233 225 -233q164 0 303 88l27 -139q-162 -99 -363 -99 q-109 0 -188.5 40.5t-122.5 115.5q-60 -69 -153.5 -112.5t-198.5 -43.5q-136 0 -207.5 87t-71.5 241zM219 319q0 -98 39 -146t121 -48q146 0 256 143q-4 20 -4 66q0 300 188 497q-76 23 -147 23q-192 0 -322.5 -152.5t-130.5 -382.5zM821 532q54 -4 92 -4q74 0 145 10 t141 32t112.5 65.5t42.5 103.5q0 55 -40 85t-116 30q-130 0 -234 -85.5t-143 -236.5zM877 1145l231 309h184l-280 -309h-135z" />
<glyph unicode="&#x1fe;" horiz-adv-x="1669" d="M55 -25l187 189q-136 161 -136 401q0 183 61.5 340t171.5 269t269.5 175.5t347.5 63.5q231 0 392 -123l186 191l72 -76l-183 -184q138 -164 138 -404q0 -177 -60.5 -332t-169 -268.5t-269 -179.5t-351.5 -66q-239 0 -394 121l-190 -194zM295 571q0 -164 78 -274l850 866 q-112 92 -291 92q-190 0 -335 -87t-223.5 -242.5t-78.5 -354.5zM440 219q113 -90 295 -90q189 0 335 89.5t224 244t78 348.5q0 163 -80 276zM913 1524l232 309h184l-280 -309h-136z" />
<glyph unicode="&#x1ff;" horiz-adv-x="1093" d="M-12 -25l125 138q-56 92 -56 231q0 143 47.5 267t126 208.5t182 133t214.5 48.5q135 0 219 -71l121 133l67 -66l-127 -139q56 -95 56 -231q0 -142 -47.5 -266t-127 -208.5t-183 -133t-214.5 -48.5q-131 0 -217 70l-119 -131zM225 358q0 -57 13 -104l495 549 q-51 51 -131 51q-69 0 -136.5 -35t-121 -97t-86.5 -157.5t-33 -206.5zM287 168q47 -47 133 -47q68 0 134.5 34.5t119.5 96t86 156.5t33 206q0 53 -13 103zM543 1145l231 309h184l-280 -309h-135z" />
<glyph unicode="&#x218;" horiz-adv-x="1140" d="M12 68l35 161q77 -44 178 -72t207 -28q65 0 121 13.5t102.5 41t73.5 76.5t27 115q0 55 -31 99.5t-80.5 76t-109.5 61.5t-120.5 64.5t-110 77t-80.5 107.5t-31 147q0 98 43 176.5t117 127.5t168.5 75t201.5 26q219 0 350 -67l-37 -160q-131 69 -315 69q-65 0 -123 -13 t-108 -40t-79.5 -75.5t-29.5 -112.5q0 -53 31 -96t81 -74.5t110.5 -62t120.5 -65.5t110 -77.5t81 -106.5t31 -143q0 -86 -28.5 -157t-77.5 -119t-116 -80.5t-141.5 -47t-156.5 -14.5q-118 0 -227.5 27t-186.5 70zM244 -401q174 50 174 204q0 36 -8 72h141q6 -37 6 -70 q0 -110 -72 -192.5t-200 -112.5z" />
<glyph unicode="&#x219;" horiz-adv-x="876" d="M-18 59l28 144q56 -39 138.5 -62.5t158.5 -23.5q91 0 147 34t56 107q0 41 -22 73.5t-57 55t-77 43t-84.5 44t-77.5 51.5t-57 71t-22 98q0 76 32.5 136t88.5 96.5t126.5 55.5t151.5 19q153 0 262 -53l-31 -147q-98 53 -247 53q-94 0 -153.5 -33t-59.5 -106q0 -33 22 -59 t57 -45.5t77.5 -39.5t85.5 -44.5t78 -55t57 -78.5t22 -108q0 -80 -32.5 -142t-87.5 -98.5t-123 -55t-144 -18.5q-88 0 -172 23.5t-141 64.5zM104 -401q175 50 175 204q0 32 -9 72h142q6 -37 6 -70q0 -110 -72.5 -192.5t-200.5 -112.5z" />
<glyph unicode="&#x2c6;" horiz-adv-x="1044" d="M207 1145l274 309h140l147 -309h-127l-104 196l-183 -196h-147z" />
<glyph unicode="&#x2c7;" horiz-adv-x="1044" d="M274 1454h134l98 -188l180 188h150l-275 -309h-139z" />
<glyph unicode="&#x2d8;" horiz-adv-x="1044" d="M260 1389q0 19 4 55h117q-2 -12 -2 -33q0 -69 34.5 -106t100.5 -37q157 0 186 176h121q-25 -139 -106.5 -216t-214.5 -77q-111 0 -175.5 65t-64.5 173z" />
<glyph unicode="&#x2d9;" horiz-adv-x="1044" d="M418 1206l41 197h162l-41 -197h-162z" />
<glyph unicode="&#x2da;" horiz-adv-x="1044" d="M301 1280q0 92 71.5 147.5t170.5 55.5q84 0 139 -43t55 -121q0 -92 -71 -148.5t-168 -56.5q-84 0 -140.5 44t-56.5 122zM410 1282q0 -37 27 -58.5t71 -21.5q55 0 88 31t33 84q0 37 -26.5 57.5t-70.5 20.5q-56 0 -89 -30t-33 -83z" />
<glyph unicode="&#x2db;" horiz-adv-x="1044" d="M305 -272q0 85 64 160t143 112h123q-195 -132 -195 -246q0 -61 78 -61q64 0 111 31q2 -39 2 -115q-69 -37 -148 -37q-77 0 -127.5 37t-50.5 119z" />
<glyph unicode="&#x2dc;" horiz-adv-x="1044" d="M188 1174q9 114 63.5 182.5t147.5 68.5q41 0 77.5 -20t58.5 -43.5t50.5 -43.5t55.5 -20q77 0 82 123h119q-11 -118 -65.5 -185t-153.5 -67q-36 0 -71.5 21t-59.5 46t-53.5 46t-53.5 21q-33 0 -54 -32t-24 -97h-119z" />
<glyph unicode="&#x2dd;" horiz-adv-x="1044" d="M217 1145l189 309h155l-223 -309h-121zM465 1145l244 309h170l-283 -309h-131z" />
<glyph unicode="&#x384;" horiz-adv-x="1044" d="M330 1145l231 309h184l-280 -309h-135z" />
<glyph unicode="&#x385;" horiz-adv-x="1044" d="M172 1204l43 199h154l-41 -199h-156zM356 1145l211 309h166l-254 -309h-123zM711 1204l41 199h155l-43 -199h-153z" />
<glyph unicode="&#x386;" horiz-adv-x="1282" d="M-154 0l844 1384h180l258 -1384h-184l-63 342h-641l-203 -342h-191zM156 1075l135 309h180l-170 -309h-145zM334 496h520l-119 665z" />
<glyph unicode="&#x388;" horiz-adv-x="1282" d="M27 1075l133 309h182l-170 -309h-145zM209 244q0 42 29 172l202 968h828l-33 -155h-645l-92 -438h587l-32 -154h-590l-62 -303q-8 -46 -8 -64q0 -116 148 -116h497l-32 -154h-525q-135 0 -203.5 66t-68.5 178z" />
<glyph unicode="&#x389;" horiz-adv-x="1660" d="M0 1075l133 309h182l-170 -309h-145zM125 0l295 1384h180l-125 -589h803l123 589h180l-293 -1384h-180l135 637h-803l-135 -637h-180z" />
<glyph unicode="&#x38a;" horiz-adv-x="669" d="M0 1075l133 309h180l-168 -309h-145zM117 0l293 1384h180l-293 -1384h-180z" />
<glyph unicode="&#x38c;" horiz-adv-x="1712" d="M0 1075l133 309h180l-168 -309h-145zM150 567q0 177 60 332t168.5 268.5t269 179.5t351.5 66q275 0 440 -162t165 -432q0 -183 -61.5 -340t-171.5 -269t-269.5 -175.5t-347.5 -63.5q-275 0 -439.5 162t-164.5 434zM338 573q0 -204 115.5 -324t324.5 -120q189 0 335 89 t224 244t78 351q0 203 -115.5 322.5t-324.5 119.5q-189 0 -335 -89.5t-224 -244t-78 -348.5z" />
<glyph unicode="&#x38e;" horiz-adv-x="1419" d="M2 1075l133 309h182l-170 -309h-145zM352 1384h195l264 -663l543 663h196l-686 -829l-116 -555h-181l117 555z" />
<glyph unicode="&#x38f;" horiz-adv-x="1724" d="M0 1075l133 309h180l-170 -309h-143zM72 0l32 154h312q-110 74 -175 201t-65 280q0 167 60 310.5t167.5 246t264.5 161t344 58.5q288 0 453 -155t165 -418q0 -226 -124 -411t-314 -273h285l-35 -154h-602l30 141q111 30 211 89.5t180 143.5t127.5 199t47.5 244 q0 203 -118 320.5t-335 117.5q-281 0 -451 -173.5t-170 -454.5q0 -163 82 -286t220 -202l-31 -139h-561z" />
<glyph unicode="&#x390;" horiz-adv-x="550" d="M23 1204l43 199h153l-41 -199h-155zM63 162q0 15 9 71l157 740h166l-159 -756q-5 -30 -5 -33q0 -63 72 -63q46 0 98 20l-2 -143q-65 -27 -139 -27q-91 0 -144 49t-53 142zM207 1145l211 309h166l-254 -309h-123zM561 1204l41 199h156l-43 -199h-154z" />
<glyph unicode="&#x391;" horiz-adv-x="1282" d="M-154 0l844 1384h180l258 -1384h-184l-63 342h-641l-203 -342h-191zM334 496h520l-119 665z" />
<glyph unicode="&#x392;" horiz-adv-x="1271" d="M74 0l293 1384h385q213 0 331.5 -86t118.5 -241q0 -65 -21.5 -120.5t-54.5 -94t-78.5 -68.5t-88.5 -47.5t-89 -28.5q42 -10 80 -30t73 -52t56 -81.5t21 -110.5q0 -206 -171 -315t-464 -109h-391zM285 154h211q118 0 208 26t146.5 85.5t56.5 146.5q0 106 -77 161.5 t-232 55.5h-213zM418 778h205q170 0 278.5 67t108.5 195q0 99 -71.5 144t-219.5 45h-205z" />
<glyph unicode="&#x393;" horiz-adv-x="980" d="M74 0l293 1384h718l-32 -155h-539l-260 -1229h-180z" />
<glyph unicode="&#x394;" horiz-adv-x="1243" d="M-111 0l29 131l764 1253h180l234 -1251l-27 -133h-1180zM121 154h784l-178 1005z" />
<glyph unicode="&#x395;" horiz-adv-x="1189" d="M117 244q0 46 28 172l203 968h828l-33 -155h-645l-92 -438h587l-32 -154h-590l-62 -303q-8 -46 -8 -64q0 -116 148 -116h497l-33 -154h-524q-135 0 -203.5 66t-68.5 178z" />
<glyph unicode="&#x396;" horiz-adv-x="1243" d="M-49 0l29 141l1011 1088h-803l33 155h1030l-30 -143l-1004 -1087h821l-32 -154h-1055z" />
<glyph unicode="&#x397;" horiz-adv-x="1607" d="M72 0l295 1384h180l-125 -589h803l123 589h180l-293 -1384h-180l135 637h-803l-135 -637h-180z" />
<glyph unicode="&#x398;" horiz-adv-x="1669" d="M106 567q0 177 60.5 332t169 268.5t269 179.5t351.5 66q275 0 440 -162t165 -432q0 -183 -61.5 -340t-171.5 -269t-269.5 -175.5t-347.5 -63.5q-275 0 -440 162.5t-165 433.5zM295 573q0 -204 115.5 -324t324.5 -120q189 0 335 89t224 244t78 351q0 203 -115.5 322.5 t-324.5 119.5q-189 0 -335 -89.5t-224 -244t-78 -348.5zM469 641l33 152h698l-31 -152h-700z" />
<glyph unicode="&#x399;" horiz-adv-x="626" d="M74 0l293 1384h180l-293 -1384h-180z" />
<glyph unicode="&#x39a;" horiz-adv-x="1265" d="M76 0l293 1384h180l-139 -661l757 661h232l-680 -593l399 -791h-200l-340 670l-222 -197l-100 -473h-180z" />
<glyph unicode="&#x39b;" horiz-adv-x="1282" d="M-156 0l846 1384h184l256 -1384h-186l-207 1159l-696 -1159h-197z" />
<glyph unicode="&#x39c;" horiz-adv-x="1918" d="M74 0l293 1384h184l348 -931l750 931h196l-293 -1384h-180l234 1087l-652 -817h-168l-303 817l-231 -1087h-178z" />
<glyph unicode="&#x39d;" horiz-adv-x="1589" d="M74 0l293 1384h161l578 -1118l237 1118h173l-293 -1384h-160l-580 1118l-235 -1118h-174z" />
<glyph unicode="&#x39e;" horiz-adv-x="1280" d="M2 0l33 154h993l-33 -154h-993zM201 639l35 156h860l-33 -156h-862zM285 1229l32 155h947l-33 -155h-946z" />
<glyph unicode="&#x39f;" horiz-adv-x="1669" d="M106 567q0 177 60.5 332t169 268.5t269 179.5t351.5 66q275 0 440 -162t165 -432q0 -183 -61.5 -340t-171.5 -269t-269.5 -175.5t-347.5 -63.5q-275 0 -440 162.5t-165 433.5zM295 573q0 -204 115.5 -324t324.5 -120q189 0 335 89t224 244t78 351q0 203 -115.5 322.5 t-324.5 119.5q-189 0 -335 -89.5t-224 -244t-78 -348.5z" />
<glyph unicode="&#x3a0;" horiz-adv-x="1558" d="M74 0l293 1384h1106l-293 -1384h-181l261 1229h-746l-258 -1229h-182z" />
<glyph unicode="&#x3a1;" horiz-adv-x="1284" d="M72 0l295 1384h434q203 0 317.5 -103.5t114.5 -274.5q0 -158 -82.5 -270.5t-220 -166t-314.5 -53.5h-254l-108 -516h-182zM395 670h248q85 0 157 19.5t128.5 57.5t88.5 101.5t32 146.5q0 117 -73.5 175.5t-213.5 58.5h-248z" />
<glyph unicode="&#x3a3;" horiz-adv-x="1161" d="M-29 0l25 131l604 580l-367 540l29 133h936l-35 -155h-706l350 -529l-569 -546h725l-31 -154h-961z" />
<glyph unicode="&#x3a4;" horiz-adv-x="1196" d="M152 1229l32 155h1116l-30 -155h-469l-260 -1229h-181l261 1229h-469z" />
<glyph unicode="&#x3a5;" horiz-adv-x="1198" d="M131 1384h195l264 -663l543 663h196l-686 -829l-117 -555h-180l117 555z" />
<glyph unicode="&#x3a6;" horiz-adv-x="1673" d="M98 604q0 139 54 260.5t152 213.5t244 149.5t322 68.5l35 158h182l-36 -160q236 -25 375 -155.5t139 -331.5q0 -137 -53.5 -258t-151 -212t-242.5 -149t-321 -69l-39 -189h-180l38 189q-238 23 -378 152.5t-140 332.5zM289 610q0 -141 93.5 -229.5t266.5 -101.5l191 862 q-250 -19 -400.5 -163t-150.5 -368zM827 272q249 22 398 164.5t149 364.5q0 142 -92 231.5t-264 106.5z" />
<glyph unicode="&#x3a7;" horiz-adv-x="1257" d="M-137 0l659 713l-344 671h201l272 -534l496 534h223l-645 -686l362 -698h-202l-287 561l-510 -561h-225z" />
<glyph unicode="&#x3a8;" horiz-adv-x="1658" d="M203 858q0 71 18 152l78 374h176l-78 -383q-18 -88 -18 -127q0 -137 86 -217.5t237 -99.5l170 827h187l-170 -827q204 12 331 111t164 276l91 440h176l-90 -456q-94 -486 -705 -520l-88 -408h-188l92 410q-217 23 -343 143.5t-126 304.5z" />
<glyph unicode="&#x3a9;" horiz-adv-x="1669" d="M16 0l33 154h311q-110 74 -174.5 200.5t-64.5 280.5q0 167 60 310.5t167.5 246t264 161t343.5 58.5q288 0 453.5 -155t165.5 -418q0 -226 -124 -411t-314 -273h284l-35 -154h-602l31 141q111 30 210.5 89.5t180 143.5t127.5 199t47 244q0 203 -118 320.5t-334 117.5 q-281 0 -451 -173.5t-170 -454.5q0 -163 81.5 -286t219.5 -202l-30 -139h-562z" />
<glyph unicode="&#x3aa;" horiz-adv-x="626" d="M74 0l293 1384h180l-293 -1384h-180zM246 1577l43 197h153l-43 -197h-153zM604 1577l41 197h154l-41 -197h-154z" />
<glyph unicode="&#x3ab;" horiz-adv-x="1198" d="M131 1384h195l264 -663l543 663h196l-686 -829l-117 -555h-180l117 555zM543 1583l43 197h153l-43 -197h-153zM901 1583l41 197h154l-41 -197h-154z" />
<glyph unicode="&#x3ac;" horiz-adv-x="1153" d="M41 299q0 91 23.5 187.5t72 188.5t115 165t159 117t197.5 44q170 -9 205 -155l29 127h157l-159 -744q-6 -24 -6 -43q0 -61 63 -61q47 0 90 18l-2 -145q-60 -27 -127 -27q-82 0 -132 42.5t-50 119.5q0 15 4 47q-55 -87 -153 -148t-208 -61q-136 0 -207 87t-71 241z M211 319q0 -98 39 -146t121 -48q131 0 230.5 111t131.5 270q23 119 23 170q0 82 -42.5 129t-115.5 47t-143.5 -40.5t-124 -109.5t-86.5 -169.5t-33 -213.5zM580 1145l231 309h184l-280 -309h-135z" />
<glyph unicode="&#x3ad;" horiz-adv-x="962" d="M31 240q0 108 76.5 177t191.5 95q-71 22 -113.5 73t-42.5 117q0 96 64.5 165.5t164.5 101.5t222 32q161 0 285 -45l-31 -149q-43 22 -114 35.5t-142 13.5q-56 0 -103.5 -8.5t-87.5 -26t-63 -49.5t-23 -76q0 -62 61 -94.5t171 -32.5h147l-24 -131h-142q-154 0 -236.5 -47 t-82.5 -135q0 -68 61 -101.5t168 -33.5q82 0 166 24t148 64l26 -139q-64 -42 -160.5 -70.5t-195.5 -28.5q-176 0 -283.5 66.5t-107.5 202.5zM508 1145l231 309h185l-281 -309h-135z" />
<glyph unicode="&#x3ae;" horiz-adv-x="1198" d="M61 834l2 145q68 22 144 22q89 0 137.5 -48.5t48.5 -133.5q0 -18 -2 -26q61 87 163 147.5t220 60.5q121 0 189.5 -73.5t68.5 -202.5q0 -51 -12 -113l-215 -1001h-166l213 1001q10 41 10 88q0 150 -147 150q-136 0 -242 -112.5t-139 -262.5l-101 -475h-165l157 748 q4 24 4 36q0 70 -69 70q-47 0 -99 -20zM621 1145l231 309h184l-280 -309h-135z" />
<glyph unicode="&#x3af;" horiz-adv-x="550" d="M63 162q0 15 9 71l157 740h166l-159 -756q-5 -30 -5 -33q0 -63 72 -63q46 0 98 20l-2 -143q-65 -27 -139 -27q-91 0 -144 49t-53 142zM274 1145l232 309h184l-280 -309h-136z" />
<glyph unicode="&#x3b0;" horiz-adv-x="1071" d="M76 299q0 61 16 139l113 535h168l-117 -555q-14 -68 -14 -113q0 -81 46 -132.5t142 -51.5q80 0 144.5 41t104.5 109t61.5 151t21.5 172q0 224 -133 379h184q113 -157 113 -357q0 -93 -19.5 -184t-61.5 -174.5t-101 -147t-144.5 -101.5t-185.5 -38q-169 0 -253.5 87 t-84.5 241zM244 1204l43 199h153l-41 -199h-155zM428 1145l211 309h166l-254 -309h-123zM782 1204l41 199h156l-43 -199h-154z" />
<glyph unicode="&#x3b1;" horiz-adv-x="1153" d="M41 299q0 91 23.5 187.5t72 188.5t115 165t159 117t197.5 44q170 -9 205 -155l29 127h157l-159 -744q-6 -24 -6 -43q0 -61 63 -61q47 0 90 18l-2 -145q-60 -27 -127 -27q-82 0 -132 42.5t-50 119.5q0 15 4 47q-55 -87 -153 -148t-208 -61q-136 0 -207 87t-71 241z M211 319q0 -98 39 -146t121 -48q131 0 230.5 111t131.5 270q23 119 23 170q0 82 -42.5 129t-115.5 47t-143.5 -40.5t-124 -109.5t-86.5 -169.5t-33 -213.5z" />
<glyph unicode="&#x3b2;" horiz-adv-x="1142" d="M-55 -389l286 1358q108 514 523 514q158 0 248 -90t90 -240q0 -82 -25 -150.5t-69 -116t-96.5 -79t-113.5 -49.5q205 -61 205 -287q0 -111 -43 -207t-113.5 -159t-160 -98.5t-184.5 -35.5q-103 0 -173.5 39.5t-101.5 104.5l-108 -504h-164zM274 340q0 -106 57.5 -162.5 t166.5 -56.5q58 0 114 22t103.5 62.5t76.5 108t29 149.5q0 101 -66.5 159t-179.5 58h-69l26 143h70q37 0 77 9t84 32.5t78 58t56.5 91.5t22.5 127q0 95 -53.5 144.5t-143.5 49.5q-132 0 -209.5 -89t-116.5 -275l-112 -539q-11 -60 -11 -92z" />
<glyph unicode="&#x3b3;" horiz-adv-x="970" d="M27 973h174q56 -169 105.5 -389t70.5 -387q147 146 250.5 353.5t146.5 422.5h174q-70 -274 -198 -502t-344 -430l-97 -430h-168l74 338q12 55 12 119q0 130 -68 430.5t-132 474.5z" />
<glyph unicode="&#x3b4;" horiz-adv-x="1099" d="M57 348q0 248 132 416.5t337 222.5q-114 102 -114 219q0 129 102 203t258 74q75 0 151.5 -13.5t118.5 -35.5l-36 -150q-97 57 -238 57q-84 0 -136 -35t-52 -98q0 -35 21 -68t55 -62t75 -60.5t81.5 -71.5t74.5 -86t55 -111.5t21 -142.5q0 -138 -47 -258t-125.5 -201.5 t-181.5 -128.5t-214 -47q-87 0 -153 28.5t-106 80t-59.5 118.5t-19.5 150zM227 354q0 -113 51 -173t140 -60q68 0 134 32.5t119.5 90.5t86.5 147.5t33 194.5q0 183 -158 305q-191 -48 -298.5 -186.5t-107.5 -350.5z" />
<glyph unicode="&#x3b5;" horiz-adv-x="962" d="M31 240q0 108 76.5 177t191.5 95q-71 22 -113.5 73t-42.5 117q0 96 64.5 165.5t164.5 101.5t222 32q161 0 285 -45l-31 -149q-43 22 -114 35.5t-142 13.5q-56 0 -103.5 -8.5t-87.5 -26t-63 -49.5t-23 -76q0 -62 61 -94.5t171 -32.5h147l-24 -131h-142q-154 0 -236.5 -47 t-82.5 -135q0 -68 61 -101.5t168 -33.5q82 0 166 24t148 64l26 -139q-64 -42 -160.5 -70.5t-195.5 -28.5q-176 0 -283.5 66.5t-107.5 202.5z" />
<glyph unicode="&#x3b6;" horiz-adv-x="829" d="M66 401q0 127 38 243.5t101.5 209.5t157 178.5t194 152t223.5 128.5l-438 -2l29 143h671v-129q-414 -208 -609 -431t-195 -484q0 -123 65.5 -192t231.5 -122q105 -34 159 -80.5t54 -134.5q0 -61 -29.5 -113t-76.5 -85.5t-100.5 -55t-107.5 -28.5l-31 139q31 4 60.5 13 t58.5 23.5t46.5 38t17.5 52.5q0 40 -29 60.5t-92 37.5q-399 109 -399 438z" />
<glyph unicode="&#x3b7;" horiz-adv-x="1198" d="M61 834l2 145q68 22 144 22q89 0 137.5 -48.5t48.5 -133.5q0 -18 -2 -26q61 87 163 147.5t220 60.5q121 0 189.5 -73.5t68.5 -202.5q0 -51 -12 -113l-215 -1001h-166l213 1001q10 41 10 88q0 150 -147 150q-136 0 -242 -112.5t-139 -262.5l-101 -475h-165l157 748 q4 24 4 36q0 70 -69 70q-47 0 -99 -20z" />
<glyph unicode="&#x3b8;" horiz-adv-x="1150" d="M63 408q0 204 54 400t145 344.5t218 239.5t265 91q165 0 255 -114.5t90 -326.5q0 -198 -53.5 -392.5t-143.5 -344t-217.5 -242t-265.5 -92.5q-168 0 -257.5 112t-89.5 325zM229 418q0 -140 48.5 -218.5t144.5 -78.5t186 78.5t156 201.5t108 275h-614q-29 -113 -29 -258z M289 815h614q19 90 19 223q0 141 -47 219t-144 78q-93 0 -180.5 -71t-152.5 -186.5t-109 -262.5z" />
<glyph unicode="&#x3b9;" horiz-adv-x="550" d="M63 162q0 15 9 71l157 740h166l-159 -756q-5 -30 -5 -33q0 -63 72 -63q46 0 98 20l-2 -143q-65 -27 -139 -27q-91 0 -144 49t-53 142z" />
<glyph unicode="&#x3ba;" horiz-adv-x="999" d="M25 0l206 973h168l-98 -459q100 119 273.5 261t318.5 224q82 -50 123 -77q-156 -90 -291 -195.5t-231 -204.5l206 -336q22 -36 46 -50.5t65 -14.5q21 0 45 4l-12 -143q-37 -11 -76 -11q-128 0 -197 111l-211 340q-53 -46 -80 -89.5t-40 -109.5l-47 -223h-168z" />
<glyph unicode="&#x3bb;" horiz-adv-x="948" d="M-135 0l581 991q-10 49 -21 88.5t-31.5 85.5t-46 78.5t-65.5 59t-89 36.5l55 140q82 -20 144.5 -64t103.5 -109.5t67 -135t45 -158.5l217 -1012h-176l-153 795l-449 -795h-182z" />
<glyph unicode="&#x3bc;" horiz-adv-x="1181" d="M-55 -389l286 1362h166l-129 -613q-10 -52 -10 -86q0 -70 37 -107.5t108 -37.5q133 0 235.5 109.5t133.5 259.5l100 475h164l-155 -744q-7 -28 -7 -43q0 -61 64 -61q46 0 90 18l-2 -145q-60 -27 -139 -27t-124.5 43.5t-45.5 118.5q0 15 4 47q-55 -93 -144.5 -151 t-201.5 -58q-115 0 -170 84l-96 -444h-164z" />
<glyph unicode="&#x3bd;" horiz-adv-x="974" d="M53 973h168l146 -805q137 154 256 373.5t157 431.5h172q-49 -244 -203 -513t-354 -460h-164z" />
<glyph unicode="&#x3be;" horiz-adv-x="886" d="M29 334q0 77 23.5 142.5t60.5 111.5t88.5 82t103 57.5t107.5 34.5q-87 30 -135 99t-48 161q0 102 44.5 190t119 146.5t172 91.5t203.5 33q136 0 233 -41l-32 -150q-92 43 -221 43q-161 0 -257 -86t-96 -225q0 -94 69 -149.5t175 -55.5h158l-31 -143h-154 q-63 0 -122.5 -11.5t-113.5 -37.5t-94.5 -64t-64.5 -94t-24 -125q0 -60 19 -101.5t63 -70t92.5 -45.5t130.5 -37q103 -26 161 -75.5t58 -135.5q0 -61 -28.5 -112t-76.5 -84t-100.5 -53.5t-110.5 -30.5l-28 137q44 7 81 20t69 42.5t32 68.5q0 36 -29.5 57t-91.5 35 q-72 17 -121 33t-107.5 46t-93.5 67t-59 95.5t-24 133.5z" />
<glyph unicode="&#x3bf;" horiz-adv-x="1093" d="M57 344q0 143 47.5 267t126 208.5t182 133t214.5 48.5q165 0 250.5 -101.5t85.5 -272.5q0 -142 -47.5 -266t-127 -208.5t-183 -133t-214.5 -48.5q-163 0 -248.5 102t-85.5 271zM225 358q0 -117 51.5 -177t143.5 -60q68 0 134.5 34.5t119.5 96t86 156.5t33 206 q0 117 -51 178.5t-140 61.5q-69 0 -136.5 -35t-121 -97t-86.5 -157.5t-33 -206.5z" />
<glyph unicode="&#x3c0;" horiz-adv-x="1175" d="M66 836l30 137h1039l-31 -137h-154l-129 -619q-4 -24 -4 -33q0 -63 72 -63q46 0 98 20l-2 -143q-65 -27 -139 -27q-91 0 -144 49t-53 142q0 21 8 71l127 603h-368l-180 -836h-168l182 836h-184z" />
<glyph unicode="&#x3c1;" horiz-adv-x="1107" d="M-90 -389l194 911q47 224 181 351.5t344 127.5q172 0 260 -102t88 -272q0 -143 -46 -267.5t-123.5 -208.5t-179.5 -132t-212 -48q-87 0 -149 36t-85 91l-106 -487h-166zM238 340q0 -95 47 -157t143 -62q72 0 139.5 34.5t120.5 96.5t85 157t32 207q0 115 -50 176.5 t-141 61.5q-134 0 -223 -87.5t-123 -254.5l-24 -121q-6 -27 -6 -51z" />
<glyph unicode="&#x3c2;" horiz-adv-x="888" d="M49 330q0 142 51.5 268t137 214t199.5 138.5t237 50.5q127 0 207 -43l-33 -151q-81 47 -184 47q-123 0 -226.5 -69t-162 -185t-58.5 -252q0 -58 12.5 -97.5t45 -68t72.5 -48t110 -42.5q38 -13 65 -24t56.5 -28.5t47.5 -37t30 -48t12 -63.5q0 -63 -29.5 -117t-76.5 -89 t-100.5 -57t-107.5 -29l-28 143q43 6 81.5 20t69.5 43.5t31 67.5q0 33 -24.5 50t-88.5 38q-67 20 -116 41t-94.5 51.5t-74 67.5t-45 90t-16.5 119z" />
<glyph unicode="&#x3c3;" horiz-adv-x="1118" d="M57 344q0 142 47 262.5t126 199.5t182 123t215 44h475l-33 -144l-229 13q55 -34 88 -103t33 -166q0 -122 -49 -235t-128.5 -192.5t-183 -127t-209.5 -47.5q-165 0 -249.5 101t-84.5 272zM225 358q0 -117 51.5 -177t143.5 -60q66 0 131.5 33t119 91t87 146t33.5 189 q0 100 -55.5 164.5t-121.5 82.5q-73 -2 -141.5 -33t-124 -87.5t-89.5 -147t-34 -201.5z" />
<glyph unicode="&#x3c4;" horiz-adv-x="825" d="M14 836l29 137h821l-30 -137h-328l-129 -619q-4 -24 -4 -33q0 -63 71 -63q47 0 99 20l-2 -143q-65 -27 -140 -27q-91 0 -143.5 49t-52.5 142q0 21 8 71l127 603h-326z" />
<glyph unicode="&#x3c5;" horiz-adv-x="1071" d="M76 299q0 61 16 139l113 535h168l-117 -555q-14 -68 -14 -113q0 -81 46 -132.5t142 -51.5q80 0 144.5 41t104.5 109t61.5 151t21.5 172q0 224 -133 379h184q113 -157 113 -357q0 -93 -19.5 -184t-61.5 -174.5t-101 -147t-144.5 -101.5t-185.5 -38q-169 0 -253.5 87 t-84.5 241z" />
<glyph unicode="&#x3c6;" horiz-adv-x="1409" d="M55 412q0 177 80 335.5t213 253.5l146 -65q-127 -95 -200 -226t-73 -288q0 -128 72 -211t205 -96l94 454q20 98 52 173.5t81.5 134.5t121.5 90.5t165 31.5q140 0 218.5 -90.5t78.5 -251.5q0 -135 -53 -258t-143.5 -213.5t-215 -147t-262.5 -63.5l-78 -364h-166l78 369 q-201 23 -307.5 136t-106.5 296zM664 117q207 29 344 180.5t137 357.5q0 95 -39 148t-113 53q-89 0 -146.5 -70t-90.5 -227z" />
<glyph unicode="&#x3c7;" horiz-adv-x="878" d="M-326 -389l584 739l-225 623h178l170 -494l371 494h196l-504 -639l269 -723h-187l-209 594l-438 -594h-205z" />
<glyph unicode="&#x3c8;" horiz-adv-x="1419" d="M57 446q0 236 136 527h176q-148 -312 -148 -524q0 -274 250 -326l248 1159h158l-250 -1171q215 12 345 168.5t130 377.5q0 166 -78 316h176q72 -150 72 -303q0 -134 -47 -259t-131 -222t-213.5 -155.5t-282.5 -58.5l-76 -364h-160l80 377q-104 16 -180.5 59t-120 105.5 t-64 135t-20.5 158.5z" />
<glyph unicode="&#x3c9;" horiz-adv-x="1597" d="M51 313q0 191 82 359t219 301h201q-157 -159 -246.5 -321t-89.5 -343q0 -90 42.5 -139t113.5 -49q113 0 189.5 85.5t105.5 225.5l61 301h168l-63 -323q-13 -72 -13 -103q0 -85 40.5 -135.5t127.5 -50.5q88 0 156 63t102.5 162.5t34.5 214.5q0 229 -121 412h182 q103 -174 103 -400q0 -96 -20.5 -185t-60 -164.5t-94.5 -132t-129 -88.5t-157 -32q-123 0 -195 67t-88 173q-131 -240 -354 -240q-142 0 -219.5 92t-77.5 250z" />
<glyph unicode="&#x3ca;" horiz-adv-x="550" d="M63 162q0 15 9 71l157 740h166l-159 -756q-5 -30 -5 -33q0 -63 72 -63q46 0 98 20l-2 -143q-65 -27 -139 -27q-91 0 -144 49t-53 142zM90 1204l43 197h154l-43 -197h-154zM449 1204l40 197h154l-41 -197h-153z" />
<glyph unicode="&#x3cb;" horiz-adv-x="1071" d="M76 299q0 61 16 139l113 535h168l-117 -555q-14 -68 -14 -113q0 -81 46 -132.5t142 -51.5q80 0 144.5 41t104.5 109t61.5 151t21.5 172q0 224 -133 379h184q113 -157 113 -357q0 -93 -19.5 -184t-61.5 -174.5t-101 -147t-144.5 -101.5t-185.5 -38q-169 0 -253.5 87 t-84.5 241zM350 1204l43 197h154l-43 -197h-154zM709 1204l41 197h153l-41 -197h-153z" />
<glyph unicode="&#x3cc;" horiz-adv-x="1093" d="M57 344q0 143 47.5 267t126 208.5t182 133t214.5 48.5q165 0 250.5 -101.5t85.5 -272.5q0 -142 -47.5 -266t-127 -208.5t-183 -133t-214.5 -48.5q-163 0 -248.5 102t-85.5 271zM225 358q0 -117 51.5 -177t143.5 -60q68 0 134.5 34.5t119.5 96t86 156.5t33 206 q0 117 -51 178.5t-140 61.5q-69 0 -136.5 -35t-121 -97t-86.5 -157.5t-33 -206.5zM561 1145l232 309h184l-281 -309h-135z" />
<glyph unicode="&#x3cd;" horiz-adv-x="1071" d="M76 299q0 61 16 139l113 535h168l-117 -555q-14 -68 -14 -113q0 -81 46 -132.5t142 -51.5q80 0 144.5 41t104.5 109t61.5 151t21.5 172q0 224 -133 379h184q113 -157 113 -357q0 -93 -19.5 -184t-61.5 -174.5t-101 -147t-144.5 -101.5t-185.5 -38q-169 0 -253.5 87 t-84.5 241zM489 1145l232 309h184l-280 -309h-136z" />
<glyph unicode="&#x3ce;" horiz-adv-x="1597" d="M51 313q0 191 82 359t219 301h201q-157 -159 -246.5 -321t-89.5 -343q0 -90 42.5 -139t113.5 -49q113 0 189.5 85.5t105.5 225.5l61 301h168l-63 -323q-13 -72 -13 -103q0 -85 40.5 -135.5t127.5 -50.5q88 0 156 63t102.5 162.5t34.5 214.5q0 229 -121 412h182 q103 -174 103 -400q0 -96 -20.5 -185t-60 -164.5t-94.5 -132t-129 -88.5t-157 -32q-123 0 -195 67t-88 173q-131 -240 -354 -240q-142 0 -219.5 92t-77.5 250zM807 1145l231 309h185l-281 -309h-135z" />
<glyph unicode="&#x3d0;" horiz-adv-x="1130" d="M88 391q0 88 13.5 186.5t43 204t71.5 206t103 190t133.5 157t167 107t199.5 39.5q142 0 225.5 -74.5t83.5 -208.5q0 -146 -92.5 -248.5t-238.5 -156.5q77 -29 123.5 -103.5t46.5 -185.5q0 -142 -75 -265.5t-197.5 -194.5t-258.5 -71q-50 0 -95 10t-92.5 39t-82 74 t-56.5 121t-22 174zM256 391q0 -135 53.5 -202.5t145.5 -67.5q137 0 238.5 111.5t101.5 271.5q0 87 -45 150t-129 63q-10 0 -46 -4q-174 -19 -274 -21q-45 -164 -45 -301zM338 825q82 0 163.5 11t164.5 37.5t146 66t102.5 102t39.5 140.5q0 149 -161 149 q-139 0 -262.5 -133.5t-192.5 -372.5z" />
<glyph unicode="&#x3d1;" horiz-adv-x="1136" d="M43 303q0 134 37 238h166q-43 -110 -43 -222q0 -86 42 -142t136 -56q323 0 479 655q-56 -68 -143 -110.5t-180 -42.5q-152 0 -244 87t-92 257q0 119 44 218.5t116 163.5t162 99t184 35q77 0 139.5 -22t113 -68.5t78 -127.5t27.5 -192q0 -95 -17.5 -208.5t-52.5 -239 t-93 -241t-132 -208.5t-177.5 -149t-221.5 -56q-83 0 -147.5 26.5t-103 73t-58 105t-19.5 127.5zM371 983q0 -217 198 -217q129 0 229.5 97t100.5 229q0 131 -58.5 188t-150.5 57q-141 0 -230 -103.5t-89 -250.5z" />
<glyph unicode="&#x400;" horiz-adv-x="1189" d="M117 244q0 46 28 172l203 968h828l-33 -155h-645l-92 -438h587l-32 -154h-590l-62 -303q-8 -46 -8 -64q0 -116 148 -116h497l-33 -154h-524q-135 0 -203.5 66t-68.5 178zM547 1833h166l166 -309h-129z" />
<glyph unicode="&#x401;" horiz-adv-x="1189" d="M117 244q0 46 28 172l203 968h828l-33 -155h-645l-92 -438h587l-32 -154h-590l-62 -303q-8 -46 -8 -64q0 -116 148 -116h497l-33 -154h-524q-135 0 -203.5 66t-68.5 178zM516 1616l43 196h154l-43 -196h-154zM874 1616l41 196h154l-41 -196h-154z" />
<glyph unicode="&#x402;" horiz-adv-x="1603" d="M152 1229l32 155h1116l-30 -155h-469l-90 -424q72 42 163 69t179 27q187 0 296 -115t109 -319q0 -150 -51 -273t-138.5 -203t-201 -125.5t-242.5 -51.5l-16 155q205 9 336 134.5t131 334.5q0 303 -268 303q-180 0 -336 -120l-131 -621h-181l261 1229h-469z" />
<glyph unicode="&#x403;" horiz-adv-x="980" d="M74 0l293 1384h718l-32 -155h-539l-260 -1229h-180zM662 1524l231 309h184l-280 -309h-135z" />
<glyph unicode="&#x404;" horiz-adv-x="1316" d="M106 563q0 251 107 445t298.5 299.5t436.5 105.5q228 0 361 -70l-35 -159q-142 71 -326 71q-231 0 -397 -120.5t-225 -341.5h727l-33 -156h-719q-2 -23 -2 -70q0 -202 120.5 -319t321.5 -117q179 0 344 74l11 -158q-162 -76 -385 -76q-129 0 -240.5 42t-192 118 t-126.5 187.5t-46 244.5z" />
<glyph unicode="&#x405;" horiz-adv-x="1140" d="M12 68l35 161q77 -44 178 -72t207 -28q65 0 121 13.5t102.5 41t73.5 76.5t27 115q0 55 -31 99.5t-80.5 76t-109.5 61.5t-120.5 64.5t-110 77t-80.5 107.5t-31 147q0 98 43 176.5t117 127.5t168.5 75t201.5 26q219 0 350 -67l-37 -160q-131 69 -315 69q-65 0 -123 -13 t-108 -40t-79.5 -75.5t-29.5 -112.5q0 -53 31 -96t81 -74.5t110.5 -62t120.5 -65.5t110 -77.5t81 -106.5t31 -143q0 -86 -28.5 -157t-77.5 -119t-116 -80.5t-141.5 -47t-156.5 -14.5q-118 0 -227.5 27t-186.5 70z" />
<glyph unicode="&#x406;" horiz-adv-x="626" d="M74 0l293 1384h180l-293 -1384h-180z" />
<glyph unicode="&#x407;" horiz-adv-x="626" d="M74 0l293 1384h180l-293 -1384h-180zM240 1606l43 196h153l-43 -196h-153zM598 1606l41 196h154l-41 -196h-154z" />
<glyph unicode="&#x408;" horiz-adv-x="776" d="M-113 16l35 154q84 -41 178 -41q95 0 148.5 55.5t77.5 165.5l219 1034h180l-219 -1030q-43 -198 -142.5 -290.5t-269.5 -92.5q-106 0 -207 45z" />
<glyph unicode="&#x409;" horiz-adv-x="2015" d="M-125 -16l33 155q29 -10 80 -10q92 0 139 51.5t72 171.5l217 1032h923l-112 -524h239q210 0 323.5 -92t113.5 -254q0 -223 -170 -368.5t-439 -145.5h-432l262 1229h-565l-192 -901q-41 -189 -127.5 -273t-255.5 -84q-50 0 -109 13zM1077 154h240q181 0 291 96t110 248 q0 100 -70 154.5t-206 54.5h-248z" />
<glyph unicode="&#x40a;" horiz-adv-x="2017" d="M76 0l295 1384h180l-111 -524h607l112 524h182l-112 -524h239q210 0 323.5 -92t113.5 -254q0 -223 -170 -368.5t-439 -145.5h-432l150 707h-604l-152 -707h-182zM1079 154h240q181 0 291 96t110 248q0 100 -70 154.5t-206 54.5h-248z" />
<glyph unicode="&#x40b;" horiz-adv-x="1652" d="M152 1229l32 155h1116l-30 -155h-469l-90 -424q67 44 161 74t199 30q187 0 292 -101t105 -276q0 -39 -20 -137l-84 -395h-180l88 416q14 65 14 94q0 240 -248 240q-103 0 -198 -36.5t-168 -92.5l-131 -621h-181l261 1229h-469z" />
<glyph unicode="&#x40c;" horiz-adv-x="1265" d="M76 0l293 1384h180l-139 -661l757 661h232l-680 -593l399 -791h-200l-340 670l-222 -197l-100 -473h-180zM784 1524l232 309h184l-280 -309h-136z" />
<glyph unicode="&#x40d;" horiz-adv-x="1595" d="M74 0l293 1384h180l-234 -1095l1030 1095h173l-293 -1384h-183l236 1096l-1030 -1096h-172zM711 1833h166l165 -309h-129z" />
<glyph unicode="&#x40e;" horiz-adv-x="1204" d="M23 6l32 156q69 -29 154 -29q70 0 124 32.5t101 104.5l92 144l-374 970h184l305 -806l496 806h206l-749 -1179q-76 -121 -167 -177.5t-224 -56.5q-98 0 -180 35zM547 1769q0 20 4 56h117q-2 -12 -2 -33q0 -69 34.5 -106t100.5 -37q157 0 186 176h121q-25 -139 -107 -216 t-215 -77q-111 0 -175 64.5t-64 172.5z" />
<glyph unicode="&#x40f;" horiz-adv-x="1378" d="M74 0l293 1384h180l-260 -1230h569l260 1230h180l-292 -1384h-373l-74 -287h-154l48 287h-377z" />
<glyph unicode="&#x410;" horiz-adv-x="1282" d="M-154 0l844 1384h180l258 -1384h-184l-63 342h-641l-203 -342h-191zM334 496h520l-119 665z" />
<glyph unicode="&#x411;" horiz-adv-x="1265" d="M72 0l295 1384h817l-35 -155h-633l-80 -369h240q210 0 323 -92t113 -254q0 -223 -169.5 -368.5t-438.5 -145.5h-432zM287 154h239q181 0 291.5 96t110.5 248q0 100 -70.5 154.5t-206.5 54.5h-248z" />
<glyph unicode="&#x412;" horiz-adv-x="1271" d="M74 0l293 1384h385q213 0 331.5 -86t118.5 -241q0 -65 -21.5 -120.5t-54.5 -94t-78.5 -68.5t-88.5 -47.5t-89 -28.5q42 -10 80 -30t73 -52t56 -81.5t21 -110.5q0 -206 -171 -315t-464 -109h-391zM285 154h211q118 0 208 26t146.5 85.5t56.5 146.5q0 106 -77 161.5 t-232 55.5h-213zM418 778h205q170 0 278.5 67t108.5 195q0 99 -71.5 144t-219.5 45h-205z" />
<glyph unicode="&#x413;" horiz-adv-x="980" d="M74 0l293 1384h718l-32 -155h-539l-260 -1229h-180z" />
<glyph unicode="&#x414;" horiz-adv-x="1343" d="M-160 -287l94 441h78q63 71 115 161t83.5 163.5t61.5 175t42 153.5t30 141l92 436h828l-260 -1230h86l-93 -441h-145l29 287h-805l-82 -287h-154zM213 154h610l228 1075h-473l-64 -299q-5 -22 -22.5 -101t-29 -127.5t-36.5 -132t-52 -145.5t-69 -136t-92 -134z" />
<glyph unicode="&#x415;" horiz-adv-x="1189" d="M117 244q0 46 28 172l203 968h828l-33 -155h-645l-92 -438h587l-32 -154h-590l-62 -303q-8 -46 -8 -64q0 -116 148 -116h497l-33 -154h-524q-135 0 -203.5 66t-68.5 178z" />
<glyph unicode="&#x416;" horiz-adv-x="1886" d="M-121 0l694 803l-405 581h199l477 -684l145 684h180l-141 -684l760 684h231l-680 -593l400 -791h-201l-340 670l-221 -197l-100 -473h-181l103 489l-121 179l-576 -668h-223z" />
<glyph unicode="&#x417;" horiz-adv-x="1099" d="M-16 59l36 156q145 -86 322 -86q81 0 149.5 17.5t125 53.5t88.5 98.5t32 145.5q0 111 -82.5 163t-220.5 52h-129l33 152h117q96 0 178 24t138 78.5t56 130.5q0 108 -72 159.5t-198 51.5q-167 0 -313 -77l-35 149q162 86 379 86q88 0 163 -20t134.5 -60t93 -107.5 t33.5 -156.5q0 -71 -26.5 -130.5t-71.5 -99.5t-95.5 -66t-107.5 -40q96 -30 158.5 -101.5t62.5 -189.5q0 -114 -49 -205t-132.5 -148.5t-190 -87.5t-226.5 -30q-97 0 -191.5 24t-158.5 64z" />
<glyph unicode="&#x418;" horiz-adv-x="1595" d="M74 0l293 1384h180l-234 -1095l1030 1095h173l-293 -1384h-183l236 1096l-1030 -1096h-172z" />
<glyph unicode="&#x419;" horiz-adv-x="1595" d="M74 0l293 1384h180l-234 -1095l1030 1095h173l-293 -1384h-183l236 1096l-1030 -1096h-172zM745 1769q0 11 5 56h116q-2 -12 -2 -33q0 -69 34.5 -106t100.5 -37q158 0 187 176h121q-25 -139 -107 -216t-215 -77q-112 0 -176 64.5t-64 172.5z" />
<glyph unicode="&#x41a;" horiz-adv-x="1265" d="M76 0l293 1384h180l-139 -661l757 661h232l-680 -593l399 -791h-200l-340 670l-222 -197l-100 -473h-180z" />
<glyph unicode="&#x41b;" horiz-adv-x="1454" d="M-125 -16l33 155q29 -10 80 -10q92 0 139 51.5t72 171.5l217 1032h948l-295 -1384h-184l262 1229h-588l-192 -901q-41 -189 -127.5 -273t-255.5 -84q-50 0 -109 13z" />
<glyph unicode="&#x41c;" horiz-adv-x="1925" d="M74 0l293 1384h184l348 -931l750 931h196l-293 -1384h-180l234 1087l-652 -817h-168l-303 817l-231 -1087h-178z" />
<glyph unicode="&#x41d;" horiz-adv-x="1603" d="M74 0l295 1384h180l-125 -589h803l123 589h180l-293 -1384h-180l135 637h-803l-135 -637h-180z" />
<glyph unicode="&#x41e;" horiz-adv-x="1669" d="M106 567q0 177 60.5 332t169 268.5t269 179.5t351.5 66q275 0 440 -162t165 -432q0 -183 -61.5 -340t-171.5 -269t-269.5 -175.5t-347.5 -63.5q-275 0 -440 162.5t-165 433.5zM295 573q0 -204 115.5 -324t324.5 -120q189 0 335 89t224 244t78 351q0 203 -115.5 322.5 t-324.5 119.5q-189 0 -335 -89.5t-224 -244t-78 -348.5z" />
<glyph unicode="&#x41f;" horiz-adv-x="1552" d="M74 0l293 1384h1106l-293 -1384h-181l261 1229h-746l-258 -1229h-182z" />
<glyph unicode="&#x420;" horiz-adv-x="1284" d="M72 0l295 1384h434q203 0 317.5 -103.5t114.5 -274.5q0 -158 -82.5 -270.5t-220 -166t-314.5 -53.5h-254l-108 -516h-182zM395 670h248q85 0 157 19.5t128.5 57.5t88.5 101.5t32 146.5q0 117 -73.5 175.5t-213.5 58.5h-248z" />
<glyph unicode="&#x421;" horiz-adv-x="1316" d="M106 563q0 251 107 445t298.5 299.5t436.5 105.5q228 0 361 -70l-35 -159q-142 71 -326 71q-140 0 -258 -46t-205.5 -131.5t-136.5 -217t-49 -293.5q0 -202 120.5 -319t321.5 -117q179 0 344 74l11 -158q-162 -76 -385 -76q-129 0 -240.5 42t-192 118t-126.5 187.5 t-46 244.5z" />
<glyph unicode="&#x422;" horiz-adv-x="1196" d="M152 1229l32 155h1116l-30 -155h-469l-260 -1229h-181l261 1229h-469z" />
<glyph unicode="&#x423;" horiz-adv-x="1204" d="M23 6l32 156q69 -29 154 -29q70 0 124 32.5t101 104.5l92 144l-374 970h184l305 -806l496 806h206l-749 -1179q-76 -121 -167 -177.5t-224 -56.5q-98 0 -180 35z" />
<glyph unicode="&#x424;" horiz-adv-x="1673" d="M98 604q0 139 54 260.5t152 213.5t244 149.5t322 68.5l35 158h182l-36 -160q236 -25 375 -155.5t139 -331.5q0 -137 -53.5 -258t-151 -212t-242.5 -149t-321 -69l-39 -189h-180l38 189q-238 23 -378 152.5t-140 332.5zM289 610q0 -141 93.5 -229.5t266.5 -101.5l191 862 q-250 -19 -400.5 -163t-150.5 -368zM827 272q249 22 398 164.5t149 364.5q0 142 -92 231.5t-264 106.5z" />
<glyph unicode="&#x425;" horiz-adv-x="1257" d="M-137 0l659 713l-344 671h201l272 -534l496 534h223l-645 -686l362 -698h-202l-287 561l-510 -561h-225z" />
<glyph unicode="&#x426;" horiz-adv-x="1376" d="M74 0l293 1384h180l-260 -1230h569l260 1230h180l-260 -1230h99l-93 -441h-153l37 287h-852z" />
<glyph unicode="&#x427;" horiz-adv-x="1386" d="M201 844q0 74 14 143l84 397h180l-88 -417q-12 -61 -12 -105q0 -229 256 -229q199 0 358 123l133 628h181l-293 -1384h-180l120 571q-70 -44 -161 -74t-181 -30q-193 0 -302 96.5t-109 280.5z" />
<glyph unicode="&#x428;" horiz-adv-x="1996" d="M76 0l293 1384h180l-260 -1230h504l260 1230h180l-260 -1230h504l260 1230h180l-293 -1384h-1548z" />
<glyph unicode="&#x429;" horiz-adv-x="1996" d="M76 0l293 1384h180l-260 -1230h504l260 1230h180l-260 -1230h504l260 1230h180l-260 -1230h98l-92 -441h-154l37 287h-1470z" />
<glyph unicode="&#x42a;" horiz-adv-x="1359" d="M152 1229l32 155h500l-113 -524h240q210 0 323 -92t113 -254q0 -223 -169.5 -368.5t-438.5 -145.5h-432l262 1229h-317zM422 154h240q181 0 291 96t110 248q0 100 -70.5 154.5t-206.5 54.5h-247z" />
<glyph unicode="&#x42b;" horiz-adv-x="1816" d="M72 0l295 1384h182l-113 -524h240q210 0 323 -92t113 -254q0 -223 -169.5 -368.5t-438.5 -145.5h-432zM287 154h239q181 0 291.5 96t110.5 248q0 100 -70.5 154.5t-206.5 54.5h-248zM1257 0l291 1384h187l-291 -1384h-187z" />
<glyph unicode="&#x42c;" horiz-adv-x="1224" d="M72 0l295 1384h182l-113 -524h240q210 0 323 -92t113 -254q0 -223 -169.5 -368.5t-438.5 -145.5h-432zM287 154h239q181 0 291.5 96t110.5 248q0 100 -70.5 154.5t-206.5 54.5h-248z" />
<glyph unicode="&#x42d;" horiz-adv-x="1304" d="M-39 57l35 166q149 -90 366 -90q244 0 407.5 129.5t213.5 372.5h-731q16 86 33 160h719q0 215 -109.5 334.5t-321.5 119.5q-187 0 -329 -71l-17 163q147 72 373 72q265 0 430.5 -153.5t165.5 -423.5q0 -190 -62.5 -352t-172 -273.5t-263 -174.5t-331.5 -63 q-245 0 -406 84z" />
<glyph unicode="&#x42e;" horiz-adv-x="2265" d="M74 0l295 1384h180l-125 -589h305q33 135 105 248t176 195.5t243 128.5t299 46q275 0 440 -162t165 -432q0 -183 -61.5 -340t-171.5 -269t-269.5 -175.5t-347.5 -63.5q-275 0 -440 162.5t-165 433.5q0 35 3 70h-316l-135 -637h-180zM891 573q0 -204 115.5 -324 t324.5 -120q189 0 335 89t224 244t78 351q0 203 -115.5 322.5t-324.5 119.5q-189 0 -335 -89.5t-224 -244t-78 -348.5z" />
<glyph unicode="&#x42f;" horiz-adv-x="1296" d="M-66 0l490 563q-117 33 -187.5 114.5t-70.5 209.5q0 155 82 269.5t217 171t303 56.5h451l-293 -1384h-181l111 526h-250l-450 -526h-222zM350 895q0 -106 77 -159.5t191 -53.5h271l115 547h-256q-174 0 -286 -85t-112 -249z" />
<glyph unicode="&#x430;" horiz-adv-x="1157" d="M45 299q0 204 85.5 365t234.5 249t335 88q167 0 297 -59l-153 -713q-6 -24 -6 -43q0 -61 63 -61q47 0 90 18l-2 -145q-60 -27 -139 -27t-124.5 43.5t-45.5 118.5q0 15 4 47q-55 -88 -152.5 -148.5t-207.5 -60.5q-136 0 -207.5 87t-71.5 241zM215 319q0 -98 39 -146 t121 -48q131 0 229.5 111t132.5 270l70 328q-64 20 -139 20q-192 0 -322.5 -152.5t-130.5 -382.5z" />
<glyph unicode="&#x431;" horiz-adv-x="1097" d="M59 375q0 21 4 71q23 302 147.5 528.5t348.5 359.5t528 149l11 -146q-642 -48 -805 -524q63 83 158.5 137t201.5 54q152 0 233 -105t81 -272q0 -143 -47.5 -267t-126 -208.5t-182 -132.5t-214.5 -48q-75 0 -133.5 21.5t-96.5 58.5t-62.5 89t-35 110t-10.5 125zM231 356 q0 -115 51 -176t142 -61q68 0 134.5 35t119.5 97t86 157t33 206q0 115 -51 177.5t-140 62.5q-68 0 -134.5 -36t-120.5 -99t-87 -158t-33 -205z" />
<glyph unicode="&#x432;" horiz-adv-x="1075" d="M59 352q0 144 47.5 266.5t129 206t191.5 130t235 46.5q132 0 213 -60t81 -169q0 -104 -64 -170.5t-165 -101.5q68 -12 112 -62.5t44 -126.5q0 -99 -59.5 -177.5t-159 -120.5t-220.5 -42q-194 0 -289.5 101.5t-95.5 279.5zM229 367q0 -254 230 -254q108 0 178 54t70 138 q0 55 -43 84t-107 29q-41 0 -119 -5t-119 -5q-53 0 -86 4q-4 -28 -4 -45zM258 543q50 -4 84 -4q77 0 147.5 9t140.5 30.5t112 64t42 102.5q0 115 -151 115q-129 0 -236.5 -86t-138.5 -231z" />
<glyph unicode="&#x433;" horiz-adv-x="880" d="M6 213q0 73 33 131.5t85.5 97t116.5 70t128 57t116.5 50.5t85.5 58t33 73q0 108 -182 108q-133 0 -258 -59l-21 141q50 29 132.5 45t168.5 16q156 0 244 -61t88 -176q0 -60 -25.5 -110t-67.5 -83.5t-96 -63.5t-110 -51.5t-110 -46t-96 -48.5t-67.5 -58t-25.5 -74 q0 -108 156 -108q165 0 299 90l35 -139q-157 -101 -351 -101q-140 0 -225.5 64t-85.5 178z" />
<glyph unicode="&#x434;" horiz-adv-x="1101" d="M57 344q0 139 45.5 262t121.5 209t177 136t211 50q91 0 151 -39t85 -102q-2 57 -6 95t-14.5 89.5t-34.5 94t-60 75.5q-114 106 -422 119l25 148q167 -9 286 -46t203 -109.5t124 -186t40 -273.5q0 -110 -14 -214.5t-42.5 -206.5t-77 -186.5t-112.5 -149.5t-154.5 -101.5 t-197.5 -36.5q-162 0 -248 102t-86 271zM225 358q0 -117 51.5 -177t143.5 -60q68 0 134.5 34.5t119.5 96t86 156.5t33 206q0 117 -51 178.5t-140 61.5q-69 0 -136.5 -35t-121 -97t-86.5 -157.5t-33 -206.5z" />
<glyph unicode="&#x435;" horiz-adv-x="1024" d="M53 334q0 144 47.5 270t127 212t184.5 135.5t219 49.5q150 0 228.5 -66.5t78.5 -176.5q0 -82 -36 -146t-94 -103.5t-137 -65.5t-157.5 -36t-163.5 -10q-68 0 -127 6q-2 -18 -2 -49q0 -233 225 -233q165 0 304 88l26 -139q-162 -99 -362 -99q-172 0 -266.5 97.5 t-94.5 265.5zM244 532q54 -4 92 -4q74 0 145 10t140.5 32t112 65.5t42.5 103.5q0 55 -39.5 85t-115.5 30q-130 0 -234 -85.5t-143 -236.5z" />
<glyph unicode="&#x436;" horiz-adv-x="1447" d="M-174 0l524 563l-295 410h176l361 -498l106 498h166l-104 -490l551 490h211l-494 -418l289 -555h-182l-234 451l-180 -156l-64 -295h-165l63 299l-111 150l-413 -449h-205z" />
<glyph unicode="&#x437;" horiz-adv-x="952" d="M-18 59l28 148q62 -37 146 -61.5t166 -24.5q117 0 190.5 42t73.5 128q0 66 -60 103.5t-180 37.5h-143l30 131h129q51 0 98 8t91 25t70 50.5t26 78.5q0 131 -221 131q-154 0 -289 -76l-22 144q137 77 336 77q172 0 271 -68t99 -190q0 -187 -246 -249q87 -17 138 -71.5 t51 -133.5q0 -83 -39 -146.5t-105 -99.5t-143 -54t-162 -18q-91 0 -185 25t-148 63z" />
<glyph unicode="&#x438;" horiz-adv-x="1177" d="M74 248q0 42 14 114l129 611h166l-131 -617q-10 -52 -10 -86q0 -149 135 -149q88 0 170.5 55.5t136.5 141t74 180.5l100 475h164l-156 -744q-6 -24 -6 -43q0 -61 64 -61q47 0 90 18l-2 -145q-60 -27 -140 -27q-79 0 -124.5 43.5t-45.5 118.5q0 7 5 47 q-57 -90 -154 -149.5t-215 -59.5q-120 0 -192 73.5t-72 203.5z" />
<glyph unicode="&#x439;" horiz-adv-x="1177" d="M74 248q0 42 14 114l129 611h166l-131 -617q-10 -52 -10 -86q0 -149 135 -149q88 0 170.5 55.5t136.5 141t74 180.5l100 475h164l-156 -744q-6 -24 -6 -43q0 -61 64 -61q47 0 90 18l-2 -145q-60 -27 -140 -27q-79 0 -124.5 43.5t-45.5 118.5q0 7 5 47 q-57 -90 -154 -149.5t-215 -59.5q-120 0 -192 73.5t-72 203.5zM438 1389q0 19 4 55h117q-2 -12 -2 -33q0 -69 34.5 -106t100.5 -37q158 0 187 176h120q-25 -139 -106.5 -216t-214.5 -77q-111 0 -175.5 65t-64.5 173z" />
<glyph unicode="&#x43a;" horiz-adv-x="985" d="M29 0l207 973h165l-104 -490l551 490h211l-494 -418l289 -555h-182l-234 449l-180 -154l-63 -295h-166z" />
<glyph unicode="&#x43b;" horiz-adv-x="1114" d="M-115 0l33 147q45 -20 94 -20q92 0 113 106l154 740h720l-206 -973h-166l176 836h-387l-127 -603q-15 -66 -35 -112t-52 -81t-79 -52t-111 -17q-61 0 -127 29z" />
<glyph unicode="&#x43c;" horiz-adv-x="1476" d="M25 0l206 973h166l258 -649l533 649h174l-207 -973h-164l146 688l-441 -530h-131l-223 559l-152 -717h-165z" />
<glyph unicode="&#x43d;" horiz-adv-x="1159" d="M25 0l206 973h166l-82 -391h478l84 391h165l-206 -973h-166l94 444h-479l-95 -444h-165z" />
<glyph unicode="&#x43e;" horiz-adv-x="1093" d="M57 344q0 143 47.5 267t126 208.5t182 133t214.5 48.5q165 0 250.5 -101.5t85.5 -272.5q0 -142 -47.5 -266t-127 -208.5t-183 -133t-214.5 -48.5q-163 0 -248.5 102t-85.5 271zM225 358q0 -117 51.5 -177t143.5 -60q68 0 134.5 34.5t119.5 96t86 156.5t33 206 q0 117 -51 178.5t-140 61.5q-69 0 -136.5 -35t-121 -97t-86.5 -157.5t-33 -206.5z" />
<glyph unicode="&#x43f;" horiz-adv-x="1155" d="M25 0l206 973h158l-35 -178q61 88 160 147t217 59q121 0 189.5 -73.5t68.5 -202.5q0 -51 -12 -113l-131 -612h-166l129 612q10 55 10 88q0 150 -147 150q-91 0 -173.5 -55t-135 -139.5t-72.5 -180.5l-101 -475h-165z" />
<glyph unicode="&#x440;" horiz-adv-x="1112" d="M-55 -389l286 1362h158l-31 -164q61 82 151 137t189 55q134 0 208.5 -88t74.5 -241t-49.5 -284t-135 -222t-205 -143t-255.5 -52q-74 0 -148 21l-82 -381h-161zM219 141q64 -20 131 -20q128 0 234.5 72.5t166.5 194t60 263.5q0 199 -160 199q-88 0 -165.5 -56 t-126.5 -141.5t-70 -185.5z" />
<glyph unicode="&#x441;" horiz-adv-x="950" d="M47 322q0 145 51 273t136.5 216t199.5 139t238 51q123 0 207 -43l-33 -151q-77 47 -184 47q-125 0 -228 -69.5t-161 -187.5t-58 -259q0 -113 53.5 -165t147.5 -52q142 0 289 86l24 -139q-157 -97 -344 -97q-72 0 -131.5 20t-106.5 61t-73.5 110t-26.5 160z" />
<glyph unicode="&#x442;" horiz-adv-x="1763" d="M25 0l206 973h158l-35 -180q58 90 151 149t210 59q106 0 168.5 -57t74.5 -162q58 89 163 154t222 65q120 0 187 -72t67 -200q0 -44 -14 -119l-131 -610h-166l129 610q10 52 10 86q0 71 -33.5 111.5t-101.5 40.5q-90 0 -169.5 -55.5t-130.5 -141t-72 -186.5l-97 -465h-166 l131 610q9 44 9 84q0 72 -32.5 113t-100.5 41q-91 0 -171.5 -57.5t-131 -143t-70.5 -182.5l-99 -465h-165z" />
<glyph unicode="&#x443;" horiz-adv-x="952" d="M-121 -266q73 4 132.5 30.5t105.5 74t76.5 92t66.5 110.5l-203 932h166l156 -754l424 754h188l-563 -946q-34 -58 -56 -92.5t-57.5 -84t-64.5 -80t-71.5 -66t-85 -55.5t-97.5 -35.5t-117 -19.5v140z" />
<glyph unicode="&#x444;" horiz-adv-x="1402" d="M49 401q0 130 50 239.5t136.5 184t200.5 119t244 53.5l82 387h158l-84 -387q208 -22 321 -131t113 -297q0 -106 -33 -198.5t-92.5 -162t-141 -120.5t-178.5 -79.5t-204 -33.5l-80 -364h-160l82 369q-199 19 -306.5 128.5t-107.5 292.5zM211 410q0 -128 71.5 -208.5 t206.5 -92.5l160 749q-206 -30 -322 -144.5t-116 -303.5zM651 113q212 24 334.5 139t122.5 309q0 128 -76.5 208t-222.5 93z" />
<glyph unicode="&#x445;" horiz-adv-x="925" d="M-129 0l459 494l-246 479h180l182 -359l330 359h199l-459 -477l260 -496h-182l-193 373l-331 -373h-199z" />
<glyph unicode="&#x446;" horiz-adv-x="1177" d="M74 248q0 42 14 114l129 611h166l-131 -621q-10 -52 -10 -86q0 -71 31.5 -108t103.5 -37q88 0 170.5 55.5t136.5 141t74 180.5l100 475h164l-156 -744q-6 -24 -6 -43q0 -34 24 -49.5t60 -15.5q40 0 70 10l-80 -405h-133l33 245q-60 11 -96 54.5t-36 107.5q0 7 5 47 q-57 -90 -154 -149.5t-215 -59.5q-120 0 -192 73.5t-72 203.5z" />
<glyph unicode="&#x447;" horiz-adv-x="1075" d="M78 561q0 50 14 125l64 287h159l-65 -309q-12 -66 -12 -82q0 -84 37.5 -119t119.5 -35q99 0 209 82.5t131 183.5l58 279h168l-207 -973h-168l88 422q-45 -55 -136.5 -99t-183.5 -44q-276 0 -276 282z" />
<glyph unicode="&#x448;" horiz-adv-x="1751" d="M74 244q0 44 14 116l129 613h168l-133 -619q-10 -55 -10 -96q0 -137 141 -137q66 0 124 31.5t100 85t71 119t45 139.5l100 477h168l-133 -619q-10 -55 -10 -96q0 -137 141 -137q66 0 124 31.5t100 85t71 119t45 139.5l101 477h165l-157 -744q-6 -24 -6 -43q0 -61 63 -61 q47 0 90 18l-2 -145q-60 -27 -139 -27t-124.5 43.5t-45.5 118.5q0 13 4 45q-60 -95 -139.5 -151t-194.5 -56q-103 0 -167 52.5t-83 152.5q-135 -205 -356 -205q-130 0 -197 76t-67 197z" />
<glyph unicode="&#x449;" horiz-adv-x="1751" d="M76 244q0 54 12 116l129 613h168l-131 -619q-12 -66 -12 -96q0 -137 141 -137q66 0 124 31.5t100 85t71 119t45 139.5l100 477h168l-131 -619q-12 -66 -12 -96q0 -137 141 -137q66 0 124 31.5t100 85t71 119t45 139.5l101 477h165l-157 -744q-6 -24 -6 -43 q0 -34 24 -49.5t60 -15.5q39 0 69 10l-80 -405h-133l33 245q-60 11 -95.5 54.5t-35.5 107.5q0 13 4 45q-60 -95 -139.5 -151t-194.5 -56q-103 0 -167 52.5t-83 152.5q-135 -205 -356 -205q-131 0 -196.5 73.5t-65.5 199.5z" />
<glyph unicode="&#x44a;" horiz-adv-x="1091" d="M12 834l31 139h389l-88 -395q128 131 313 131q142 0 224 -78t82 -221q0 -122 -67 -224t-175.5 -158.5t-231.5 -56.5q-168 0 -258 91.5t-90 244.5q0 77 21 180l71 347h-221zM301 291q0 -77 49 -123.5t152 -46.5q117 0 204 76t87 192q0 80 -47 126t-144 46 q-73 0 -140 -28.5t-114 -92t-47 -149.5z" />
<glyph unicode="&#x44b;" horiz-adv-x="1540" d="M82 307q0 82 20 180l103 486h168l-88 -395q128 131 313 131q142 0 223.5 -78t81.5 -221q0 -122 -67 -224t-175 -158.5t-231 -56.5q-168 0 -258 91.5t-90 244.5zM242 291q0 -77 48.5 -123.5t151.5 -46.5q117 0 204 76t87 192q0 80 -46.5 126t-143.5 46q-73 0 -140 -28.5 t-114 -92t-47 -149.5zM1038 0l207 973h166l-207 -973h-166z" />
<glyph unicode="&#x44c;" horiz-adv-x="1032" d="M82 307q0 82 20 180l103 486h168l-88 -395q128 131 313 131q142 0 223.5 -78t81.5 -221q0 -122 -67 -224t-175 -158.5t-231 -56.5q-168 0 -258 91.5t-90 244.5zM242 291q0 -77 48.5 -123.5t151.5 -46.5q117 0 204 76t87 192q0 80 -46.5 126t-143.5 46q-73 0 -140 -28.5 t-114 -92t-47 -149.5z" />
<glyph unicode="&#x44d;" horiz-adv-x="944" d="M-23 14l31 150q88 -43 213 -43q143 0 252 79.5t152 231.5h-469l26 123h473q1 7 3 24t3 31t1 25q0 113 -53.5 165t-147.5 52q-142 0 -289 -86l-25 139q156 96 345 96q72 0 131.5 -20t106.5 -61t73 -109.5t26 -159.5q0 -299 -172.5 -488.5t-439.5 -189.5q-138 0 -240 41z " />
<glyph unicode="&#x44e;" horiz-adv-x="1544" d="M25 0l208 973h166l-84 -389h230q62 190 209.5 303.5t322.5 113.5q165 0 250.5 -101.5t85.5 -272.5q0 -142 -47.5 -266t-126.5 -208.5t-182.5 -133t-214.5 -48.5q-163 0 -248.5 102t-85.5 271q0 48 6 98h-229l-95 -442h-165zM676 358q0 -117 51 -177t143 -60 q68 0 134.5 34.5t119.5 96t86 156.5t33 206q0 117 -50.5 178.5t-139.5 61.5q-69 0 -136.5 -35t-121 -97t-86.5 -157.5t-33 -206.5z" />
<glyph unicode="&#x44f;" horiz-adv-x="1075" d="M-86 0l192 258q51 68 108 107.5t130 58.5q-103 8 -174.5 66t-71.5 165q0 140 117 229t311 89h432l-204 -973h-170l80 381h-89q-177 0 -294 -158l-164 -223h-203zM266 653q0 -143 240 -143h184l72 326h-238q-115 0 -186.5 -49.5t-71.5 -133.5z" />
<glyph unicode="&#x450;" horiz-adv-x="1021" d="M51 334q0 144 47.5 270t127 212t184.5 135.5t219 49.5q150 0 228.5 -66.5t78.5 -176.5q0 -82 -36 -146t-94 -103.5t-137 -65.5t-157.5 -36t-163.5 -10q-68 0 -127 6q-2 -18 -2 -49q0 -233 225 -233q165 0 304 88l26 -139q-162 -99 -362 -99q-172 0 -266.5 97.5 t-94.5 265.5zM242 532q54 -4 92 -4q74 0 145 10t140.5 32t112 65.5t42.5 103.5q0 55 -40 85t-116 30q-130 0 -233.5 -85.5t-142.5 -236.5zM406 1454h165l166 -309h-129z" />
<glyph unicode="&#x451;" horiz-adv-x="1024" d="M53 334q0 144 47.5 270t127 212t184.5 135.5t219 49.5q150 0 228.5 -66.5t78.5 -176.5q0 -82 -36 -146t-94 -103.5t-137 -65.5t-157.5 -36t-163.5 -10q-68 0 -127 6q-2 -18 -2 -49q0 -233 225 -233q165 0 304 88l26 -139q-162 -99 -362 -99q-172 0 -266.5 97.5 t-94.5 265.5zM244 532q54 -4 92 -4q74 0 145 10t140.5 32t112 65.5t42.5 103.5q0 55 -39.5 85t-115.5 30q-130 0 -234 -85.5t-143 -236.5zM424 1204l43 197h154l-43 -197h-154zM782 1204l41 197h154l-41 -197h-154z" />
<glyph unicode="&#x452;" horiz-adv-x="1128" d="M27 0l252 1186h-175l23 106h174l35 162h166l-35 -162h385l-23 -106h-385l-79 -381q57 83 151.5 139.5t200.5 56.5q138 0 206 -101t68 -267q0 -150 -42.5 -294t-119.5 -262.5t-195 -200.5t-259 -103l-21 133q115 22 206.5 93t146.5 172t83.5 217t28.5 237q0 99 -40 160 t-117 61q-81 0 -160.5 -55t-134 -140.5t-74.5 -177.5l-98 -473h-168z" />
<glyph unicode="&#x453;" horiz-adv-x="880" d="M6 213q0 73 33 131.5t85.5 97t116.5 70t128 57t116.5 50.5t85.5 58t33 73q0 108 -182 108q-133 0 -258 -59l-21 141q50 29 132.5 45t168.5 16q156 0 244 -61t88 -176q0 -60 -25.5 -110t-67.5 -83.5t-96 -63.5t-110 -51.5t-110 -46t-96 -48.5t-67.5 -58t-25.5 -74 q0 -108 156 -108q165 0 299 90l35 -139q-157 -101 -351 -101q-140 0 -225.5 64t-85.5 178zM485 1145l232 309h184l-280 -309h-136z" />
<glyph unicode="&#x454;" horiz-adv-x="950" d="M47 322q0 145 51 273t136.5 216t199.5 139t238 51q123 0 207 -43l-33 -151q-77 47 -184 47q-133 0 -239.5 -78.5t-162.5 -208.5h428l-29 -133h-438q-6 -49 -6 -96q0 -113 53.5 -165t147.5 -52q142 0 289 86l24 -139q-157 -97 -344 -97q-72 0 -131.5 20t-106.5 61 t-73.5 110t-26.5 160z" />
<glyph unicode="&#x455;" horiz-adv-x="874" d="M-18 59l28 144q56 -39 138.5 -62.5t158.5 -23.5q91 0 147 34t56 107q0 41 -22 73.5t-57 55t-77 43t-84.5 44t-77.5 51.5t-57 71t-22 98q0 76 32.5 136t88.5 96.5t126.5 55.5t151.5 19q153 0 262 -53l-31 -147q-98 53 -247 53q-94 0 -153.5 -33t-59.5 -106q0 -33 22 -59 t57 -45.5t77.5 -39.5t85.5 -44.5t78 -55t57 -78.5t22 -108q0 -80 -32.5 -142t-87.5 -98.5t-123 -55t-144 -18.5q-88 0 -172 23.5t-141 64.5z" />
<glyph unicode="&#x456;" horiz-adv-x="514" d="M25 0l206 973h166l-207 -973h-165zM279 1194l43 203h165l-43 -203h-165z" />
<glyph unicode="&#x457;" horiz-adv-x="514" d="M25 0l206 973h166l-207 -973h-165zM111 1204l43 197h153l-43 -197h-153zM469 1204l41 197h154l-41 -197h-154z" />
<glyph unicode="&#x458;" horiz-adv-x="512" d="M-260 -387l33 147q49 -22 112 -22q44 0 69.5 24t37.5 82l239 1129h166l-241 -1129q-29 -132 -90 -197t-175 -65q-80 0 -151 31zM279 1194l43 203h165l-43 -203h-165z" />
<glyph unicode="&#x459;" horiz-adv-x="1611" d="M-115 0l33 147q45 -20 94 -20q92 0 113 106l154 740h673l-88 -395q128 131 314 131q142 0 223.5 -78t81.5 -221q0 -122 -67 -224t-175 -158.5t-231 -56.5q-168 0 -258 91.5t-90 244.5q0 82 20 180l74 349h-340l-127 -603q-15 -66 -35 -112t-52 -81t-79 -52t-111 -17 q-61 0 -127 29zM821 291q0 -77 49 -123.5t152 -46.5q117 0 204 76t87 192q0 80 -47 126t-144 46q-73 0 -140 -28.5t-114 -92t-47 -149.5z" />
<glyph unicode="&#x45a;" horiz-adv-x="1628" d="M25 0l206 973h166l-82 -391h402l84 391h168l-88 -395q128 131 313 131q142 0 223.5 -78t81.5 -221q0 -122 -67 -224t-175 -158.5t-231 -56.5q-168 0 -258 91.5t-90 244.5q0 63 10 133h-403l-95 -440h-165zM838 291q0 -77 48.5 -123.5t151.5 -46.5q117 0 204 76t87 192 q0 80 -46.5 126t-143.5 46q-73 0 -140 -28.5t-114 -92t-47 -149.5z" />
<glyph unicode="&#x45b;" horiz-adv-x="1157" d="M27 0l249 1186h-172l23 104h172l35 164h166l-37 -164h375l-25 -104h-373l-84 -391q61 88 160 147t217 59q121 0 189.5 -73.5t68.5 -202.5q0 -51 -12 -113l-131 -612h-166l129 612q10 55 10 88q0 150 -147 150q-91 0 -173.5 -55t-135 -139.5t-72.5 -180.5l-100 -475h-166z " />
<glyph unicode="&#x45c;" horiz-adv-x="985" d="M29 0l207 973h165l-104 -490l551 490h211l-494 -418l289 -555h-182l-234 449l-180 -154l-63 -295h-166zM545 1145l231 309h185l-281 -309h-135z" />
<glyph unicode="&#x45d;" horiz-adv-x="1177" d="M74 248q0 42 14 114l129 611h166l-131 -617q-10 -52 -10 -86q0 -149 135 -149q88 0 170.5 55.5t136.5 141t74 180.5l100 475h164l-156 -744q-6 -24 -6 -43q0 -61 64 -61q47 0 90 18l-2 -145q-60 -27 -140 -27q-79 0 -124.5 43.5t-45.5 118.5q0 7 5 47 q-57 -90 -154 -149.5t-215 -59.5q-120 0 -192 73.5t-72 203.5zM401 1454h166l166 -309h-129z" />
<glyph unicode="&#x45e;" horiz-adv-x="952" d="M-121 -266q73 4 132.5 30.5t105.5 74t76.5 92t66.5 110.5l-203 932h166l156 -754l424 754h188l-563 -946q-34 -58 -56 -92.5t-57.5 -84t-64.5 -80t-71.5 -66t-85 -55.5t-97.5 -35.5t-117 -19.5v140zM270 1389q0 19 4 55h117q-2 -12 -2 -33q0 -69 34.5 -106t100.5 -37 q158 0 187 176h120q-25 -139 -106.5 -216t-214.5 -77q-111 0 -175.5 65t-64.5 173z" />
<glyph unicode="&#x45f;" horiz-adv-x="1177" d="M74 248q0 42 14 114l129 611h166l-131 -617q-10 -52 -10 -86q0 -149 135 -149q88 0 170.5 55.5t136.5 141t74 180.5l100 475h164l-156 -744q-6 -24 -6 -43q0 -61 64 -61q47 0 90 18l-2 -145q-60 -27 -140 -27q-79 0 -124.5 43.5t-45.5 118.5q0 7 5 47 q-57 -90 -154 -149.5t-215 -59.5q-120 0 -192 73.5t-72 203.5zM330 -358l57 284h160l-76 -284h-141z" />
<glyph unicode="&#x462;" horiz-adv-x="1247" d="M90 1141l33 149h246l34 162h183l-35 -162h459l-33 -149h-459l-59 -281h239q210 0 323.5 -92t113.5 -254q0 -223 -170 -368.5t-439 -145.5h-432l242 1141h-246zM309 154h240q181 0 291 96t110 248q0 100 -70 154.5t-206 54.5h-248z" />
<glyph unicode="&#x463;" horiz-adv-x="1107" d="M0 836l27 137h254l65 309h166l-68 -309h347l-27 -137h-346l-58 -258q128 131 314 131q142 0 223.5 -78t81.5 -221q0 -122 -67 -224t-175 -158.5t-231 -56.5q-168 0 -258 91.5t-90 244.5q0 82 20 180l74 349h-252zM317 291q0 -77 49 -123.5t152 -46.5q117 0 204 76t87 192 q0 80 -47 126t-144 46q-73 0 -140 -28.5t-114 -92t-47 -149.5z" />
<glyph unicode="&#x472;" horiz-adv-x="1669" d="M106 567q0 177 60.5 332t169 268.5t269 179.5t351.5 66q275 0 440 -162t165 -432q0 -183 -61.5 -340t-171.5 -269t-269.5 -175.5t-347.5 -63.5q-275 0 -440 162.5t-165 433.5zM295 573q0 -204 115.5 -324t324.5 -120q239 0 404 139t215 369h-1057q-2 -20 -2 -64zM324 795 h1048v18q0 203 -115.5 322.5t-324.5 119.5q-226 0 -387 -125.5t-221 -334.5z" />
<glyph unicode="&#x473;" horiz-adv-x="1093" d="M57 344q0 143 47.5 267t126 208.5t182 133t214.5 48.5q165 0 250.5 -101.5t85.5 -272.5q0 -142 -47.5 -266t-127 -208.5t-183 -133t-214.5 -48.5q-163 0 -248.5 102t-85.5 271zM225 358q0 -117 51.5 -177t143.5 -60q112 0 211 87t139 236h-541q-4 -58 -4 -86zM260 571 h531q2 14 2 43q0 117 -51 178.5t-140 61.5q-106 0 -201 -76.5t-141 -206.5z" />
<glyph unicode="&#x474;" horiz-adv-x="1359" d="M139 1384h185l208 -1159l596 987q61 101 130 151t176 50q37 0 67 -6l-35 -154q-14 4 -39 4q-55 0 -87 -27.5t-70 -88.5l-703 -1141h-172z" />
<glyph unicode="&#x475;" horiz-adv-x="1089" d="M63 973h168l140 -778l366 608q59 100 124.5 149t166.5 49q32 0 76 -6l-31 -143q-18 4 -43 4q-54 0 -86.5 -28.5t-69.5 -90.5l-466 -737h-164z" />
<glyph unicode="&#x490;" horiz-adv-x="1007" d="M74 0l293 1384h548l74 287h160l-96 -442h-539l-260 -1229h-180z" />
<glyph unicode="&#x491;" horiz-adv-x="854" d="M27 0l204 973h461l76 287h143l-88 -424h-454l-176 -836h-166z" />
<glyph unicode="&#x1e80;" horiz-adv-x="2025" d="M156 1384h182l90 -1153l619 1153h198l137 -1153l576 1153h188l-690 -1384h-215l-137 1153l-623 -1153h-217zM909 1833h166l166 -309h-129z" />
<glyph unicode="&#x1e81;" horiz-adv-x="1595" d="M76 973h168l80 -772l436 772h166l114 -772l412 772h174l-528 -973h-170l-117 780l-449 -780h-172zM614 1454h166l166 -309h-129z" />
<glyph unicode="&#x1e82;" horiz-adv-x="2025" d="M156 1384h182l90 -1153l619 1153h198l137 -1153l576 1153h188l-690 -1384h-215l-137 1153l-623 -1153h-217zM1112 1524l231 309h185l-281 -309h-135z" />
<glyph unicode="&#x1e83;" horiz-adv-x="1595" d="M76 973h168l80 -772l436 772h166l114 -772l412 772h174l-528 -973h-170l-117 780l-449 -780h-172zM813 1145l231 309h185l-281 -309h-135z" />
<glyph unicode="&#x1e84;" horiz-adv-x="2025" d="M156 1384h182l90 -1153l619 1153h198l137 -1153l576 1153h188l-690 -1384h-215l-137 1153l-623 -1153h-217zM932 1577l43 197h153l-43 -197h-153zM1290 1577l41 197h154l-41 -197h-154z" />
<glyph unicode="&#x1e85;" horiz-adv-x="1595" d="M76 973h168l80 -772l436 772h166l114 -772l412 772h174l-528 -973h-170l-117 780l-449 -780h-172zM639 1204l43 197h154l-43 -197h-154zM997 1204l41 197h154l-41 -197h-154z" />
<glyph unicode="&#x1ef2;" horiz-adv-x="1198" d="M131 1384h195l264 -663l543 663h196l-686 -829l-117 -555h-180l117 555zM528 1833h166l166 -309h-129z" />
<glyph unicode="&#x1ef3;" horiz-adv-x="1136" d="M-16 -338l34 150q54 -33 130.5 -56.5t158.5 -23.5q283 0 348 288l31 134q-61 -80 -151 -131.5t-197 -51.5q-120 0 -192 73.5t-72 203.5q0 42 14 114l129 611h166l-131 -617q-10 -52 -10 -86q0 -149 135 -149q88 0 170.5 55.5t136.5 141t74 180.5l100 475h164l-199 -946 q-45 -215 -188.5 -330t-349.5 -115q-176 0 -301 80zM371 1454h166l165 -309h-129z" />
<glyph unicode="&#x2000;" horiz-adv-x="1059" />
<glyph unicode="&#x2001;" horiz-adv-x="2118" />
<glyph unicode="&#x2002;" horiz-adv-x="1059" />
<glyph unicode="&#x2003;" horiz-adv-x="2118" />
<glyph unicode="&#x2004;" horiz-adv-x="706" />
<glyph unicode="&#x2005;" horiz-adv-x="529" />
<glyph unicode="&#x2006;" horiz-adv-x="353" />
<glyph unicode="&#x2007;" horiz-adv-x="353" />
<glyph unicode="&#x2008;" horiz-adv-x="264" />
<glyph unicode="&#x2009;" horiz-adv-x="423" />
<glyph unicode="&#x200a;" horiz-adv-x="117" />
<glyph unicode="&#x2010;" horiz-adv-x="808" d="M129 514l33 154h500l-33 -154h-500z" />
<glyph unicode="&#x2011;" horiz-adv-x="808" d="M129 514l33 154h500l-33 -154h-500z" />
<glyph unicode="&#x2012;" horiz-adv-x="808" d="M129 514l33 154h500l-33 -154h-500z" />
<glyph unicode="&#x2013;" horiz-adv-x="1208" d="M129 522l29 140h903l-29 -140h-903z" />
<glyph unicode="&#x2014;" horiz-adv-x="2095" d="M129 522l29 140h1790l-31 -140h-1788z" />
<glyph unicode="&#x2015;" horiz-adv-x="1208" d="M129 522l29 140h903l-29 -140h-903z" />
<glyph unicode="&#x2018;" horiz-adv-x="524" d="M195 936q0 152 86 283t235 194l55 -98q-105 -58 -163 -156t-58 -217q0 -39 8 -72h-157q-6 30 -6 66z" />
<glyph unicode="&#x2019;" horiz-adv-x="524" d="M115 938q217 127 217 405v41h157q3 -21 3 -38q0 -159 -80.5 -295t-235.5 -211z" />
<glyph unicode="&#x201a;" horiz-adv-x="524" d="M-121 -219q217 127 217 405v41h158q2 -14 2 -39q0 -159 -80 -294.5t-235 -210.5z" />
<glyph unicode="&#x201c;" horiz-adv-x="872" d="M197 907q0 160 80 295.5t235 210.5l61 -98q-217 -127 -217 -406v-41h-157q-2 14 -2 39zM547 907q0 160 80 295.5t235 210.5l62 -98q-217 -127 -217 -406v-41h-158q-2 14 -2 39z" />
<glyph unicode="&#x201d;" horiz-adv-x="872" d="M115 938q217 127 217 405v41h157q3 -21 3 -38q0 -159 -80.5 -295t-235.5 -211zM463 938q217 127 217 405v41h158q2 -14 2 -38q0 -159 -80.5 -295t-235.5 -211z" />
<glyph unicode="&#x201e;" horiz-adv-x="872" d="M-121 -219q217 127 217 405v41h158q2 -14 2 -39q0 -159 -80 -294.5t-235 -210.5zM227 -219q217 127 217 405v41h158q2 -14 2 -39q0 -159 -80 -294.5t-235 -210.5z" />
<glyph unicode="&#x2020;" horiz-adv-x="815" d="M164 1063l24 111h240l45 210h143l-45 -210h242l-25 -111h-241l-90 -430h-144l90 430h-239z" />
<glyph unicode="&#x2021;" horiz-adv-x="815" d="M111 805l22 110h240l39 179h-240l23 110h239l39 180h143l-38 -180h241l-24 -110h-242l-37 -179h242l-25 -110h-241l-35 -172h-144l37 172h-239z" />
<glyph unicode="&#x2022;" horiz-adv-x="675" d="M123 655q0 101 59 160t156 59q96 0 155.5 -59.5t59.5 -159.5q0 -98 -59 -155.5t-156 -57.5q-98 0 -156.5 57t-58.5 156z" />
<glyph unicode="&#x2026;" horiz-adv-x="1533" d="M31 0l41 193h194l-41 -193h-194zM532 0l41 193h193l-41 -193h-193zM1032 0l41 193h195l-43 -193h-193z" />
<glyph unicode="&#x202f;" horiz-adv-x="423" />
<glyph unicode="&#x2030;" horiz-adv-x="2607" d="M141 848q0 154 53.5 283t151.5 205.5t219 76.5q114 0 182 -78t68 -227q0 -112 -31 -215.5t-85.5 -181t-135.5 -124t-174 -46.5q-112 0 -180 80t-68 227zM274 850q0 -178 138 -178q108 0 188.5 122.5t81.5 309.5q0 178 -137 178q-108 0 -189 -122.5t-82 -309.5zM313 0 l1051 1384h139l-1052 -1384h-138zM1004 279q0 153 53 282t150 206t218 77q114 0 182 -78t68 -227q0 -151 -52 -280t-151 -208.5t-223 -79.5q-112 2 -178.5 81t-66.5 227zM1137 281q0 -179 135 -179q109 0 189 123t81 310q0 178 -137 178q-108 0 -188 -122.5t-80 -309.5z M1794 279q0 153 53 281.5t150.5 205t218.5 76.5q114 0 182 -77.5t68 -225.5q0 -151 -52 -280t-151 -208.5t-223 -79.5q-112 0 -179 80t-67 228zM1925 281q0 -179 137 -179q108 0 189 122.5t82 310.5q0 176 -138 176q-108 0 -188.5 -121.5t-81.5 -308.5z" />
<glyph unicode="&#x2039;" horiz-adv-x="600" d="M47 508l367 407h170l-353 -413l193 -402h-145z" />
<glyph unicode="&#x203a;" horiz-adv-x="600" d="M-4 100l352 414l-192 401h145l231 -407l-366 -408h-170z" />
<glyph unicode="&#x2044;" horiz-adv-x="897" d="M-152 0l1051 1384h139l-1052 -1384h-138z" />
<glyph unicode="&#x205f;" horiz-adv-x="529" />
<glyph unicode="&#x20ac;" d="M6 489l25 111h147q6 114 29 215h-131l24 107h140q86 230 263.5 360.5t414.5 130.5q183 0 321 -55l-37 -158q-133 55 -282 55q-170 0 -297.5 -86t-198.5 -247h608l-24 -107h-623q-30 -112 -35 -215h615l-25 -111h-586q26 -360 346 -360q78 0 165.5 19.5t150.5 52.5 l18 -154q-152 -76 -346 -76q-217 0 -356 136t-154 382h-172z" />
<glyph unicode="&#x2122;" horiz-adv-x="1533" d="M170 1284l23 100h507l-20 -100h-195l-98 -467h-125l100 467h-192zM721 817l121 567h153l109 -348l252 348h170l-121 -567h-123l90 426l-231 -317h-111l-96 317l-90 -426h-123z" />
<glyph unicode="&#x2202;" horiz-adv-x="1171" d="M20 330q0 105 31 194t83 150t120.5 104.5t143 63.5t151.5 20q108 0 190.5 -40.5t128.5 -108.5q31 155 31 233q0 318 -301 318q-156 0 -293 -80l-33 141q143 84 351 84t322 -122t114 -361q0 -98 -19 -203q-60 -344 -238.5 -545t-428.5 -201q-180 0 -266.5 95.5 t-86.5 257.5zM184 342q0 -106 55 -161.5t148 -55.5q142 0 260.5 109t179.5 315q-80 164 -286 164q-66 0 -128 -22t-114 -65t-83.5 -116.5t-31.5 -167.5z" />
<glyph unicode="&#x220f;" horiz-adv-x="1509" d="M74 0l293 1384h1106l-293 -1384h-181l261 1229h-746l-258 -1229h-182z" />
<glyph unicode="&#x2211;" horiz-adv-x="1161" d="M-29 0l25 131l604 580l-367 540l29 133h936l-35 -155h-706l350 -529l-569 -546h725l-31 -154h-961z" />
<glyph unicode="&#x221a;" horiz-adv-x="1046" d="M45 838l29 135h258l96 -791l598 1202h150l-697 -1384h-160l-114 838h-160z" />
<glyph unicode="&#x221e;" horiz-adv-x="1236" d="M74 637q0 135 72 218t190 83q47 0 87 -13.5t77.5 -44t59 -52.5t58.5 -66q29 34 46 52t47.5 46t55.5 42t60.5 25t73.5 11q118 0 190 -83t72 -218t-72 -218t-190 -83q-38 0 -73.5 11t-60.5 25t-55.5 42t-47.5 46t-46 52q-37 -44 -58.5 -66t-59 -52.5t-77.5 -44t-87 -13.5 q-118 0 -190 83t-72 218zM207 637q0 -76 37.5 -118t99.5 -42q39 0 77 23t62.5 49.5t75.5 87.5q-51 61 -75.5 87.5t-62.5 49.5t-77 23q-62 0 -99.5 -42t-37.5 -118zM678 637q51 -61 75.5 -87.5t62.5 -49.5t77 -23q62 0 99.5 42t37.5 118t-37.5 118t-99.5 42q-39 0 -77 -23 t-62.5 -49.5t-75.5 -87.5z" />
<glyph unicode="&#x222b;" horiz-adv-x="505" d="M-285 -418l33 152q97 0 159 48t87 163l254 1181q39 184 139 270.5t291 86.5l-33 -152q-97 0 -159 -48t-87 -163l-249 -1173q-42 -190 -143 -277.5t-292 -87.5z" />
<glyph unicode="&#x2248;" d="M102 403q91 136 252 136q78 0 244 -46.5t227 -46.5t97.5 21.5t68.5 67.5l82 -103q-91 -135 -254 -135q-78 0 -242.5 47t-226.5 47q-61 0 -97.5 -21.5t-70.5 -68.5zM111 840q88 133 251 133q78 0 243 -46t226 -46t98 21.5t70 68.5l80 -105q-92 -133 -252 -133 q-78 0 -243.5 46t-227.5 46q-60 0 -97.5 -21.5t-68.5 -68.5z" />
<glyph unicode="&#x2260;" d="M115 350v135h315l193 301h-508v136h594l151 235h131l-151 -235h229v-136h-315l-193 -301h508v-135h-596l-154 -241h-129l154 241h-229z" />
<glyph unicode="&#x2264;" d="M115 0v135h954v-135h-954zM115 602v146l954 370v-149l-776 -295l776 -295v-150z" />
<glyph unicode="&#x2265;" d="M115 0v135h954v-135h-954zM115 229v150l776 295l-776 295v149l954 -370v-146z" />
<glyph unicode="&#x25ca;" horiz-adv-x="1062" d="M47 682l567 702h123l271 -702l-564 -682h-125zM197 670l204 -518l459 548l-205 531z" />
<glyph unicode="&#xe000;" horiz-adv-x="972" d="M0 0v973h973v-973h-973z" />
</font>
</defs>
</svg>
