<?xml version="1.0" standalone="no"?>
<!DOCTYPE svg PUBLIC "-//W3C//DTD SVG 1.1//EN" "http://www.w3.org/Graphics/SVG/1.1/DTD/svg11.dtd" >
<svg xmlns="http://www.w3.org/2000/svg">
<metadata></metadata>
<defs>
<font id="peugeot_styleregular" horiz-adv-x="1650" >
<font-face units-per-em="2048" ascent="1638" descent="-410" />
<missing-glyph horiz-adv-x="614" />
<glyph unicode="&#xfb01;" horiz-adv-x="1753" d="M0 0l260 752h-188l75 221h191l37 106q40 114 128 200.5t206 137t251 75t279 24.5t297 -24t268 -65l-82 -237q-88 33 -220.5 54.5t-246.5 21.5q-363 0 -430 -197l-32 -96h899l-334 -973h-461l258 752h-440l-258 -752h-457z" />
<glyph unicode="&#xfb02;" horiz-adv-x="1744" d="M0 0l258 752h-186l75 221h187l37 106q40 114 128 200.5t207.5 137t255 75t285.5 24.5t312.5 -24t277.5 -65l-485 -1427h-461l432 1266q-46 6 -98 6q-63 0 -121.5 -9.5t-116 -31.5t-100.5 -63.5t-62 -98.5l-32 -96h219l-76 -221h-221l-258 -752h-457z" />
<glyph horiz-adv-x="2048" />
<glyph horiz-adv-x="2048" />
<glyph unicode="&#xd;" horiz-adv-x="2048" />
<glyph unicode=" "  horiz-adv-x="614" />
<glyph unicode="&#x09;" horiz-adv-x="614" />
<glyph unicode="&#xa0;" horiz-adv-x="614" />
<glyph unicode="!" horiz-adv-x="901" d="M8 0l119 350h496l-119 -350h-496zM201 463l243 921h584l-401 -921h-426z" />
<glyph unicode="&#x22;" horiz-adv-x="1236" d="M258 872l76 512h497l-278 -512h-295zM846 872l76 512h497l-278 -512h-295z" />
<glyph unicode="#" horiz-adv-x="1875" d="M-2 328l68 194h333l127 365h-336l68 194h334l104 303h326l-104 -303h376l105 303h332l-105 -303h330l-68 -194h-329l-125 -365h329l-67 -194h-330l-115 -328h-327l112 328h-379l-112 -328h-326l113 328h-334zM725 522h377l127 365h-379z" />
<glyph unicode="$" horiz-adv-x="1460" d="M0 193l94 229q210 -119 527 -119q122 0 182.5 32t60.5 83q0 29 -34.5 52.5t-89 43.5t-121 42.5t-133 54.5t-121 73t-89 106t-34.5 146q0 112 80 195t213.5 127.5t310.5 54.5l74 203h294l-75 -207q200 -14 344 -64l-92 -246q-66 29 -185.5 48.5t-236.5 19.5 q-262 0 -262 -92q0 -31 34 -56.5t89 -46t121 -43.5t132 -55t121 -72.5t89 -104.5t34 -144q0 -92 -44 -164.5t-125 -120.5t-188.5 -76t-240.5 -37l-76 -209h-295l76 213q-269 28 -434 134z" />
<glyph unicode="%" horiz-adv-x="2570" d="M174 897q0 228 166 377t420 149q191 0 303.5 -97t112.5 -265q0 -228 -166 -377t-420 -149q-191 0 -303.5 97t-112.5 265zM494 891q0 -78 30.5 -123t83.5 -45q108 0 178 97t70 247q0 80 -33.5 125t-93.5 45q-105 0 -170 -99t-65 -247zM528 0l1239 1382h322l-1237 -1382 h-324zM1454 324q0 228 166 377t420 149q191 0 303.5 -97.5t112.5 -265.5q0 -228 -166 -377t-420 -149q-191 0 -303.5 97.5t-112.5 265.5zM1774 317q0 -78 30.5 -122.5t83.5 -44.5q108 0 178 97t70 247q0 80 -33.5 125t-93.5 45q-105 0 -170 -99.5t-65 -247.5z" />
<glyph unicode="&#x26;" horiz-adv-x="2164" d="M49 367q0 75 30 137.5t77 104t112 72.5t129 47.5t133 25.5q-45 10 -84 26t-75.5 43.5t-58 70.5t-21.5 97q0 73 34.5 134.5t91 105t134.5 78t160 55.5t172 34.5t166 19t147 5.5q385 0 657 -82l-81 -247q-246 71 -553 71q-400 0 -400 -180q0 -62 55 -95.5t150 -33.5h154 l-88 -262h-150q-66 0 -126 -9.5t-115 -30.5t-88 -61t-33 -94q0 -79 84.5 -129.5t224.5 -50.5q231 0 372 97.5t199 277.5h-209l88 262h856l-86 -262h-192q-50 -142 -144.5 -256.5t-232 -199.5t-325.5 -131t-412 -46q-161 0 -296 24.5t-238 73.5t-160.5 127.5t-57.5 180.5z " />
<glyph unicode="'" horiz-adv-x="649" d="M258 872l76 512h497l-278 -512h-295z" />
<glyph unicode="(" horiz-adv-x="870" d="M78 291q0 188 56 358.5t162 317t237.5 269t304.5 241.5h405q-150 -110 -261.5 -204.5t-222.5 -216.5t-181.5 -242.5t-114 -270.5t-43.5 -312q0 -297 137 -639h-309q-170 378 -170 699z" />
<glyph unicode=")" horiz-adv-x="870" d="M-408 -408q105 77 189 144.5t172 150t154 160.5t126.5 171t99 187.5t61 205t22.5 227.5q0 296 -137 639h309q170 -378 170 -699q0 -188 -56 -358.5t-162 -317t-237.5 -269t-304.5 -241.5h-406z" />
<glyph unicode="*" horiz-adv-x="1181" d="M203 836l329 182l-325 69l121 224l311 -156l-2 229h348l-125 -233l393 152l25 -226l-381 -65l197 -183l-326 -165l-61 278l-246 -274z" />
<glyph unicode="+" horiz-adv-x="1683" d="M90 500l88 264h561l133 387h312l-133 -387h557l-90 -264h-560l-131 -389h-313l135 389h-559z" />
<glyph unicode="," horiz-adv-x="878" d="M-106 -260l253 614h543l-483 -614h-313z" />
<glyph unicode="-" horiz-adv-x="1251" d="M119 457l78 227h919l-78 -227h-919z" />
<glyph unicode="." horiz-adv-x="878" d="M-41 0l123 354h549l-123 -354h-549z" />
<glyph unicode="/" horiz-adv-x="776" d="M-113 0l766 1382h314l-772 -1382h-308z" />
<glyph unicode="0" horiz-adv-x="1734" d="M98 557q0 136 52 267.5t144 238t211 188.5t260.5 127t283.5 45q182 0 331.5 -75.5t236.5 -213t87 -309.5q0 -169 -80.5 -329t-211.5 -276.5t-304 -187.5t-350 -71q-185 0 -335 74.5t-237.5 211.5t-87.5 310zM477 586q0 -152 91.5 -252.5t236.5 -100.5q95 0 190 47 t168 123.5t118.5 181.5t45.5 214q0 152 -91.5 252t-236.5 100q-127 0 -248 -78.5t-197.5 -210.5t-76.5 -276z" />
<glyph unicode="1" horiz-adv-x="1101" d="M164 944q154 129 336 249t334 191h354q-87 -210 -241 -662.5t-234 -721.5h-400q102 362 308 938q-125 -45 -365 -168z" />
<glyph unicode="2" horiz-adv-x="1509" d="M-31 0l86 248q1 0 81.5 46t148 85t162 94.5t179 108.5t144.5 94q134 92 196 161.5t62 135.5q0 80 -65.5 126t-180.5 46q-156 0 -417 -141l-119 223q329 198 694 198q134 0 236.5 -30t163.5 -82.5t91.5 -118t30.5 -141.5q0 -49 -14 -97.5t-35 -90t-60 -86.5t-74 -79.5 t-93 -77.5t-101 -72.5t-114 -72t-115.5 -68t-122.5 -69.5t-119 -68h738l-95 -272h-1288z" />
<glyph unicode="3" horiz-adv-x="1560" d="M-53 63l92 263q263 -95 428 -95q225 0 354 64t129 178q0 95 -100 142t-311 47h-86l-66 124l641 326h-711l80 272h1268l-84 -247l-532 -281q366 -74 366 -354q0 -83 -33.5 -160t-106.5 -147t-178 -121.5t-257.5 -82t-335.5 -30.5q-250 0 -557 102z" />
<glyph unicode="4" horiz-adv-x="1579" d="M-14 240l67 245q191 334 533 580t704 319h355q-100 -239 -314 -872h215l-92 -272h-211q-33 -96 -76 -240h-397q23 86 72 240h-856zM481 512h449q112 338 186 541q-195 -69 -375 -230t-260 -311z" />
<glyph unicode="5" horiz-adv-x="1521" d="M-2 68l88 254q242 -91 381 -91q222 0 346.5 65t124.5 187q0 100 -100.5 148.5t-329.5 48.5q-83 0 -182 -6l-68 131q37 141 104 324t111 255h1065l-94 -272h-703q-36 -81 -65 -197h53q327 0 501.5 -103t174.5 -296q0 -80 -28.5 -156t-94.5 -149.5t-164 -128t-249 -88 t-337 -33.5q-244 0 -534 107z" />
<glyph unicode="6" horiz-adv-x="1652" d="M104 463q0 163 66.5 316t191.5 278q366 366 1053 366q109 0 256 -10l-94 -266q-102 10 -180 10q-223 0 -399.5 -61t-239.5 -158q41 28 117 47t157 19q211 0 346 -108.5t135 -289.5q0 -189 -106.5 -337t-291 -228t-413.5 -80q-283 0 -440.5 131.5t-157.5 370.5zM522 430 q0 -86 65.5 -142.5t162.5 -56.5q87 0 169 43t133.5 115.5t51.5 153.5q0 66 -41 119q-29 38 -78 59.5t-108 21.5q-87 0 -169 -43.5t-134 -116.5t-52 -153z" />
<glyph unicode="7" horiz-adv-x="1427" d="M219 0q125 304 361 623.5t471 488.5h-828l94 272h1289l-86 -249q-265 -179 -495.5 -484.5t-344.5 -650.5h-461z" />
<glyph unicode="8" d="M53 365q0 126 95.5 237.5t263.5 183.5l16 9l-12 12q-82 82 -82 188q0 127 91 224.5t252.5 150.5t369.5 53q138 0 253.5 -44t183.5 -121.5t68 -172.5q0 -86 -57.5 -168t-161.5 -147l-16 -10l16 -10q37 -26 68 -57.5t59.5 -90.5t28.5 -125q0 -142 -104.5 -261t-281 -187 t-382.5 -68q-403 0 -578 193q-90 96 -90 211zM442 387q0 -78 77 -127t192 -49q150 0 269.5 76.5t119.5 175.5q0 77 -78.5 125.5t-190.5 48.5q-97 0 -187 -34.5t-146 -92.5t-56 -123zM711 1001q0 -55 54 -87.5t140 -32.5q108 0 193.5 51t85.5 121q0 55 -56.5 89t-138.5 34 q-107 0 -192.5 -53.5t-85.5 -121.5z" />
<glyph unicode="9" horiz-adv-x="1652" d="M55 -29l95 267q112 -11 180 -11q223 0 399.5 61t239.5 158q-40 -28 -116.5 -46.5t-158.5 -18.5q-211 0 -346 108t-135 289q0 189 106.5 337t291 228t413.5 80q283 0 440.5 -131t157.5 -370q0 -163 -66.5 -316t-191.5 -278q-367 -367 -1053 -367q-109 0 -256 10zM623 842 q0 -66 41 -119q29 -38 78.5 -60t107.5 -22q87 0 169 43.5t133.5 116.5t51.5 153q0 86 -65 142.5t-162 56.5q-87 0 -169 -42.5t-133.5 -115t-51.5 -153.5z" />
<glyph unicode=":" horiz-adv-x="878" d="M-20 0l122 354h549l-123 -354h-548zM188 621l123 354h549l-123 -354h-549z" />
<glyph unicode=";" horiz-adv-x="878" d="M-152 -283l254 615h543l-483 -615h-314zM188 621l123 354h549l-123 -354h-549z" />
<glyph unicode="&#x3c;" horiz-adv-x="1683" d="M96 522l119 342l1536 310l-102 -300l-1133 -217l959 -288l-95 -271z" />
<glyph unicode="=" horiz-adv-x="1683" d="M6 266l90 264h1430l-90 -264h-1430zM168 735l90 264h1430l-91 -264h-1429z" />
<glyph unicode="&#x3e;" horiz-adv-x="1683" d="M-49 98l102 299l1133 217l-959 289l95 271l1284 -424l-119 -342z" />
<glyph unicode="?" horiz-adv-x="1298" d="M215 0l121 350h526l-119 -350h-528zM307 1352q88 32 233.5 51.5t288.5 19.5q113 0 212 -16.5t188 -52.5t141.5 -103t52.5 -159q0 -63 -22 -117.5t-64 -99t-88.5 -78.5t-109.5 -70q-21 -12 -61 -32.5t-63 -33.5t-51 -31t-44 -36t-23 -37l-31 -94h-471l41 121 q35 104 84.5 164.5t167.5 123.5q33 18 74 37.5t66 31t51.5 26.5t41 27.5t24 29.5t9.5 37q0 92 -206 92q-107 0 -223.5 -21.5t-200.5 -54.5z" />
<glyph unicode="@" horiz-adv-x="2117" d="M45 391q0 162 59.5 301t165.5 241t250 174t314.5 108t357.5 36q193 0 348.5 -43.5t258 -121.5t157.5 -186t55 -236q0 -225 -144 -368.5t-399 -143.5q-142 0 -216.5 29t-108.5 89q-154 -118 -336 -118q-53 0 -101 9t-92 30t-76.5 52.5t-51.5 79t-19 107.5q0 86 40.5 158.5 t107 120.5t154 81.5t179.5 48.5t185 15q125 0 250.5 -23.5t203.5 -58.5l-102 -311q-10 -30 -10 -49q0 -68 81 -68q104 0 177 85t73 226q0 71 -20.5 134t-68 119.5t-119 97t-179.5 64.5t-243 24q-141 0 -273.5 -25.5t-251.5 -81t-208 -135.5t-141 -196.5t-52 -256.5 q0 -104 35 -188.5t95 -141.5t142 -95t173 -55t192 -17q321 0 620 127l41 -158q-285 -133 -674 -133q-128 0 -246.5 23.5t-225.5 75t-185.5 126t-125 184.5t-46.5 244zM827 440q0 -96 105 -96q44 0 94 18t80 44l96 280q-25 2 -82 2q-49 0 -98 -14.5t-94 -42.5t-73 -78 t-28 -113z" />
<glyph unicode="A" horiz-adv-x="1824" d="M-287 0l1250 1384h419l306 -1384h-508l-41 219h-815l-195 -219h-416zM553 471h537l-95 494z" />
<glyph unicode="B" horiz-adv-x="1867" d="M-39 0l475 1384h750q103 0 194 -8.5t183 -32.5t157.5 -61t106.5 -99t41 -143q0 -72 -32.5 -133t-87 -102.5t-118 -69t-133.5 -41.5q97 -27 161 -98t64 -178q0 -93 -55 -166.5t-145 -120t-213 -77t-249.5 -42.5t-264.5 -12h-834zM553 256h291q160 0 255 45t95 135 q0 38 -16 64.5t-38.5 41t-60.5 22.5t-68 9.5t-75 1.5h-272zM745 817h265q154 0 240.5 43t86.5 131q0 37 -15 63t-36.5 40t-56.5 22t-65 10t-72 2h-240z" />
<glyph unicode="C" horiz-adv-x="1685" d="M100 543q0 129 35 242t97 201t149 160.5t190 123.5t220.5 85.5t240 51t248.5 16.5q248 0 467 -59l-88 -260q-166 41 -332 41q-115 0 -218 -19t-195.5 -62.5t-159 -108.5t-105.5 -162t-39 -218q0 -82 26 -143.5t68.5 -99t105.5 -61t129 -32t146 -8.5q177 0 375 31 l-88 -266q-158 -35 -391 -35q-143 0 -265.5 16t-238.5 56.5t-197.5 105t-130.5 167.5t-49 237z" />
<glyph unicode="D" horiz-adv-x="1988" d="M-39 0l475 1384h707q395 0 605 -150t210 -425q0 -133 -46.5 -252.5t-144.5 -221.5t-240 -176.5t-343.5 -116.5t-444.5 -42h-778zM553 256h235q143 0 257 29.5t190 80t126.5 121t72.5 149.5t22 169q0 153 -100 238t-305 85h-199z" />
<glyph unicode="E" horiz-adv-x="1724" d="M-39 0l475 1384h1401l-88 -256h-897l-109 -311h828l-84 -242h-825l-109 -319h936l-88 -256h-1440z" />
<glyph unicode="F" horiz-adv-x="1648" d="M-39 0l475 1384h1356l-88 -256h-852l-129 -376h788l-81 -242h-791l-174 -510h-504z" />
<glyph unicode="G" horiz-adv-x="2084" d="M98 547q0 156 54 287t150.5 225.5t222.5 165.5t277 113.5t306 63.5t317 21q345 0 615 -80l-88 -260q-228 66 -504 66q-91 0 -176.5 -8.5t-170.5 -28.5t-157.5 -50.5t-135.5 -76.5t-107.5 -104t-69.5 -136t-25 -170q0 -97 38.5 -166.5t106.5 -107.5t148.5 -55t177.5 -17 q107 0 250 25l92 276h-403l84 242h891l-238 -686q-125 -53 -331 -89t-402 -36q-152 0 -282.5 17t-251 59.5t-204.5 108t-134 168t-50 233.5z" />
<glyph unicode="H" horiz-adv-x="2109" d="M-39 0l475 1384h504l-192 -557h772l192 557h504l-475 -1384h-504l193 565h-773l-192 -565h-504z" />
<glyph unicode="I" horiz-adv-x="833" d="M-39 0l475 1384h504l-475 -1384h-504z" />
<glyph unicode="J" horiz-adv-x="1189" d="M-154 39l86 248q114 -54 246 -54q96 0 156 32t86 110l346 1009h504l-338 -985q-76 -222 -239 -330t-439 -108q-252 0 -408 78z" />
<glyph unicode="K" horiz-adv-x="1828" d="M-39 0l475 1384h504l-199 -577l842 577h481l-872 -604l537 -780h-586l-359 516l-186 -127l-133 -389h-504z" />
<glyph unicode="L" horiz-adv-x="1515" d="M-39 0l475 1384h504l-387 -1128h829l-84 -256h-1337z" />
<glyph unicode="M" horiz-adv-x="2543" d="M-39 0l475 1384h545l203 -972l858 972h608l-475 -1384h-496l297 866l-757 -866h-449l-178 866l-299 -866h-332z" />
<glyph unicode="N" horiz-adv-x="1970" d="M-39 0l475 1384h318l694 -854l291 854h338l-475 -1384h-320l-692 846l-291 -846h-338z" />
<glyph unicode="O" horiz-adv-x="2039" d="M98 592q0 124 44.5 243.5t137 226t222 187t312 127.5t394.5 47q384 0 592.5 -165.5t208.5 -464.5q0 -124 -44.5 -243.5t-137 -226.5t-221.5 -187.5t-311 -127.5t-394 -47q-385 0 -594 166t-209 465zM598 616q0 -82 19.5 -150.5t61.5 -125.5t116.5 -89t175.5 -32 q106 0 196 32.5t151.5 87t105.5 126t64.5 148.5t20.5 155q0 82 -19.5 150.5t-61 125.5t-116 89t-175.5 32q-131 0 -237 -49.5t-170 -129.5t-98 -175.5t-34 -194.5z" />
<glyph unicode="P" horiz-adv-x="1810" d="M-39 0l475 1384h707q346 0 527 -113t181 -333q0 -118 -58 -212.5t-155 -156.5t-228.5 -103.5t-271.5 -59t-292 -17.5q-115 0 -244 12l-137 -401h-504zM690 657q61 -6 164 -6q69 0 131 6t128 24t113.5 47t78 79t30.5 115q0 100 -73 153t-199 53h-211z" />
<glyph unicode="Q" horiz-adv-x="2039" d="M98 592q0 124 44.5 243.5t137 226t222 187t312 127.5t394.5 47q384 0 592.5 -165.5t208.5 -464.5q0 -120 -45.5 -235t-131.5 -214t-217 -179.5t-294 -127.5l360 -293l-505 -119l-328 336q-360 13 -555 177.5t-195 453.5zM598 616q0 -82 19.5 -150.5t61.5 -125.5 t116.5 -89t175.5 -32q106 0 196 32.5t151.5 87t105.5 126t64.5 148.5t20.5 155q0 82 -19.5 150.5t-61 125.5t-116 89t-175.5 32q-131 0 -237 -49.5t-170 -129.5t-98 -175.5t-34 -194.5z" />
<glyph unicode="R" horiz-adv-x="1828" d="M-39 0l475 1384h680q725 0 725 -405q0 -78 -28 -145.5t-77.5 -119.5t-120 -93.5t-153 -70.5t-180.5 -48l352 -502h-573l-260 428q-31 0 -189 10l-147 -438h-504zM702 694q67 -6 150 -6q220 0 346.5 65t126.5 193q0 182 -270 182h-203z" />
<glyph unicode="S" horiz-adv-x="1576" d="M49 78l47 270q101 -56 244 -87.5t285 -31.5q282 0 282 138q0 40 -37 71.5t-95.5 54.5t-129.5 47t-142.5 58.5t-130 80t-95.5 119.5t-37 169q0 141 99 245.5t271 157.5t394 53q174 0 327.5 -22.5t247.5 -59.5l-86 -262q-82 35 -209 55.5t-248 20.5q-305 0 -305 -125 q0 -30 28.5 -55.5t75 -44t106.5 -42t122 -47t122 -61t106.5 -82t75 -112.5t28.5 -150q0 -155 -99.5 -264t-267.5 -160t-391 -51q-138 0 -304.5 33t-283.5 84z" />
<glyph unicode="T" horiz-adv-x="1777" d="M197 1110l94 274h1749l-94 -274h-615l-381 -1110h-506l381 1110h-628z" />
<glyph unicode="U" horiz-adv-x="1867" d="M123 430q0 105 41 223l252 731h504l-275 -798q-27 -76 -27 -140q0 -108 75.5 -167.5t215.5 -59.5q178 0 302.5 96.5t179.5 264.5l264 804h325l-301 -862q-97 -280 -305 -420.5t-551 -140.5q-339 0 -519.5 127t-180.5 342z" />
<glyph unicode="V" horiz-adv-x="1763" d="M213 1384h487l185 -978l766 978h407l-1145 -1384h-415z" />
<glyph unicode="W" horiz-adv-x="2666" d="M301 0v1384h473v-970l547 788h483l119 -788l657 970h355l-930 -1384h-487l-115 807l-569 -807h-533z" />
<glyph unicode="X" horiz-adv-x="1808" d="M-203 0l873 713l-418 671h553l248 -407l501 407h490l-850 -643l459 -741h-547l-291 475l-545 -475h-473z" />
<glyph unicode="Y" horiz-adv-x="1644" d="M184 1384h516l275 -579l598 579h420l-901 -854l-179 -530h-503l194 575z" />
<glyph unicode="Z" horiz-adv-x="1824" d="M18 229l1141 879h-887l78 276h1462l48 -221l-1139 -887h915l-75 -276h-1493z" />
<glyph unicode="[" horiz-adv-x="899" d="M-178 -408l647 1885h715l-80 -232h-326l-491 -1421h327l-79 -232h-713z" />
<glyph unicode="\" horiz-adv-x="999" d="M352 1384h271l159 -1384h-278z" />
<glyph unicode="]" horiz-adv-x="899" d="M-324 -408l80 232h326l491 1421h-327l80 232h712l-647 -1885h-715z" />
<glyph unicode="^" horiz-adv-x="1452" d="M57 477l820 907h249l250 -907h-278l-166 600l-539 -600h-336z" />
<glyph unicode="_" horiz-adv-x="1875" d="M-174 -262l61 180h1768l-62 -180h-1767z" />
<glyph unicode="`" horiz-adv-x="1732" d="M530 1423h439l170 -313h-330z" />
<glyph unicode="a" d="M0 319q0 103 31 193.5t85.5 160t131.5 126t166.5 95.5t192.5 65.5t208.5 38.5t214.5 12q302 0 537 -80l-320 -930h-428l37 115q-81 -72 -198 -113t-238 -41q-85 0 -158.5 21t-133 63t-94 112.5t-34.5 161.5zM457 389q0 -162 159 -162q68 0 145 27t134 65l164 472 q-58 4 -86 4q-74 0 -146 -15t-139.5 -47.5t-118.5 -79t-81.5 -115t-30.5 -149.5z" />
<glyph unicode="b" horiz-adv-x="1617" d="M-57 51l489 1426h459l-205 -596q76 60 185.5 94.5t220.5 34.5q83 0 155.5 -20.5t131 -62t92.5 -111.5t34 -161q0 -142 -58 -259.5t-155 -196.5t-227 -134t-271.5 -79.5t-291.5 -24.5q-339 0 -559 90zM446 180q29 -4 91 -4q93 0 182 25t163.5 73t120.5 127.5t46 178.5 q0 86 -43.5 124.5t-116.5 38.5q-68 0 -145 -27t-134 -65z" />
<glyph unicode="c" horiz-adv-x="1312" d="M4 387q0 123 52.5 227t140.5 176t203.5 122.5t240.5 74t252 23.5q226 0 383 -56l-78 -219q-130 45 -287 45q-69 0 -132.5 -12.5t-122.5 -42t-103 -72.5t-70 -109.5t-26 -148.5q0 -200 258 -200q88 0 183 20.5t159 44.5l-39 -240q-195 -59 -402 -59q-97 0 -182 12.5 t-165.5 43t-138 77.5t-92 122t-34.5 171z" />
<glyph unicode="d" d="M0 319q0 103 31 193.5t85.5 160t131.5 126t166.5 95.5t192.5 65.5t208.5 38.5t214.5 12q68 0 103 -2l163 469h459l-508 -1477h-428l37 115q-81 -72 -198 -113t-238 -41q-85 0 -158.5 21t-133 63t-94 112.5t-34.5 161.5zM457 389q0 -162 159 -162q68 0 145 27t134 65 l164 472q-58 4 -86 4q-74 0 -146 -15t-139.5 -47.5t-118.5 -79t-81.5 -115t-30.5 -149.5z" />
<glyph unicode="e" horiz-adv-x="1558" d="M4 389q0 144 71 263.5t189 196.5t267 119t309 42q297 0 446.5 -112.5t149.5 -301.5q0 -78 -35 -188h-942q-2 -10 -2 -29q0 -182 348 -182q212 0 473 61l-39 -231q-292 -66 -539 -66q-108 0 -203.5 11.5t-188 42t-158 77.5t-106 123t-40.5 174zM502 586h487q4 16 4 45 q0 77 -49.5 120.5t-142.5 43.5q-112 0 -189 -59t-110 -150z" />
<glyph unicode="f" horiz-adv-x="1040" d="M0 0l260 752h-188l75 221h189l55 157q35 102 99.5 177.5t151.5 120.5t188 66.5t219 21.5q167 0 270 -35l-80 -234q-79 29 -172 29q-84 0 -140.5 -35t-84.5 -119l-49 -149h344l-76 -221h-346l-258 -752h-457z" />
<glyph unicode="g" horiz-adv-x="1646" d="M-115 -299l84 248q206 -105 432 -105q344 0 414 244l10 37q-79 -58 -188.5 -91.5t-220.5 -33.5q-82 0 -152.5 20.5t-128 61.5t-90.5 112.5t-33 165.5q0 103 30 191t83 154t128.5 118t163 87t190 57.5t205.5 32.5t214 10q302 0 537 -80l-303 -889q-155 -449 -840 -449 q-153 0 -298.5 30.5t-236.5 78.5zM469 430q0 -162 160 -162q68 0 144.5 27t133.5 65l148 431q-58 4 -86 4q-95 0 -180 -19.5t-159 -60.5t-117.5 -114t-43.5 -171z" />
<glyph unicode="h" horiz-adv-x="1654" d="M-70 0l508 1477h461l-205 -596q219 129 463 129q165 0 262 -83t97 -231q0 -83 -35 -186l-174 -510h-461l188 549q15 44 15 78q0 51 -32 78.5t-95 27.5q-154 0 -314 -106l-217 -627h-461z" />
<glyph unicode="i" horiz-adv-x="786" d="M-70 0l334 973h461l-334 -973h-461zM319 1128l119 349h459l-119 -349h-459z" />
<glyph unicode="j" horiz-adv-x="786" d="M-442 -379l77 225q49 -14 105 -14q135 0 186 152l338 989h461l-338 -987q-64 -188 -221.5 -291t-392.5 -103q-132 0 -215 29zM319 1128l119 349h459l-119 -349h-459z" />
<glyph unicode="k" horiz-adv-x="1466" d="M-70 0l508 1477h459l-272 -797l462 293h467l-579 -350l311 -623h-491l-172 416l-111 -68l-121 -348h-461z" />
<glyph unicode="l" horiz-adv-x="786" d="M-70 0l508 1477h461l-508 -1477h-461z" />
<glyph unicode="m" horiz-adv-x="2529" d="M-70 0l334 973h426l-35 -117q113 75 227.5 114.5t254.5 39.5q123 0 209.5 -49t123.5 -138q180 104 306.5 145.5t255.5 41.5q165 0 261.5 -83t96.5 -231q0 -83 -35 -186l-174 -510h-461l189 549q14 43 14 82q0 102 -121 102q-139 0 -299 -106l-217 -627h-461l193 561 q12 37 12 70q0 47 -31 74.5t-92 27.5q-139 0 -299 -106l-217 -627h-461z" />
<glyph unicode="n" horiz-adv-x="1654" d="M-70 0l334 973h426l-35 -117q234 154 502 154q165 0 262 -83t97 -231q0 -83 -35 -186l-174 -510h-461l188 549q15 44 15 78q0 51 -32 78.5t-95 27.5q-154 0 -314 -106l-217 -627h-461z" />
<glyph unicode="o" horiz-adv-x="1626" d="M4 373q0 153 74.5 276.5t201 201t288 118.5t341.5 41q295 0 449.5 -109t154.5 -305q0 -123 -48.5 -227.5t-133.5 -178.5t-200 -126.5t-247.5 -77.5t-275.5 -25q-295 0 -449.5 108t-154.5 304zM459 403q0 -112 53.5 -169.5t155.5 -57.5q164 0 277.5 113.5t113.5 275.5 q0 112 -54 171t-155 59q-163 0 -277 -115t-114 -277z" />
<glyph unicode="p" horiz-adv-x="1622" d="M-203 -389l467 1362h426l-35 -115q82 69 203 110.5t244 41.5q83 0 154.5 -20.5t129.5 -61.5t91.5 -111t33.5 -162q0 -140 -55.5 -257t-150 -196.5t-221.5 -134.5t-267 -80.5t-289 -25.5q-75 0 -149 6l-123 -356h-459zM455 180q29 -4 86 -4q74 0 145.5 14.5t138.5 47 t117 78.5t80.5 114.5t30.5 149.5q0 161 -160 161q-68 0 -145 -27t-134 -65z" />
<glyph unicode="q" d="M0 319q0 103 31 193.5t85.5 160t131.5 126t166.5 95.5t192.5 65.5t208.5 38.5t214.5 12q302 0 537 -80l-453 -1319h-461l164 475q-67 -54 -175 -89.5t-222 -35.5q-83 0 -156 20.5t-133.5 62t-95.5 112.5t-35 163zM457 389q0 -162 159 -162q68 0 145 27t134 65l164 472 q-58 4 -86 4q-74 0 -146 -15t-139.5 -47.5t-118.5 -79t-81.5 -115t-30.5 -149.5z" />
<glyph unicode="r" horiz-adv-x="1161" d="M-70 0l332 973h432l-55 -166q51 43 94.5 73t107 63t142 50t168.5 17l-113 -353q-295 0 -442 -69l-205 -588h-461z" />
<glyph unicode="s" horiz-adv-x="1318" d="M-49 78l80 231q94 -53 211 -87t217 -34q168 0 168 80q0 24 -29 40.5t-75.5 28.5t-102.5 24.5t-112.5 34t-103 51.5t-75.5 82.5t-29 121.5q0 91 57.5 162.5t154 113t211.5 62.5t241 21q269 0 450 -72l-69 -219q-61 26 -173.5 45.5t-211.5 19.5q-88 0 -144.5 -21.5 t-56.5 -62.5q0 -17 24 -31t64 -23t90.5 -22t103 -26.5t103 -38.5t90.5 -56.5t64 -81.5t24 -112q0 -90 -50 -158.5t-140 -109t-205.5 -60.5t-255.5 -20q-295 0 -520 117z" />
<glyph unicode="t" horiz-adv-x="1134" d="M72 752l78 221h186l78 223l475 59l-96 -282h344l-76 -221h-344l-131 -377q-13 -37 -13 -60q0 -88 125 -88q97 0 197 27l-18 -244q-169 -49 -359 -49q-119 0 -207 27.5t-143 93.5t-55 166q0 79 28 162l119 342h-188z" />
<glyph unicode="u" horiz-adv-x="1660" d="M27 276q0 86 34 187l175 510h460l-194 -555q-15 -44 -15 -78q0 -51 32 -79t95 -28q72 0 152 29.5t145 71.5l219 639h461l-334 -973h-426l35 117q-116 -76 -229.5 -117t-251.5 -41q-164 0 -261 84.5t-97 232.5z" />
<glyph unicode="v" horiz-adv-x="1337" d="M96 973h439l71 -623l500 623h344l-819 -973h-414z" />
<glyph unicode="w" horiz-adv-x="2181" d="M96 0v973h428l-6 -570l498 570h420l22 -588l494 588h338l-824 -973h-409l-25 614l-557 -614h-379z" />
<glyph unicode="x" horiz-adv-x="1449" d="M-250 0l662 487l-353 486h502l182 -277l371 277h434l-655 -463l393 -510h-528l-197 287l-379 -287h-432z" />
<glyph unicode="y" horiz-adv-x="1316" d="M-266 -381l76 225q63 -18 112 -18q183 0 303 174l-162 973h455l72 -623l500 623h346l-895 -1061q-269 -320 -607 -320q-98 0 -200 27z" />
<glyph unicode="z" horiz-adv-x="1374" d="M-90 184l795 568h-586l76 221h1097l19 -197l-783 -555h641l-77 -221h-1180z" />
<glyph unicode="{" horiz-adv-x="999" d="M10 467l80 235h68q111 0 175 51.5t101 157.5l76 222q24 69 52.5 119t75.5 94.5t110.5 72t156.5 43t215 15.5h174l-82 -236h-143q-72 0 -115 -35.5t-73 -124.5l-64 -190q-49 -145 -140.5 -217t-264.5 -103q94 -21 149 -77t55 -142q0 -40 -16 -90l-100 -289 q-19 -55 -19 -77q0 -68 97 -68h145l-80 -236h-147q-195 0 -301.5 56t-106.5 188q0 68 35 168l92 270q14 41 14 80q0 113 -151 113h-68z" />
<glyph unicode="|" horiz-adv-x="579" d="M-172 -389l698 2027h250l-698 -2027h-250z" />
<glyph unicode="}" horiz-adv-x="999" d="M-313 -412l82 236h143q72 0 115 35.5t73 124.5l64 190q49 145 140.5 217t264.5 103q-94 21 -149 77t-55 142q0 40 16 90l100 289q19 55 19 77q0 68 -97 68h-145l80 236h147q195 0 301.5 -56t106.5 -188q0 -68 -35 -168l-92 -270q-14 -41 -14 -80q0 -113 151 -113h68 l-80 -236h-68q-111 0 -175.5 -51t-100.5 -157l-76 -222q-24 -69 -52.5 -119t-75.5 -94.5t-110.5 -72t-156.5 -43t-215 -15.5h-174z" />
<glyph unicode="~" horiz-adv-x="1683" d="M90 473q14 62 36 113t61.5 100.5t92 83t131 54t175.5 20.5q75 0 160 -22t146.5 -49t125 -49t100.5 -22q124 0 144 127h301q-82 -370 -496 -370q-75 0 -160 22.5t-146.5 49t-125 49t-100.5 22.5q-124 0 -144 -129h-301z" />
<glyph unicode="&#xa1;" horiz-adv-x="901" d="M-188 -412l401 922h426l-244 -922h-583zM217 623l119 350h495l-118 -350h-496z" />
<glyph unicode="&#xa2;" horiz-adv-x="1417" d="M63 588q0 274 226 460.5t600 231.5l86 236h295l-82 -226q201 -3 346 -45l-86 -244q-55 17 -151.5 27t-180.5 10q-94 0 -176 -14t-154 -46t-123 -79.5t-80.5 -118t-29.5 -159.5q0 -73 25 -126.5t66.5 -85.5t105 -51t129.5 -25.5t151 -6.5q108 0 219 12l-92 -242 q-137 -20 -264 -20q-34 0 -100 4l-84 -234h-295l98 275q-99 26 -178 65.5t-141 95.5t-96 134t-34 172z" />
<glyph unicode="&#xa3;" horiz-adv-x="1550" d="M-98 0l75 217q116 46 182.5 113.5t100.5 173.5l27 84h-226l80 227h221l44 123q82 231 294 358t517 127q273 0 448 -71l-88 -244q-155 57 -313 57q-275 0 -353 -221l-45 -129h520l-79 -227h-516l-31 -84q-32 -89 -82 -146.5t-141 -101.5h811l-88 -256h-1358z" />
<glyph unicode="&#xa5;" horiz-adv-x="1644" d="M-4 254l61 186h445l47 135l-4 11h-439l62 186h295l-264 612h495l226 -553l536 553h420l-633 -612h332l-66 -186h-458l-47 -146h460l-65 -186h-457l-84 -254h-504l86 254h-444z" />
<glyph unicode="&#xa6;" horiz-adv-x="579" d="M-180 -408l297 859h250l-297 -859h-250zM238 799l288 839h250l-289 -839h-249z" />
<glyph unicode="&#xa7;" horiz-adv-x="1531" d="M-188 -264l84 241q101 -56 253 -93.5t285 -37.5q271 0 271 146q0 33 -27.5 58t-73 41.5t-103.5 35.5t-118 37t-118 49.5t-103.5 70t-73 100.5t-27.5 140q0 115 67 203t191 143q-20 50 -20 119q0 136 96 235.5t261 149t380 49.5q165 0 314.5 -22.5t240.5 -57.5l-84 -241 q-73 26 -202 46.5t-238 20.5q-293 0 -293 -114q0 -34 27.5 -61t72.5 -44.5t102.5 -37.5t117 -38.5t117 -50t102.5 -70.5t72.5 -100.5t27.5 -138.5q0 -126 -66 -220t-186 -151q15 -54 15 -94q0 -113 -53.5 -201t-151 -143.5t-229 -84t-291.5 -28.5q-189 0 -358.5 39 t-280.5 105zM434 610q0 -45 59 -80.5t137.5 -57t186.5 -59t178 -79.5q49 37 49 102q0 42 -57.5 75.5t-134 53t-183.5 55t-177 74.5q-58 -31 -58 -84z" />
<glyph unicode="&#xa8;" horiz-adv-x="1781" d="M408 1124l104 287h381l-102 -287h-383zM973 1124l104 287h381l-102 -287h-383z" />
<glyph unicode="&#xa9;" horiz-adv-x="2160" d="M123 625q0 161 79.5 306.5t220 254.5t346.5 173t445 64q451 0 690.5 -177.5t239.5 -489.5q0 -129 -50 -248.5t-146.5 -218.5t-228 -172.5t-303 -114.5t-363.5 -41q-452 0 -691 176.5t-239 487.5zM303 625q0 -232 202 -373t552 -141q190 0 356 45t288 126.5t192.5 204 t70.5 269.5q0 232 -202 373t-552 141q-190 0 -356 -45t-288 -126.5t-192.5 -204t-70.5 -269.5zM621 643q0 96 39 175.5t105 132.5t154.5 89.5t185 53t198.5 16.5q191 0 299 -41l-60 -180q-93 26 -199 26q-70 0 -131 -15t-112 -45.5t-81 -84t-30 -123.5q0 -86 73 -129 t185 -43q129 0 201 17l-70 -197q-95 -19 -229 -19q-104 0 -197.5 23.5t-168 67.5t-118.5 115.5t-44 160.5z" />
<glyph unicode="&#xaa;" horiz-adv-x="1206" d="M260 981q0 92 37 167t99.5 125t148 84.5t180.5 50t199 15.5q243 0 397 -57l-207 -604h-317l32 102q-57 -54 -136.5 -87.5t-162.5 -33.5q-118 0 -194 62.5t-76 175.5zM588 1020q0 -41 24 -63.5t64 -22.5q77 0 166 67l94 271q-14 2 -37 2q-54 0 -107 -15.5t-99.5 -45 t-75.5 -80t-29 -113.5z" />
<glyph unicode="&#xab;" horiz-adv-x="1456" d="M20 514l447 401h414l-430 -409l247 -406h-356zM657 514l435 401h409l-409 -409l170 -406h-336z" />
<glyph unicode="&#xac;" horiz-adv-x="1683" d="M170 735l90 262h1430l-252 -731h-297l162 469h-1133z" />
<glyph unicode="&#xad;" horiz-adv-x="1251" d="M119 457l78 227h919l-78 -227h-919z" />
<glyph unicode="&#xae;" horiz-adv-x="1515" d="M201 885q0 150 93 274t261 196t377 72q290 0 462.5 -125.5t172.5 -326.5q0 -150 -92.5 -274t-260 -196.5t-376.5 -72.5q-290 0 -463.5 126t-173.5 327zM336 893q0 -161 140.5 -261t369.5 -100q167 0 302 56.5t210.5 156t75.5 222.5q0 160 -141 260t-371 100 q-253 0 -419.5 -124t-166.5 -310zM461 684l170 498h325q316 0 316 -152q0 -68 -57.5 -113.5t-157.5 -60.5l172 -172h-299l-123 150q-23 0 -37 2l-53 -152h-256zM803 934q20 -2 55 -2q73 2 115.5 25t42.5 65q0 61 -86 61h-76z" />
<glyph unicode="&#xaf;" horiz-adv-x="1781" d="M406 1157l77 203h938l-75 -203h-940z" />
<glyph unicode="&#xb0;" horiz-adv-x="954" d="M266 1104q0 82 42.5 146t111.5 100t148.5 54.5t162.5 18.5q156 0 250 -59.5t94 -169.5q0 -82 -42.5 -146t-111.5 -100.5t-148 -55t-161 -18.5q-158 0 -252 60t-94 170zM459 1122q0 -55 50.5 -82.5t131.5 -27.5q42 0 82 8.5t77.5 26.5t60 51t22.5 78q0 54 -51 82t-132 28 q-42 0 -82 -8.5t-77 -26.5t-59.5 -51t-22.5 -78z" />
<glyph unicode="&#xb1;" horiz-adv-x="1683" d="M-82 0l90 264h1430l-90 -264h-1430zM147 664l91 264h559l118 352h312l-123 -352h563l-92 -264h-563l-115 -345h-311l119 345h-558z" />
<glyph unicode="&#xb2;" horiz-adv-x="1122" d="M158 733l360 185l56 28l51 25.5t42 22t37 21.5t29 19.5t24 20.5t15 21t11 24t3 26q0 44 -41 65t-106 21q-76 0 -165 -21.5t-128 -43.5l-39 192q71 39 178.5 61.5t221.5 22.5q89 0 166 -15t141.5 -46t101.5 -85t37 -124q0 -50 -18 -93t-44.5 -73t-70.5 -59.5t-82 -48 t-94 -41.5l-209 -88h461l-64 -209h-854z" />
<glyph unicode="&#xb3;" horiz-adv-x="1148" d="M160 588l65 194q72 -39 174 -59.5t183 -20.5q190 0 190 103q0 80 -168 80q-48 0 -102 -6l-33 153l424 160h-531l62 192h805l28 -182l-421 -192q44 -2 84 -9t81 -23t70.5 -39.5t48.5 -61.5t19 -86q0 -76 -47 -134.5t-126.5 -92t-175 -50t-202.5 -16.5q-261 0 -428 90z" />
<glyph unicode="&#xb4;" horiz-adv-x="1781" d="M655 1110l226 313h505l-382 -313h-349z" />
<glyph unicode="&#xb6;" horiz-adv-x="1994" d="M164 872q0 243 226 376.5t611 133.5h527l-613 -1790h-366l305 900h-137q-110 0 -207.5 23t-176 68t-124 119.5t-45.5 169.5zM1139 -408l612 1790h348l-612 -1790h-348z" />
<glyph unicode="&#xb7;" horiz-adv-x="878" d="M115 416l123 354h548l-122 -354h-549z" />
<glyph unicode="&#xb8;" horiz-adv-x="1523" d="M430 -481l53 151q87 -32 176 -32q115 0 115 61q0 33 -31 45t-90 12h-141l139 283h219l-69 -145q270 -16 270 -203q0 -59 -34 -103.5t-90.5 -69t-120.5 -36.5t-134 -12q-76 0 -147.5 13.5t-114.5 35.5z" />
<glyph unicode="&#xb9;" horiz-adv-x="835" d="M274 1116v207q127 41 355 61h317l-293 -843h-352l217 618q-161 -22 -244 -43z" />
<glyph unicode="&#xba;" horiz-adv-x="1206" d="M238 1001q0 101 51.5 183t139.5 133t200 78.5t237 27.5q208 0 315 -71.5t107 -202.5q0 -102 -52 -184t-140 -133t-200 -78t-237 -27q-208 0 -314.5 71.5t-106.5 202.5zM578 1024q0 -152 129 -152q101 0 171 74.5t70 179.5q0 73 -33 111.5t-96 38.5q-101 0 -171 -74.5 t-70 -177.5z" />
<glyph unicode="&#xbb;" horiz-adv-x="1417" d="M-135 100l409 410l-170 405h336l269 -413l-435 -402h-409zM485 100l430 410l-247 405h356l322 -413l-447 -402h-414z" />
<glyph unicode="&#xbc;" horiz-adv-x="2451" d="M274 1116v207q127 41 355 61h317l-293 -843h-352l217 618q-161 -22 -244 -43zM356 0l1239 1382h322l-1237 -1382h-324zM1241 307q107 159 288.5 306t389.5 241h405l-182 -524h187l-64 -176h-182l-53 -154h-336l53 154h-473zM1493 330h313l115 332q-113 -60 -227.5 -148 t-200.5 -184z" />
<glyph unicode="&#xbd;" horiz-adv-x="2553" d="M274 1116v207q127 41 355 61h317l-293 -843h-352l217 618q-161 -22 -244 -43zM395 0l1239 1382h322l-1237 -1382h-324zM1417 193l361 184q21 11 56 28.5l51 25.5t42 22t37.5 21.5t28.5 19.5t24 21t15.5 21t11 24t2.5 26q0 44 -41 65t-107 21q-76 0 -164 -21.5t-128 -44.5 l-39 193q71 39 178 61.5t221 22.5q89 0 166.5 -15.5t141.5 -46.5t101.5 -85t37.5 -124q0 -50 -18 -93t-44.5 -73t-71 -59.5t-82.5 -48t-94 -41.5l-209 -88h461l-63 -209h-854z" />
<glyph unicode="&#xbe;" horiz-adv-x="2850" d="M162 588l65 194q72 -39 174 -59.5t183 -20.5q190 0 190 103q0 80 -168 80q-48 0 -102 -6l-33 153l424 160h-530l61 192h805l29 -182l-422 -192q44 -2 84 -9t81 -23t70.5 -39.5t48.5 -61.5t19 -86q0 -76 -47 -134.5t-126.5 -92t-175 -50t-202.5 -16.5q-261 0 -428 90z M735 0l1239 1382h322l-1237 -1382h-324zM1640 307q107 159 288.5 306t389.5 241h406l-182 -524h186l-64 -176h-182l-53 -154h-336l53 154h-473zM1892 330h314l114 332q-113 -60 -227.5 -148t-200.5 -184z" />
<glyph unicode="&#xbf;" horiz-adv-x="1056" d="M-193 -119q0 63 22 117.5t64.5 99t89 78.5t109.5 70q21 12 61 32.5t63 33.5t51 31t44 36t23 37l31 94h471l-41 -121q-35 -104 -84.5 -165t-167.5 -124q-37 -20 -87 -43.5t-76.5 -36.5t-53.5 -30t-38.5 -35.5t-11.5 -42.5q0 -92 207 -92q107 0 223.5 21.5t200.5 54.5 l17 -275q-89 -32 -235 -52t-288 -20q-88 0 -169 9.5t-160 34t-136.5 61t-93 95t-35.5 132.5zM369 623l118 350h529l-121 -350h-526z" />
<glyph unicode="&#xc0;" horiz-adv-x="1824" d="M-287 0l1250 1384h419l306 -1384h-508l-41 219h-815l-195 -219h-416zM553 471h537l-95 494zM743 1802h439l170 -313h-330z" />
<glyph unicode="&#xc1;" horiz-adv-x="1824" d="M-287 0l1250 1384h419l306 -1384h-508l-41 219h-815l-195 -219h-416zM553 471h537l-95 494zM1018 1489l225 313h506l-383 -313h-348z" />
<glyph unicode="&#xc2;" horiz-adv-x="1824" d="M-287 0l1250 1384h419l306 -1384h-508l-41 219h-815l-195 -219h-416zM553 471h537l-95 494zM637 1489l397 313h457l162 -313h-316l-116 139l-220 -139h-364z" />
<glyph unicode="&#xc3;" horiz-adv-x="1824" d="M-287 0l1250 1384h419l306 -1384h-508l-41 219h-815l-195 -219h-416zM553 471h537l-95 494zM666 1489q17 156 109 243t247 87q62 0 116.5 -18t86.5 -39.5t69.5 -39.5t67.5 -18q64 0 76 102h256q-17 -156 -109.5 -242.5t-247.5 -86.5q-62 0 -116.5 18t-86.5 39t-69.5 39 t-67.5 18q-63 0 -75 -102h-256z" />
<glyph unicode="&#xc4;" horiz-adv-x="1824" d="M-287 0l1250 1384h419l306 -1384h-508l-41 219h-815l-195 -219h-416zM553 471h537l-95 494zM719 1503l104 287h381l-102 -287h-383zM1284 1503l105 287h380l-102 -287h-383z" />
<glyph unicode="&#xc5;" horiz-adv-x="1824" d="M-287 0l1250 1384h419l306 -1384h-508l-41 219h-815l-195 -219h-416zM553 471h537l-95 494zM823 1622q0 62 38.5 110t103.5 75t140 40t157 13q159 0 254.5 -50.5t95.5 -140.5q0 -64 -39.5 -111.5t-106 -74t-142.5 -39t-161 -12.5q-153 0 -246.5 51t-93.5 139zM1085 1630 q0 -44 30 -67t79 -23q68 0 112 32.5t44 88.5q0 44 -30 67t-79 23q-65 0 -110.5 -31t-45.5 -90z" />
<glyph unicode="&#xc6;" horiz-adv-x="2746" d="M-340 0l1544 1384h1655l-88 -256h-897l-109 -311h828l-84 -242h-826l-108 -319h936l-88 -256h-1440l76 219h-680l-242 -219h-477zM653 471h492l221 647z" />
<glyph unicode="&#xc7;" horiz-adv-x="1685" d="M100 543q0 129 35 242t97 201t149 160.5t190 123.5t220.5 85.5t240 51t248.5 16.5q248 0 467 -59l-88 -260q-166 41 -332 41q-115 0 -218 -19t-195.5 -62.5t-159 -108.5t-105.5 -162t-39 -218q0 -82 26 -143.5t68.5 -99t105.5 -61t129 -32t146 -8.5q177 0 375 31 l-88 -266q-158 -35 -391 -35q-79 0 -156 6l-34 -73q270 -16 270 -203q0 -59 -34 -103.5t-90.5 -69t-120.5 -36.5t-134 -12q-76 0 -147.5 13.5t-114.5 35.5l53 151q87 -32 176 -32q115 0 115 61q0 33 -31 45t-90 12h-141l116 238q-518 104 -518 549z" />
<glyph unicode="&#xc8;" horiz-adv-x="1724" d="M-39 0l475 1384h1401l-88 -256h-897l-109 -311h828l-84 -242h-825l-109 -319h936l-88 -256h-1440zM797 1802h438l170 -313h-330z" />
<glyph unicode="&#xc9;" horiz-adv-x="1724" d="M-39 0l475 1384h1401l-88 -256h-897l-109 -311h828l-84 -242h-825l-109 -319h936l-88 -256h-1440zM938 1489l225 313h506l-383 -313h-348z" />
<glyph unicode="&#xca;" horiz-adv-x="1724" d="M-39 0l475 1384h1401l-88 -256h-897l-109 -311h828l-84 -242h-825l-109 -319h936l-88 -256h-1440zM639 1489l397 313h457l162 -313h-316l-116 139l-219 -139h-365z" />
<glyph unicode="&#xcb;" horiz-adv-x="1724" d="M-39 0l475 1384h1401l-88 -256h-897l-109 -311h828l-84 -242h-825l-109 -319h936l-88 -256h-1440zM690 1503l105 287h381l-103 -287h-383zM1255 1503l105 287h381l-103 -287h-383z" />
<glyph unicode="&#xcc;" horiz-adv-x="833" d="M-39 0l475 1384h504l-475 -1384h-504zM293 1802h438l170 -313h-330z" />
<glyph unicode="&#xcd;" horiz-adv-x="833" d="M-39 0l475 1384h504l-475 -1384h-504zM530 1489l226 313h506l-383 -313h-349z" />
<glyph unicode="&#xce;" horiz-adv-x="833" d="M-39 0l475 1384h504l-475 -1384h-504zM190 1489l398 313h456l162 -313h-315l-117 139l-219 -139h-365z" />
<glyph unicode="&#xcf;" horiz-adv-x="833" d="M-39 0l475 1384h504l-475 -1384h-504zM260 1501l105 287h380l-102 -287h-383zM825 1501l105 287h381l-103 -287h-383z" />
<glyph unicode="&#xd0;" horiz-adv-x="2103" d="M0 596l80 227h278l193 561h706q395 0 605.5 -150t210.5 -425q0 -133 -46.5 -252.5t-144.5 -221.5t-240 -176.5t-343.5 -116.5t-444.5 -42h-778l205 596h-281zM668 256h235q143 0 257 29.5t190 80t126.5 121t72.5 149.5t22 169q0 153 -100.5 238t-305.5 85h-198l-105 -305 h408l-80 -227h-406z" />
<glyph unicode="&#xd1;" horiz-adv-x="1970" d="M-39 0l475 1384h318l694 -854l291 854h338l-475 -1384h-320l-692 846l-291 -846h-338zM776 1489q17 156 109.5 243t247.5 87q62 0 116.5 -18t86.5 -39.5t69.5 -39.5t67.5 -18q63 0 75 102h256q-17 -156 -109 -242.5t-247 -86.5q-62 0 -116.5 18t-86.5 39t-69.5 39 t-67.5 18q-64 0 -76 -102h-256z" />
<glyph unicode="&#xd2;" horiz-adv-x="2039" d="M98 592q0 124 44.5 243.5t137 226t222 187t312 127.5t394.5 47q384 0 592.5 -165.5t208.5 -464.5q0 -124 -44.5 -243.5t-137 -226.5t-221.5 -187.5t-311 -127.5t-394 -47q-385 0 -594 166t-209 465zM598 616q0 -82 19.5 -150.5t61.5 -125.5t116.5 -89t175.5 -32 q106 0 196 32.5t151.5 87t105.5 126t64.5 148.5t20.5 155q0 82 -19.5 150.5t-61 125.5t-116 89t-175.5 32q-131 0 -237 -49.5t-170 -129.5t-98 -175.5t-34 -194.5zM856 1802h438l170 -313h-329z" />
<glyph unicode="&#xd3;" horiz-adv-x="2039" d="M98 592q0 124 44.5 243.5t137 226t222 187t312 127.5t394.5 47q384 0 592.5 -165.5t208.5 -464.5q0 -124 -44.5 -243.5t-137 -226.5t-221.5 -187.5t-311 -127.5t-394 -47q-385 0 -594 166t-209 465zM598 616q0 -82 19.5 -150.5t61.5 -125.5t116.5 -89t175.5 -32 q106 0 196 32.5t151.5 87t105.5 126t64.5 148.5t20.5 155q0 82 -19.5 150.5t-61 125.5t-116 89t-175.5 32q-131 0 -237 -49.5t-170 -129.5t-98 -175.5t-34 -194.5zM1018 1489l225 313h506l-383 -313h-348z" />
<glyph unicode="&#xd4;" horiz-adv-x="2039" d="M98 592q0 124 44.5 243.5t137 226t222 187t312 127.5t394.5 47q384 0 592.5 -165.5t208.5 -464.5q0 -124 -44.5 -243.5t-137 -226.5t-221.5 -187.5t-311 -127.5t-394 -47q-385 0 -594 166t-209 465zM598 616q0 -82 19.5 -150.5t61.5 -125.5t116.5 -89t175.5 -32 q106 0 196 32.5t151.5 87t105.5 126t64.5 148.5t20.5 155q0 82 -19.5 150.5t-61 125.5t-116 89t-175.5 32q-131 0 -237 -49.5t-170 -129.5t-98 -175.5t-34 -194.5zM745 1489l398 313h456l162 -313h-315l-117 139l-219 -139h-365z" />
<glyph unicode="&#xd5;" horiz-adv-x="2039" d="M98 592q0 124 44.5 243.5t137 226t222 187t312 127.5t394.5 47q384 0 592.5 -165.5t208.5 -464.5q0 -124 -44.5 -243.5t-137 -226.5t-221.5 -187.5t-311 -127.5t-394 -47q-385 0 -594 166t-209 465zM598 616q0 -82 19.5 -150.5t61.5 -125.5t116.5 -89t175.5 -32 q106 0 196 32.5t151.5 87t105.5 126t64.5 148.5t20.5 155q0 82 -19.5 150.5t-61 125.5t-116 89t-175.5 32q-131 0 -237 -49.5t-170 -129.5t-98 -175.5t-34 -194.5zM776 1489q17 156 109.5 243t247.5 87q62 0 116.5 -18t86.5 -39.5t69.5 -39.5t67.5 -18q63 0 75 102h256 q-17 -156 -109 -242.5t-247 -86.5q-62 0 -116.5 18t-86.5 39t-69.5 39t-67.5 18q-64 0 -76 -102h-256z" />
<glyph unicode="&#xd6;" horiz-adv-x="2039" d="M98 592q0 124 44.5 243.5t137 226t222 187t312 127.5t394.5 47q384 0 592.5 -165.5t208.5 -464.5q0 -124 -44.5 -243.5t-137 -226.5t-221.5 -187.5t-311 -127.5t-394 -47q-385 0 -594 166t-209 465zM598 616q0 -82 19.5 -150.5t61.5 -125.5t116.5 -89t175.5 -32 q106 0 196 32.5t151.5 87t105.5 126t64.5 148.5t20.5 155q0 82 -19.5 150.5t-61 125.5t-116 89t-175.5 32q-131 0 -237 -49.5t-170 -129.5t-98 -175.5t-34 -194.5zM762 1501l104 287h381l-102 -287h-383zM1327 1501l105 287h380l-102 -287h-383z" />
<glyph unicode="&#xd7;" horiz-adv-x="1683" d="M66 236l567 405l-311 406l241 178l314 -406l565 406l155 -197l-565 -407l311 -408l-245 -174l-314 407l-569 -409z" />
<glyph unicode="&#xd8;" horiz-adv-x="2062" d="M12 80l201 141q-115 148 -115 371q0 124 44.5 243.5t137 226t222 187t312 127.5t394.5 47q333 0 533 -125l223 158l121 -172l-184 -129q108 -147 108 -362q0 -124 -44.5 -243.5t-137 -226.5t-221.5 -187.5t-311 -127.5t-394 -47q-325 0 -528 119l-246 -172zM598 616 q0 -54 10 -116l801 565q-97 100 -272 100q-131 0 -237 -49.5t-170 -129.5t-98 -175.5t-34 -194.5zM702 313q94 -94 269 -94q106 0 196 32.5t151.5 87t105.5 126t64.5 148.5t20.5 155q0 49 -10 104z" />
<glyph unicode="&#xd9;" horiz-adv-x="1867" d="M123 430q0 105 41 223l252 731h504l-275 -798q-27 -76 -27 -140q0 -108 75.5 -167.5t215.5 -59.5q178 0 302.5 96.5t179.5 264.5l264 804h325l-301 -862q-97 -280 -305 -420.5t-551 -140.5q-339 0 -519.5 127t-180.5 342zM819 1802h438l170 -313h-329z" />
<glyph unicode="&#xda;" horiz-adv-x="1867" d="M123 430q0 105 41 223l252 731h504l-275 -798q-27 -76 -27 -140q0 -108 75.5 -167.5t215.5 -59.5q178 0 302.5 96.5t179.5 264.5l264 804h325l-301 -862q-97 -280 -305 -420.5t-551 -140.5q-339 0 -519.5 127t-180.5 342zM1075 1489l225 313h506l-383 -313h-348z" />
<glyph unicode="&#xdb;" horiz-adv-x="1867" d="M123 430q0 105 41 223l252 731h504l-275 -798q-27 -76 -27 -140q0 -108 75.5 -167.5t215.5 -59.5q178 0 302.5 96.5t179.5 264.5l264 804h325l-301 -862q-97 -280 -305 -420.5t-551 -140.5q-339 0 -519.5 127t-180.5 342zM676 1489l397 313h457l162 -313h-316l-116 139 l-220 -139h-364z" />
<glyph unicode="&#xdc;" horiz-adv-x="1867" d="M123 430q0 105 41 223l252 731h504l-275 -798q-27 -76 -27 -140q0 -108 75.5 -167.5t215.5 -59.5q178 0 302.5 96.5t179.5 264.5l264 804h325l-301 -862q-97 -280 -305 -420.5t-551 -140.5q-339 0 -519.5 127t-180.5 342zM760 1503l104 287h381l-102 -287h-383z M1325 1503l105 287h380l-102 -287h-383z" />
<glyph unicode="&#xdd;" horiz-adv-x="1644" d="M184 1384h516l275 -579l598 579h420l-901 -854l-179 -530h-503l194 575zM981 1489l225 313h506l-383 -313h-348z" />
<glyph unicode="&#xde;" horiz-adv-x="1810" d="M-41 0l416 1208l61 176h504l-61 -176h202q346 0 527.5 -113t181.5 -333q0 -99 -40.5 -181.5t-112.5 -141.5t-167 -103.5t-209.5 -70.5t-232.5 -39t-244 -13q-114 0 -243 12l-78 -225h-504zM629 481q62 -6 164 -6q69 0 130.5 6t128 24t114 46.5t78 78.5t30.5 115 q0 100 -73.5 153.5t-199.5 53.5h-210z" />
<glyph unicode="&#xdf;" horiz-adv-x="1658" d="M-68 0l344 1004q38 111 110.5 203t177 161.5t247.5 108.5t311 39q280 0 439 -94.5t159 -252.5q0 -36 -10 -69.5t-24 -59t-40.5 -52t-46.5 -43.5t-55.5 -39t-56 -33t-57.5 -31q-77 -39 -115.5 -66.5t-38.5 -54.5q0 -24 24 -57t58 -69.5t67.5 -78t57.5 -95t24 -108.5 q0 -94 -49 -164t-134 -110t-184.5 -59t-213.5 -19q-89 0 -177.5 14.5t-142.5 40.5l74 220q101 -48 242 -48q159 0 159 97q0 26 -24 58t-58 63.5t-67.5 65t-57.5 74.5t-24 81q0 20 6 40t13.5 35t25 33.5t29 29.5t37.5 29.5t39 26.5t44 28t43 28q46 30 72.5 50t58.5 52t47 69 t15 80q0 72 -56 110t-143 38q-134 0 -217.5 -72.5t-132.5 -216.5l-342 -987h-457z" />
<glyph unicode="&#xe0;" d="M0 319q0 103 31 193.5t85.5 160t131.5 126t166.5 95.5t192.5 65.5t208.5 38.5t214.5 12q302 0 537 -80l-320 -930h-428l37 115q-81 -72 -198 -113t-238 -41q-85 0 -158.5 21t-133 63t-94 112.5t-34.5 161.5zM457 389q0 -162 159 -162q68 0 145 27t134 65l164 472 q-58 4 -86 4q-74 0 -146 -15t-139.5 -47.5t-118.5 -79t-81.5 -115t-30.5 -149.5zM547 1423h438l170 -313h-330z" />
<glyph unicode="&#xe1;" d="M0 319q0 103 31 193.5t85.5 160t131.5 126t166.5 95.5t192.5 65.5t208.5 38.5t214.5 12q302 0 537 -80l-320 -930h-428l37 115q-81 -72 -198 -113t-238 -41q-85 0 -158.5 21t-133 63t-94 112.5t-34.5 161.5zM457 389q0 -162 159 -162q68 0 145 27t134 65l164 472 q-58 4 -86 4q-74 0 -146 -15t-139.5 -47.5t-118.5 -79t-81.5 -115t-30.5 -149.5zM784 1110l226 313h506l-383 -313h-349z" />
<glyph unicode="&#xe2;" d="M0 319q0 103 31 193.5t85.5 160t131.5 126t166.5 95.5t192.5 65.5t208.5 38.5t214.5 12q302 0 537 -80l-320 -930h-428l37 115q-81 -72 -198 -113t-238 -41q-85 0 -158.5 21t-133 63t-94 112.5t-34.5 161.5zM416 1110l397 313h457l162 -313h-316l-117 139l-219 -139h-364 zM457 389q0 -162 159 -162q68 0 145 27t134 65l164 472q-58 4 -86 4q-74 0 -146 -15t-139.5 -47.5t-118.5 -79t-81.5 -115t-30.5 -149.5z" />
<glyph unicode="&#xe3;" d="M0 319q0 103 31 193.5t85.5 160t131.5 126t166.5 95.5t192.5 65.5t208.5 38.5t214.5 12q302 0 537 -80l-320 -930h-428l37 115q-81 -72 -198 -113t-238 -41q-85 0 -158.5 21t-133 63t-94 112.5t-34.5 161.5zM457 389q0 -162 159 -162q68 0 145 27t134 65l164 472 q-58 4 -86 4q-74 0 -146 -15t-139.5 -47.5t-118.5 -79t-81.5 -115t-30.5 -149.5zM477 1110q17 156 109.5 243t247.5 87q62 0 116.5 -18t86.5 -39.5t69.5 -39.5t67.5 -18q63 0 75 102h256q-17 -156 -109 -242.5t-247 -86.5q-62 0 -116.5 18t-86.5 39t-69.5 39t-67.5 18 q-64 0 -76 -102h-256z" />
<glyph unicode="&#xe4;" d="M0 319q0 103 31 193.5t85.5 160t131.5 126t166.5 95.5t192.5 65.5t208.5 38.5t214.5 12q302 0 537 -80l-320 -930h-428l37 115q-81 -72 -198 -113t-238 -41q-85 0 -158.5 21t-133 63t-94 112.5t-34.5 161.5zM457 389q0 -162 159 -162q68 0 145 27t134 65l164 472 q-58 4 -86 4q-74 0 -146 -15t-139.5 -47.5t-118.5 -79t-81.5 -115t-30.5 -149.5zM463 1122l104 287h381l-102 -287h-383zM1028 1122l105 287h380l-102 -287h-383z" />
<glyph unicode="&#xe5;" d="M0 319q0 103 31 193.5t85.5 160t131.5 126t166.5 95.5t192.5 65.5t208.5 38.5t214.5 12q302 0 537 -80l-320 -930h-428l37 115q-81 -72 -198 -113t-238 -41q-85 0 -158.5 21t-133 63t-94 112.5t-34.5 161.5zM457 389q0 -162 159 -162q68 0 145 27t134 65l164 472 q-58 4 -86 4q-74 0 -146 -15t-139.5 -47.5t-118.5 -79t-81.5 -115t-30.5 -149.5zM598 1239q0 62 38.5 110t103 75t139.5 40t157 13q159 0 254.5 -50.5t95.5 -140.5q0 -64 -39 -111.5t-105.5 -74t-142.5 -39t-161 -12.5q-153 0 -246.5 51t-93.5 139zM860 1247q0 -44 30 -67 t79 -23q68 0 111.5 32.5t43.5 88.5q0 44 -29.5 67t-78.5 23q-65 0 -110.5 -31t-45.5 -90z" />
<glyph unicode="&#xe6;" horiz-adv-x="2422" d="M0 319q0 103 31 193.5t85.5 160t131.5 126t166.5 95.5t192.5 65.5t208.5 38.5t214.5 12q205 0 381 -37q136 37 293 37q297 0 446.5 -112.5t149.5 -301.5q0 -78 -35 -188h-942q-2 -10 -2 -29q0 -182 348 -182q212 0 473 61l-39 -231q-292 -66 -547 -66q-410 0 -575 162 q-109 -78 -251 -120t-290 -42q-201 0 -320.5 88.5t-119.5 269.5zM457 389q0 -162 159 -162q63 0 132.5 22.5t125.5 57.5q-6 37 -6 82q0 236 187 402q-50 4 -82 4q-74 0 -146 -15t-139.5 -47.5t-118.5 -79t-81.5 -115t-30.5 -149.5zM1366 586h487q5 20 5 45q0 77 -50 120.5 t-143 43.5q-112 0 -189 -59t-110 -150z" />
<glyph unicode="&#xe7;" horiz-adv-x="1312" d="M4 387q0 123 52.5 227t140.5 176t203.5 122.5t240.5 74t252 23.5q226 0 383 -56l-78 -219q-130 45 -287 45q-69 0 -132.5 -12.5t-122.5 -42t-103 -72.5t-70 -109.5t-26 -148.5q0 -200 258 -200q88 0 183 20.5t159 44.5l-39 -240q-195 -59 -402 -59q-12 0 -37 1t-38 1 l-33 -69q270 -16 270 -203q0 -59 -34 -103.5t-90.5 -69t-120.5 -36.5t-134 -12q-76 0 -147.5 13.5t-114.5 35.5l53 151q87 -32 177 -32q114 0 114 61q0 33 -31 45t-90 12h-141l117 238q-153 41 -242.5 137.5t-89.5 255.5z" />
<glyph unicode="&#xe8;" horiz-adv-x="1558" d="M4 389q0 144 71 263.5t189 196.5t267 119t309 42q297 0 446.5 -112.5t149.5 -301.5q0 -78 -35 -188h-942q-2 -10 -2 -29q0 -182 348 -182q212 0 473 61l-39 -231q-292 -66 -539 -66q-108 0 -203.5 11.5t-188 42t-158 77.5t-106 123t-40.5 174zM477 1423h438l170 -313 h-329zM502 586h487q4 16 4 45q0 77 -49.5 120.5t-142.5 43.5q-112 0 -189 -59t-110 -150z" />
<glyph unicode="&#xe9;" horiz-adv-x="1558" d="M4 389q0 144 71 263.5t189 196.5t267 119t309 42q297 0 446.5 -112.5t149.5 -301.5q0 -78 -35 -188h-942q-2 -10 -2 -29q0 -182 348 -182q212 0 473 61l-39 -231q-292 -66 -539 -66q-108 0 -203.5 11.5t-188 42t-158 77.5t-106 123t-40.5 174zM502 586h487q4 16 4 45 q0 77 -49.5 120.5t-142.5 43.5q-112 0 -189 -59t-110 -150zM713 1110l225 313h506l-383 -313h-348z" />
<glyph unicode="&#xea;" horiz-adv-x="1558" d="M4 389q0 144 71 263.5t189 196.5t267 119t309 42q297 0 446.5 -112.5t149.5 -301.5q0 -78 -35 -188h-942q-2 -10 -2 -29q0 -182 348 -182q212 0 473 61l-39 -231q-292 -66 -539 -66q-108 0 -203.5 11.5t-188 42t-158 77.5t-106 123t-40.5 174zM375 1110l397 313h457 l162 -313h-316l-117 139l-219 -139h-364zM502 586h487q4 16 4 45q0 77 -49.5 120.5t-142.5 43.5q-112 0 -189 -59t-110 -150z" />
<glyph unicode="&#xeb;" horiz-adv-x="1558" d="M4 389q0 144 71 263.5t189 196.5t267 119t309 42q297 0 446.5 -112.5t149.5 -301.5q0 -78 -35 -188h-942q-2 -10 -2 -29q0 -182 348 -182q212 0 473 61l-39 -231q-292 -66 -539 -66q-108 0 -203.5 11.5t-188 42t-158 77.5t-106 123t-40.5 174zM455 1122l104 287h381 l-102 -287h-383zM502 586h487q4 16 4 45q0 77 -49.5 120.5t-142.5 43.5q-112 0 -189 -59t-110 -150zM1020 1122l104 287h381l-102 -287h-383z" />
<glyph unicode="&#xec;" horiz-adv-x="786" d="M-70 0l334 973h461l-334 -973h-461zM84 1423h438l170 -313h-330z" />
<glyph unicode="&#xed;" horiz-adv-x="786" d="M-70 0l334 973h461l-334 -973h-461zM346 1110l225 313h506l-383 -313h-348z" />
<glyph unicode="&#xee;" horiz-adv-x="786" d="M-70 0l334 973h461l-334 -973h-461zM-6 1110l397 313h457l162 -313h-316l-116 139l-220 -139h-364z" />
<glyph unicode="&#xef;" horiz-adv-x="786" d="M-70 0l334 973h461l-334 -973h-461zM53 1122l105 287h381l-103 -287h-383zM618 1122l105 287h381l-103 -287h-383z" />
<glyph unicode="&#xf0;" horiz-adv-x="1654" d="M4 373q0 138 70 258.5t185.5 202.5t266.5 129t312 47q215 0 317 -88q0 122 -33 245l-555 -69l56 162l456 55q-27 87 -57 158h350q26 -54 53 -119l289 32l-55 -159l-180 -21q63 -221 63 -448q0 -159 -45 -289.5t-127 -224t-198 -157.5t-257.5 -95t-306.5 -31 q-295 0 -449.5 108t-154.5 304zM459 403q0 -112 53.5 -170.5t155.5 -58.5q164 0 277.5 114.5t113.5 276.5q0 112 -54 171t-155 59q-163 0 -277 -115t-114 -277z" />
<glyph unicode="&#xf1;" horiz-adv-x="1654" d="M-70 0l334 973h426l-35 -117q234 154 502 154q165 0 262 -83t97 -231q0 -83 -35 -186l-174 -510h-461l188 549q15 44 15 78q0 51 -32 78.5t-95 27.5q-154 0 -314 -106l-217 -627h-461zM504 1110q17 156 109 243t247 87q62 0 116.5 -18t86.5 -39.5t69.5 -39.5t67.5 -18 q64 0 76 102h256q-17 -156 -109 -242.5t-247 -86.5q-62 0 -116.5 18t-86.5 39t-69.5 39t-67.5 18q-64 0 -76 -102h-256z" />
<glyph unicode="&#xf2;" horiz-adv-x="1626" d="M4 373q0 153 74.5 276.5t201 201t288 118.5t341.5 41q295 0 449.5 -109t154.5 -305q0 -123 -48.5 -227.5t-133.5 -178.5t-200 -126.5t-247.5 -77.5t-275.5 -25q-295 0 -449.5 108t-154.5 304zM459 403q0 -112 53.5 -169.5t155.5 -57.5q164 0 277.5 113.5t113.5 275.5 q0 112 -54 171t-155 59q-163 0 -277 -115t-114 -277zM563 1423h438l170 -313h-329z" />
<glyph unicode="&#xf3;" horiz-adv-x="1626" d="M4 373q0 153 74.5 276.5t201 201t288 118.5t341.5 41q295 0 449.5 -109t154.5 -305q0 -123 -48.5 -227.5t-133.5 -178.5t-200 -126.5t-247.5 -77.5t-275.5 -25q-295 0 -449.5 108t-154.5 304zM459 403q0 -112 53.5 -169.5t155.5 -57.5q164 0 277.5 113.5t113.5 275.5 q0 112 -54 171t-155 59q-163 0 -277 -115t-114 -277zM768 1110l225 313h506l-383 -313h-348z" />
<glyph unicode="&#xf4;" horiz-adv-x="1626" d="M4 373q0 153 74.5 276.5t201 201t288 118.5t341.5 41q295 0 449.5 -109t154.5 -305q0 -123 -48.5 -227.5t-133.5 -178.5t-200 -126.5t-247.5 -77.5t-275.5 -25q-295 0 -449.5 108t-154.5 304zM418 1110l397 313h457l162 -313h-316l-117 139l-219 -139h-364zM459 403 q0 -112 53.5 -169.5t155.5 -57.5q164 0 277.5 113.5t113.5 275.5q0 112 -54 171t-155 59q-163 0 -277 -115t-114 -277z" />
<glyph unicode="&#xf5;" horiz-adv-x="1626" d="M4 373q0 153 74.5 276.5t201 201t288 118.5t341.5 41q295 0 449.5 -109t154.5 -305q0 -123 -48.5 -227.5t-133.5 -178.5t-200 -126.5t-247.5 -77.5t-275.5 -25q-295 0 -449.5 108t-154.5 304zM459 403q0 -112 53.5 -169.5t155.5 -57.5q164 0 277.5 113.5t113.5 275.5 q0 112 -54 171t-155 59q-163 0 -277 -115t-114 -277zM461 1110q17 156 109 243t247 87q62 0 116.5 -18t86.5 -39.5t69.5 -39.5t67.5 -18q64 0 76 102h256q-17 -156 -109 -242.5t-247 -86.5q-62 0 -116.5 18t-86.5 39t-69.5 39t-67.5 18q-64 0 -76 -102h-256z" />
<glyph unicode="&#xf6;" horiz-adv-x="1626" d="M4 373q0 153 74.5 276.5t201 201t288 118.5t341.5 41q295 0 449.5 -109t154.5 -305q0 -123 -48.5 -227.5t-133.5 -178.5t-200 -126.5t-247.5 -77.5t-275.5 -25q-295 0 -449.5 108t-154.5 304zM459 403q0 -112 53.5 -169.5t155.5 -57.5q164 0 277.5 113.5t113.5 275.5 q0 112 -54 171t-155 59q-163 0 -277 -115t-114 -277zM469 1124l104 287h381l-102 -287h-383zM1034 1124l105 287h381l-103 -287h-383z" />
<glyph unicode="&#xf7;" horiz-adv-x="1683" d="M88 500l90 264h1430l-90 -264h-1430zM432 53l115 336h418l-115 -336h-418zM717 877l112 335h418l-114 -335h-416z" />
<glyph unicode="&#xf8;" horiz-adv-x="1626" d="M-111 14l193 123q-78 96 -78 236q0 153 74.5 276.5t201 201t288 118.5t341.5 41q250 0 408 -84l258 166l74 -131l-211 -136q75 -93 75 -229q0 -123 -48.5 -227.5t-133.5 -178.5t-200 -126.5t-247.5 -77.5t-275.5 -25q-245 0 -401 78l-244 -156zM459 379l551 352 q-55 64 -160 64q-163 0 -277 -115t-114 -277v-24zM510 236q57 -60 158 -60q164 0 277.5 113.5t113.5 275.5v19z" />
<glyph unicode="&#xf9;" horiz-adv-x="1660" d="M27 276q0 86 34 187l175 510h460l-194 -555q-15 -44 -15 -78q0 -51 32 -79t95 -28q72 0 152 29.5t145 71.5l219 639h461l-334 -973h-426l35 117q-116 -76 -229.5 -117t-251.5 -41q-164 0 -261 84.5t-97 232.5zM504 1423h438l170 -313h-330z" />
<glyph unicode="&#xfa;" horiz-adv-x="1660" d="M27 276q0 86 34 187l175 510h460l-194 -555q-15 -44 -15 -78q0 -51 32 -79t95 -28q72 0 152 29.5t145 71.5l219 639h461l-334 -973h-426l35 117q-116 -76 -229.5 -117t-251.5 -41q-164 0 -261 84.5t-97 232.5zM764 1110l225 313h506l-383 -313h-348z" />
<glyph unicode="&#xfb;" horiz-adv-x="1660" d="M27 276q0 86 34 187l175 510h460l-194 -555q-15 -44 -15 -78q0 -51 32 -79t95 -28q72 0 152 29.5t145 71.5l219 639h461l-334 -973h-426l35 117q-116 -76 -229.5 -117t-251.5 -41q-164 0 -261 84.5t-97 232.5zM397 1110l398 313h456l162 -313h-315l-117 139l-219 -139 h-365z" />
<glyph unicode="&#xfc;" horiz-adv-x="1660" d="M27 276q0 86 34 187l175 510h460l-194 -555q-15 -44 -15 -78q0 -51 32 -79t95 -28q72 0 152 29.5t145 71.5l219 639h461l-334 -973h-426l35 117q-116 -76 -229.5 -117t-251.5 -41q-164 0 -261 84.5t-97 232.5zM455 1122l104 287h381l-102 -287h-383zM1020 1122l104 287 h381l-102 -287h-383z" />
<glyph unicode="&#xfd;" horiz-adv-x="1316" d="M-266 -381l76 225q63 -18 112 -18q183 0 303 174l-162 973h455l72 -623l500 623h346l-895 -1061q-269 -320 -607 -320q-98 0 -200 27zM625 1110l225 313h506l-383 -313h-348z" />
<glyph unicode="&#xfe;" horiz-adv-x="1554" d="M-203 -389l641 1866h441l-203 -590q76 57 184 90t217 33q84 0 156 -20.5t131 -61.5t93 -111t34 -162q0 -140 -55.5 -257t-150 -196.5t-221.5 -134.5t-267 -80.5t-289 -25.5q-76 0 -150 6l-122 -356h-439zM434 180q29 -4 86 -4q74 0 145.5 14.5t138.5 47t117 78.5 t80.5 114.5t30.5 149.5q0 161 -160 161q-68 0 -144.5 -27t-133.5 -65z" />
<glyph unicode="&#xff;" horiz-adv-x="1316" d="M-266 -381l76 225q63 -18 112 -18q183 0 303 174l-162 973h455l72 -623l500 623h346l-895 -1061q-269 -320 -607 -320q-98 0 -200 27zM301 1124l105 287h380l-102 -287h-383zM866 1124l105 287h381l-103 -287h-383z" />
<glyph unicode="&#x152;" horiz-adv-x="3078" d="M98 592q0 124 44.5 243.5t137 226t222 187t312 127.5t394.5 47q359 0 533 -192l53 153h1397l-88 -256h-897l-109 -311h828l-84 -242h-826l-108 -319h936l-88 -256h-1405l34 109q-91 -75 -221 -111.5t-262 -36.5q-385 0 -594 166t-209 465zM598 616q0 -82 19.5 -150.5 t61.5 -125.5t116.5 -89t175.5 -32q106 0 196 32.5t151.5 87t105.5 126t64.5 148.5t20.5 155q0 82 -19.5 150.5t-61 125.5t-116 89t-175.5 32q-131 0 -237 -49.5t-170 -129.5t-98 -175.5t-34 -194.5z" />
<glyph unicode="&#x153;" horiz-adv-x="2594" d="M4 373q0 153 74.5 276.5t201 201t288 118.5t341.5 41q318 0 455 -131q215 131 512 131t446.5 -112.5t149.5 -301.5q0 -78 -35 -188h-942q-2 -10 -2 -29q0 -182 348 -182q212 0 473 61l-39 -231q-292 -66 -549 -66q-379 0 -532 143q-232 -143 -586 -143q-295 0 -449.5 108 t-154.5 304zM459 403q0 -112 53.5 -169.5t155.5 -57.5q164 0 277.5 113.5t113.5 275.5q0 112 -54 171t-155 59q-163 0 -277 -115t-114 -277zM1538 586h487q5 20 5 45q0 77 -50 120.5t-143 43.5q-112 0 -189 -59t-110 -150z" />
<glyph unicode="&#x178;" horiz-adv-x="1644" d="M184 1384h516l275 -579l598 579h420l-901 -854l-179 -530h-503l194 575zM662 1503l104 287h381l-103 -287h-382zM1227 1503l104 287h381l-102 -287h-383z" />
<glyph unicode="&#x2c6;" horiz-adv-x="1781" d="M231 1110l398 313h456l162 -313h-315l-117 139l-219 -139h-365z" />
<glyph unicode="&#x2dc;" horiz-adv-x="1781" d="M354 1102q17 156 109.5 243t247.5 87q62 0 116.5 -18t86.5 -39.5t69.5 -39.5t67.5 -18q63 0 75 102h256q-17 -156 -109 -242.5t-247 -86.5q-62 0 -116.5 18t-86.5 39t-69.5 39t-67.5 18q-64 0 -76 -102h-256z" />
<glyph unicode="&#x2000;" horiz-adv-x="930" />
<glyph unicode="&#x2001;" horiz-adv-x="1860" />
<glyph unicode="&#x2002;" horiz-adv-x="930" />
<glyph unicode="&#x2003;" horiz-adv-x="1860" />
<glyph unicode="&#x2004;" horiz-adv-x="620" />
<glyph unicode="&#x2005;" horiz-adv-x="465" />
<glyph unicode="&#x2006;" horiz-adv-x="310" />
<glyph unicode="&#x2007;" horiz-adv-x="310" />
<glyph unicode="&#x2008;" horiz-adv-x="232" />
<glyph unicode="&#x2009;" horiz-adv-x="372" />
<glyph unicode="&#x200a;" horiz-adv-x="103" />
<glyph unicode="&#x2010;" horiz-adv-x="1251" d="M119 457l78 227h919l-78 -227h-919z" />
<glyph unicode="&#x2011;" horiz-adv-x="1251" d="M119 457l78 227h919l-78 -227h-919z" />
<glyph unicode="&#x2012;" horiz-adv-x="1251" d="M119 457l78 227h919l-78 -227h-919z" />
<glyph unicode="&#x2013;" horiz-adv-x="1841" d="M119 457l78 227h1509l-78 -227h-1509z" />
<glyph unicode="&#x2014;" horiz-adv-x="3182" d="M119 457l78 227h2850l-77 -227h-2851z" />
<glyph unicode="&#x2018;" horiz-adv-x="749" d="M70 872l553 512h362l-393 -512h-522z" />
<glyph unicode="&#x2019;" horiz-adv-x="749" d="M123 872l393 512h522l-553 -512h-362z" />
<glyph unicode="&#x201a;" horiz-adv-x="1058" d="M123 -197l393 512h522l-553 -512h-362z" />
<glyph unicode="&#x201c;" horiz-adv-x="1449" d="M98 872l580 512h401l-479 -512h-502zM823 872l467 512h367l-350 -512h-484z" />
<glyph unicode="&#x201d;" horiz-adv-x="1449" d="M143 872l351 512h483l-467 -512h-367zM721 872l479 512h502l-580 -512h-401z" />
<glyph unicode="&#x201e;" horiz-adv-x="1722" d="M143 -197l351 512h483l-467 -512h-367zM721 -197l479 512h502l-580 -512h-401z" />
<glyph unicode="&#x2022;" horiz-adv-x="995" d="M102 526q0 84 45 149t116 100t146 52t148 17q134 0 221.5 -59.5t87.5 -168.5q0 -57 -21 -105.5t-57 -82.5t-81.5 -59.5t-97 -40.5t-101 -22t-96.5 -7q-135 0 -222.5 59t-87.5 168z" />
<glyph unicode="&#x2026;" horiz-adv-x="2635" d="M-41 0l123 354h549l-123 -354h-549zM838 0l123 354h548l-123 -354h-548zM1716 0l123 354h549l-123 -354h-549z" />
<glyph unicode="&#x202f;" horiz-adv-x="372" />
<glyph unicode="&#x2039;" horiz-adv-x="825" d="M20 514l441 401h409l-421 -409l182 -406h-355z" />
<glyph unicode="&#x203a;" horiz-adv-x="786" d="M-135 100l422 410l-183 405h355l256 -413l-441 -402h-409z" />
<glyph unicode="&#x205f;" horiz-adv-x="465" />
<glyph unicode="&#x20ac;" horiz-adv-x="1638" d="M20 428l64 186h201q5 65 26 146h-176l64 186h194q130 219 379.5 348t562.5 129q241 0 389 -51l-86 -246q-130 39 -276 39q-314 0 -488 -219h592l-65 -186h-619q-19 -72 -22 -146h592l-64 -186h-506q35 -111 127.5 -157t233.5 -46q188 0 291 21l-95 -264 q-129 -21 -274 -21q-109 0 -208.5 14t-197 48t-171.5 86.5t-127.5 134t-71.5 184.5h-269z" />
<glyph unicode="&#x2122;" horiz-adv-x="2527" d="M266 1192l68 192h887l-70 -192h-252l-147 -428h-363l150 428h-273zM1147 764l213 620h409l91 -342l319 342h455l-213 -620h-336l131 373l-338 -373h-274l-105 383l-127 -383h-225z" />
<glyph unicode="&#xe000;" horiz-adv-x="972" d="M0 0v973h973v-973h-973z" />
</font>
</defs>
</svg>
